<svg xmlns="http://www.w3.org/2000/svg" width="36" height="36" viewBox="0 0 36 36"><g fill="none" fill-rule="evenodd"><rect width="36" height="36"/><path fill="#FCFCFC" d="M31.8181818,1 L31.8181818,30.3636364 C31.8181818,32.8225651 29.8781831,34.8503827 27.4531844,34.9920904 L27.1818182,35 L17.9090909,35 L17.9090909,32.6818182 L27.1818182,32.6818182 C28.4181819,32.6818182 29.3807487,31.7919787 29.4897137,30.5921045 L29.5,30.3636364 L29.5,3.31818182 L6.31818182,3.31818182 L6.31818182,30.3636364 C6.31818182,31.6000001 7.2080214,32.5625669 8.40789557,32.6715319 L8.63636364,32.6818182 L17.9090909,32.6818182 L17.9090909,35 L8.63636364,35 C6.17743507,35 4.14961735,33.0600013 4.00790961,30.6350026 L4,30.3636364 L4,1 L31.8181818,1 Z M24.0909092,19.2878789 C24.709091,19.2878789 25.25,19.828788 25.25,20.4469698 C25.25,21.0136364 24.7954862,21.5153725 24.2435765,21.59506 L24.0909092,21.6060607 L11.7272728,21.6060607 C11.1090909,21.6060607 10.5681818,21.0651516 10.5681818,20.4469698 C10.5681818,19.8803031 11.0226957,19.378567 11.5746055,19.2988795 L11.7272728,19.2878789 L24.0909092,19.2878789 Z M24.0909092,23.9242425 C24.709091,23.9242425 25.25,24.4651516 25.25,25.0833334 C25.25,25.6500001 24.7954862,26.1517362 24.2435765,26.2314237 L24.0909092,26.2424243 L11.7272728,26.2424243 C11.1090909,26.2424243 10.5681818,25.7015152 10.5681818,25.0833334 C10.5681818,24.5166667 11.0226957,24.0149306 11.5746055,23.9352431 L11.7272728,23.9242425 L24.0909092,23.9242425 Z M24.0909092,14.6515152 C24.709091,14.6515152 25.25,15.1924243 25.25,15.8106061 C25.25,16.3772728 24.7954862,16.8790089 24.2435765,16.9586964 L24.0909092,16.969697 L11.7272728,16.969697 C11.1090909,16.969697 10.5681818,16.4287879 10.5681818,15.8106061 C10.5681818,15.2439395 11.0226957,14.7422033 11.5746055,14.6625158 L11.7272728,14.6515152 L24.0909092,14.6515152 Z M24.0909092,10.0151516 C24.709091,10.0151516 25.25,10.5560606 25.25,11.1742425 C25.25,11.7409091 24.7954862,12.2426452 24.2435765,12.3223327 L24.0909092,12.3333334 L11.7272728,12.3333334 C11.1090909,12.3333334 10.5681818,11.7924243 10.5681818,11.1742425 C10.5681818,10.6075758 11.0226957,10.1058397 11.5746055,10.0261522 L11.7272728,10.0151516 L24.0909092,10.0151516 Z"/></g></svg>