<svg xmlns="http://www.w3.org/2000/svg" width="36" height="36" viewBox="0 0 36 36"><g fill="none" fill-rule="evenodd"><rect width="36" height="36"/><path fill="#FCFCFC" d="M17.973725,1 L32.29745,4.24168514 L32.29745,16.3037694 C32.29745,20.6008868 30.8650776,24.6718404 28.3772727,27.9889135 C25.9816088,31.1217049 23.2199406,32.8749418 21.0729718,33.8680162 L20.5034122,34.120473 C20.4112712,34.1595631 20.3205846,34.197199 20.2314442,34.2334387 L19.7158952,34.4345898 L19.7158952,34.4345898 L19.2418794,34.6050272 L19.2418794,34.6050272 L18.6184012,34.8092031 L18.6184012,34.8092031 L17.973725,35 L17.973725,35 C13.9932372,33.8627178 11.2935459,31.8914286 9.66870223,30.3592696 L9.25205744,29.9532521 L9.25205744,29.9532521 L8.8877825,29.5747488 C8.83138258,29.5142766 8.77712606,29.45519 8.72499359,29.3976085 L8.43753267,29.0711374 L8.43753267,29.0711374 L8.20012061,28.7865285 L8.20012061,28.7865285 L7.87172949,28.3658537 L7.87172949,28.3658537 C5.34786947,25.1208908 3.78966024,21.1172023 3.65893479,16.8825973 L3.65,16.3037694 L3.65,4.24168514 L17.973725,1 Z M17.973725,3.2616408 L5.9116408,6.05099778 L5.9116408,16.3037694 C5.9116408,23.767184 10.8872506,30.4013303 17.973725,32.5875831 C24.9184701,30.4450553 29.8359405,24.0307707 30.0298614,16.7505502 L30.0358092,16.3037694 L30.0358092,6.05099778 L17.973725,3.2616408 Z M15.8628603,19.0931264 L17.973725,21.2039911 L20.0845898,19.0931264 L21.5923503,19.0931264 C22.9451466,19.0931264 24.0962101,20.034546 24.4739646,21.345809 L24.5324834,21.5809313 L24.7586474,22.8625277 L11.1888027,22.8625277 L11.4149667,21.5809313 C11.6285661,20.228135 12.7835852,19.21156 14.1179222,19.1027826 L14.3550998,19.0931264 L15.8628603,19.0931264 Z M17.973725,9.29268293 C20.0845898,9.29268293 21.7431264,10.8004435 21.7431264,13.0620842 C21.7431264,15.3991131 20.1599778,17.5853658 17.973725,17.5853658 C15.7874723,17.5853658 14.2043237,15.323725 14.2043237,13.0620842 C14.2043237,10.8004435 15.8628603,9.29268293 17.973725,9.29268293 Z"/></g></svg>