<svg xmlns="http://www.w3.org/2000/svg" width="36" height="36" viewBox="0 0 36 36"><g fill="none" fill-rule="evenodd"><rect width="36" height="36" opacity=".3"/><path fill="#FCFCFC" d="M5.125,7.565 L30.875,7.565 C31.4963203,7.565 32,8.06867966 32,8.69 C32,9.31132034 31.4963203,9.815 30.875,9.815 L5.125,9.815 C4.50367966,9.815 4,9.31132034 4,8.69 C4,8.06867966 4.50367966,7.565 5.125,7.565 Z M5.125,16.875 L30.875,16.875 C31.4963203,16.875 32,17.3786797 32,18 C32,18.6213203 31.4963203,19.125 30.875,19.125 L5.125,19.125 C4.50367966,19.125 4,18.6213203 4,18 C4,17.3786797 4.50367966,16.875 5.125,16.875 Z M5.125,26.185 L22.8711404,26.185 C23.4924608,26.185 23.9961404,26.6886797 23.9961404,27.31 C23.9961404,27.9313203 23.4924608,28.435 22.8711404,28.435 L5.125,28.435 C4.50367966,28.435 4,27.9313203 4,27.31 C4,26.6886797 4.50367966,26.185 5.125,26.185 Z"/></g></svg>