<svg xmlns="http://www.w3.org/2000/svg" width="48" height="48" viewBox="0 0 48 48"><g fill="none" fill-rule="evenodd" transform="translate(.665 .665)"><rect width="36" height="36" x="5.335" y="5.335"/><path fill="#FCFCFC" d="M23.3345238,6.83452378 C32.4845239,6.83452378 39.8345238,14.1845238 39.8345238,23.3345238 C39.8345238,32.4845239 32.4845239,39.8345238 23.3345238,39.8345238 C14.1845238,39.8345238 6.83452378,32.4845239 6.83452378,23.3345238 C6.83452378,14.1845238 14.1845238,6.83452378 23.3345238,6.83452378 Z M23.3345238,9.08452379 C15.4595238,9.08452379 9.08452379,15.4595238 9.08452379,23.3345238 C9.08452379,31.2095239 15.4595238,37.5845238 23.3345238,37.5845238 C31.2095239,37.5845238 37.5845238,31.2095239 37.5845238,23.3345238 C37.5845238,15.4595238 31.2095239,9.08452379 23.3345238,9.08452379 Z M27.8345239,17.2595238 C28.2845239,16.8095238 28.9595239,16.8095238 29.4095239,17.2595238 C29.8186148,17.6686147 29.8558049,18.2636561 29.5210941,18.7065561 L29.4095239,18.8345238 L18.8345238,29.4095239 C18.3845238,29.8595239 17.7095238,29.8595239 17.2595238,29.4095239 C16.8504329,29.000433 16.8132428,28.4053916 17.1479536,27.9624916 L17.2595238,27.8345239 L27.8345239,17.2595238 Z" transform="rotate(45 23.335 23.335)"/></g></svg>