<?xml version="1.0" encoding="utf-8"?>
<!-- Generator: Adobe Illustrator 27.9.0, SVG Export Plug-In . SVG Version: 6.00 Build 0)  -->
<svg version="1.1" id="Ebene_1" xmlns="http://www.w3.org/2000/svg" xmlns:xlink="http://www.w3.org/1999/xlink" x="0px" y="0px"
	 viewBox="0 0 175 36" style="enable-background:new 0 0 175 36;" xml:space="preserve">
<style type="text/css">
	.st0{fill-rule:evenodd;clip-rule:evenodd;fill:#FCFCFC;}
</style>
<path class="st0" d="M4.5,6C2.6,6,1,7.6,1,9.5v17C1,28.4,2.6,30,4.5,30h166c1.9,0,3.5-1.6,3.5-3.5v-17c0-1.9-1.6-3.5-3.5-3.5H4.5z
	 M78.3,22.6L78.3,22.6l-4.2-11H73l4.7,12.3h1.1l4.7-12.3h-1.1L78.3,22.6z M85.4,11.5c0.4,0,0.7,0.3,0.7,0.7c0,0.4-0.3,0.7-0.7,0.7
	c-0.4,0-0.7-0.3-0.7-0.7C84.7,11.8,85,11.5,85.4,11.5z M84.9,15.3h1v8.5h-1V15.3z M90.5,15.3c1.2,0,2.2,0.5,2.7,1.4l-0.7,0.5
	c-0.4-0.7-1.1-1.1-2-1.1c-0.9,0-1.8,0.4-1.8,1.4c0,0.9,0.7,1.3,2,1.6c1.7,0.4,2.7,1,2.7,2.3c0,1.7-1.5,2.5-2.9,2.5
	c-1.2,0-2.4-0.5-3.1-1.5l0.7-0.5c0.5,0.7,1.3,1.2,2.3,1.2c1,0,2-0.5,2-1.6c0-1-1-1.3-2.1-1.6c-1.3-0.3-2.6-0.7-2.6-2.3
	C87.8,16,89.1,15.3,90.5,15.3z M95.7,11.5c0.4,0,0.7,0.3,0.7,0.7c0,0.4-0.4,0.7-0.7,0.7c-0.4,0-0.7-0.3-0.7-0.7
	C95,11.8,95.4,11.5,95.7,11.5z M95.2,15.3h1v8.5h-1V15.3z M102,15.3c2.5,0,4.3,1.8,4.3,4.2c0,2.5-1.8,4.3-4.3,4.3
	c-2.5,0-4.2-1.8-4.2-4.3C97.8,17.1,99.5,15.3,102,15.3z M102,22.9c2,0,3.3-1.5,3.3-3.4c0-1.9-1.3-3.4-3.3-3.4c-2,0-3.3,1.5-3.3,3.4
	C98.7,21.5,100,22.9,102,22.9z M107.8,15.3C107.8,15.3,107.8,15.3,107.8,15.3L107.8,15.3L107.8,15.3z M107.8,15.3
	c0,0.6,0.1,1.6,0.1,2v6.4h1v-4.3c0-2.2,1.3-3.4,2.7-3.4c1.8,0,2.3,1.3,2.3,2.9v4.8h0.9v-5.1c0-1.9-0.9-3.4-3-3.4
	c-1.2,0-2.4,0.7-2.9,1.8h0c0-0.4,0-1.4-0.1-1.8H107.8z M118.6,17.9c0.5,0,0.8,0.4,0.8,0.8c0,0.4-0.3,0.8-0.8,0.8s-0.8-0.4-0.8-0.8
	C117.8,18.2,118.2,17.9,118.6,17.9z M130,20.5h-6.6l-1.4,3.3h-1.1l5.3-12.2h1l5.2,12.2h-1.1L130,20.5z M129.6,19.6l-2.9-7l-2.9,7
	H129.6z M134.8,15.3h2.3h0v0.8h-2.3v5.4c0,1.2,0.5,1.5,1.3,1.5c0.3,0,0.7-0.1,1-0.2l0.1,0.8c-0.4,0.1-0.8,0.2-1.3,0.2
	c-1,0-2-0.5-2-2.1v-5.6h-1.7v-0.8h1.7v-3.8h1V15.3z M139.8,23.8h-1v-6.4c0-0.5,0-1.5-0.1-2.1h0.9c0,0.5,0.1,1.4,0.1,1.8h0
	c0.5-1.1,1.6-1.8,2.7-1.8c1.2,0,2.1,0.6,2.6,1.9h0c0.5-1.2,1.6-1.9,2.9-1.9c2.1,0,3,1.4,3,3.4v5.1H150V19c0-1.6-0.6-2.9-2.2-2.9
	c-1.7,0-2.5,1.5-2.5,3.3v4.4h-1v-5c0-1.5-0.4-2.7-2.1-2.7c-1.3,0-2.5,1.1-2.5,3.4V23.8z M156.7,15.3c2.5,0,4.3,1.8,4.3,4.2
	c0,2.4-1.8,4.3-4.3,4.3c-2.5,0-4.2-1.8-4.2-4.3C152.4,17.1,154.2,15.3,156.7,15.3z M156.7,22.9c2,0,3.3-1.5,3.3-3.4
	c0-1.9-1.3-3.4-3.3-3.4c-2,0-3.3,1.5-3.3,3.4C153.4,21.5,154.7,22.9,156.7,22.9z M165,15.3c1.2,0,2.2,0.5,2.7,1.4l-0.7,0.5
	c-0.4-0.7-1.1-1.1-2-1.1c-0.9,0-1.8,0.4-1.8,1.4c0,0.9,0.7,1.2,2,1.5c1.7,0.4,2.7,1,2.7,2.3c0,1.7-1.5,2.4-2.9,2.4
	c-1.2,0-2.4-0.5-3.1-1.5l0.7-0.5c0.5,0.7,1.3,1.2,2.3,1.2c1,0,2-0.4,2-1.6c0-1-1-1.3-2.1-1.6c-1.3-0.3-2.6-0.7-2.6-2.3
	C162.2,16,163.6,15.3,165,15.3z M8.8,23.8H7V11.5h1.8c3.4,0,6.1,2.8,6.1,6.1C14.9,21,12.2,23.8,8.8,23.8z M22.6,11.5h1.8v12.3h-1.8
	c-3.4,0-6.1-2.8-6.1-6.1C16.5,14.3,19.3,11.5,22.6,11.5z M32.6,23.8c3.4,0,6.1-2.7,6.1-6.1c0-3.4-2.7-6.1-6.1-6.1h-4.4v12.3H32.6z
	 M32.6,13.4c2.4,0,4.3,1.9,4.3,4.3s-1.9,4.3-4.3,4.3H30v-8.6H32.6z M43.9,23.8c2.3,0,4.2-1.9,4.2-4.2c0-2.3-1.9-4.2-4.2-4.2
	s-4.2,1.9-4.2,4.2C39.7,21.9,41.6,23.8,43.9,23.8z M43.9,17c1.4,0,2.6,1.1,2.6,2.6c0,1.4-1.1,2.6-2.6,2.6c-1.4,0-2.6-1.1-2.6-2.6
	S42.5,17,43.9,17z M51.2,23.8h-1.9V11.5h1.9V23.8z M57.1,23.8c2.3,0,4.2-1.9,4.2-4.2c0-2.3-1.9-4.2-4.2-4.3c-0.9,0-1.8,0.3-2.4,0.8
	v-4.5h-1.9v12.3h1.9V23C55.3,23.5,56.2,23.8,57.1,23.8z M57.1,17c1.4,0,2.6,1.1,2.6,2.6c0,1.4-1.1,2.6-2.6,2.6
	c-1.1,0-2.1-0.7-2.4-1.8c-0.1-0.3-0.1-0.5-0.1-0.8c0-0.3,0.1-0.5,0.1-0.8C55,17.7,56,17,57.1,17z M65.7,20.7l2.4-5.5h2
	c-0.4,0.9-4.8,10.7-4.8,10.8c-0.5,1.2-2,1.8-3.2,1.2L61.5,27l0.8-1.7l0.3,0.1c0.5,0.2,1.1,0,1.3-0.5l0.8-1.9l-3.4-7.7h2L65.7,20.7z"
	/>
</svg>
