<svg xmlns="http://www.w3.org/2000/svg" width="36" height="36" viewBox="0 0 36 36"><g fill="none" fill-rule="evenodd"><rect width="36" height="36"/><path fill="#FCFCFC" d="M30.5,6 C32.4329966,6 34,7.56700338 34,9.5 L34,26.5 C34,28.4329966 32.4329966,30 30.5,30 L5.5,30 C3.56700338,30 2,28.4329966 2,26.5 L2,9.5 C2,7.56700338 3.56700338,6 5.5,6 L30.5,6 Z M21.3,11.2 C19.9,11.2 18.7,11.5 17.7,12.2 C16.6,11.6 15.4,11.2 14.1,11.2 C10.4,11.2 7.4,14.2 7.4,17.9 C7.4,21.6 10.4,24.6 14.1,24.6 C15.5,24.6 16.7,24.3 17.7,23.6 C18.8,24.2 20,24.6 21.3,24.6 C25,24.6 28,21.6 28,17.9 C28,14.2 25,11.2 21.3,11.2 Z M14.2,13 C14.9,13 15.7,13.2 16.3,13.5 C15.2,14.7 14.6,16.2 14.6,17.9 C14.6,19.6 15.3,21.1 16.3,22.3 C15.7,22.6 15,22.8 14.2,22.8 C11.5,22.8 9.3,20.6 9.3,17.9 C9.3,15.2 11.5,13 14.2,13 Z M21.3,13 C24,13 26.2,15.2 26.2,17.9 C26.2,20.6 24,22.8 21.3,22.8 C20.6,22.8 19.8,22.6 19.2,22.3 C20.3,21.1 20.9,19.6 20.9,17.9 C20.9,16.2 20.2,14.7 19.2,13.5 C19.8,13.2 20.5,13 21.3,13 Z M17.8,14.5 C18.7,15.4 19.2,16.6 19.2,17.9 C19.2,19.2 18.6,20.4 17.8,21.3 C16.9,20.4 16.4,19.2 16.4,17.9 C16.4,16.6 16.9,15.4 17.8,14.5 Z"/></g></svg>