<svg xmlns="http://www.w3.org/2000/svg" width="36" height="36" viewBox="0 0 36 36"><g fill="none" fill-rule="evenodd"><rect width="36" height="36"/><path fill="#FCFCFC" d="M18.5,5.25 L18.5,30.75 L15.5,30.75 L8.75,24.75 L6.5,24.75 C4.10616072,24.75 2.14470026,22.8740339 2.0076493,20.5141321 L2,20.25 L2,15.75 C2,13.3561607 3.87596621,11.3947003 6.23586792,11.2576493 L6.5,11.25 L8.75,11.25 L15.5,5.25 L18.5,5.25 Z M28.5500001,6.45000001 C31.6400001,9.53250002 33.3350001,13.635 33.3350001,18.0000001 C33.3350001,22.1904001 31.7728881,26.1388801 28.9140849,29.1752526 L28.5500001,29.5500001 L26.9600001,27.9600001 C29.6225001,25.2975001 31.0850001,21.7650001 31.0850001,18.0000001 C31.0850001,14.3986957 29.7469094,11.0101134 27.3004558,8.39216406 L26.9600001,8.04000001 L28.5500001,6.45000001 Z M16.25,7.59000001 L9.60500003,13.5 L6.50000001,13.5 C5.33529413,13.5 4.3698962,14.3968859 4.2603501,15.5341136 L4.25000001,15.75 L4.25000001,20.2500001 C4.25000001,21.4147059 5.14688583,22.3801039 6.28411359,22.48965 L6.50000001,22.5000001 L9.60500003,22.5000001 L16.25,28.4100001 L16.25,7.59000001 Z M24.5525001,10.4475 C26.5700001,12.465 27.6800001,15.1425 27.6800001,18.0000001 C27.6800001,20.7071053 26.6837674,23.2526594 24.8634817,25.2285327 L24.5525001,25.5525001 L22.9625001,23.9625001 C24.5525001,22.3650001 25.4300001,20.2575001 25.4300001,18.0000001 C25.4300001,15.8835938 24.6587599,13.8924317 23.2522352,12.341684 L22.9625001,12.0375 L24.5525001,10.4475 Z"/></g></svg>