<svg xmlns="http://www.w3.org/2000/svg" width="36" height="36" viewBox="0 0 36 36"><g fill="none" fill-rule="evenodd"><rect width="36" height="36"/><path fill="#FCFCFC" d="M27.7500001,16.2500001 L27.7500001,13.25 C27.7500001,7.86522371 23.3847764,3.5 18,3.5 C12.6152237,3.5 8.25000002,7.86522371 8.25000002,13.25 L8.25000002,16.2500001 L4.5,16.2500001 L4.5,30.5 C4.5,32.9852815 6.51471863,35 9,35 L27,35 C29.4852815,35 31.5,32.9852815 31.5,30.5 L31.5,16.2500001 L27.7500001,16.2500001 Z M13.246991,21.484 C14.7965405,21.484 15.8896336,22.4420838 15.8896336,24.1426826 C15.8896336,25.8313054 14.7965405,26.7893892 13.246991,26.7893892 L11.8776216,26.7893892 L11.8776216,29.484 L10.256,29.484 L10.256,21.484 Z M18.5322763,21.484 L18.5322763,29.484 L16.9106547,29.484 L16.9106547,21.484 L18.5322763,21.484 Z M21.6914354,21.484 L24.5743183,26.5139401 L24.6463904,26.5139401 L24.6463904,21.484 L26.256,21.484 L26.256,29.484 L24.6103544,29.484 L21.7394835,24.478012 L21.6674114,24.478012 L21.6674114,29.484 L20.0457898,29.484 L20.0457898,21.484 L21.6914354,21.484 Z M13.1268709,22.981006 L11.8776216,22.981006 L11.8776216,25.2923832 L13.1268709,25.2923832 C13.7394835,25.2923832 14.207952,24.8851976 14.207952,24.1426826 C14.207952,23.3881916 13.7394835,22.981006 13.1268709,22.981006 Z M18,5.75000001 C22.1421357,5.75000001 25.5,9.1078644 25.5,13.25 L25.5,16.25 L10.5,16.25 L10.5,13.25 C10.5,9.1078644 13.8578644,5.75000001 18,5.75000001 Z"/></g></svg>