<svg width="36" height="36" viewBox="0 0 36 36" fill="none" xmlns="http://www.w3.org/2000/svg">
<path fill-rule="evenodd" clip-rule="evenodd" d="M15.2876 19.0971C15.7371 18.6476 16.4533 18.6476 16.9029 19.0971C17.3115 19.4989 17.3487 20.1336 17.0143 20.5834L16.9029 20.7124L10.5714 27.0438L14.8457 31.3181L2 34L4.6819 21.1543L8.95619 25.4286L15.2876 19.0971ZM34 2L31.3181 14.8457L27.0438 10.5714L20.7124 16.9029C20.4914 17.1238 20.1943 17.2381 19.9048 17.2381C19.6152 17.2381 19.3181 17.1238 19.0971 16.9029C18.6885 16.5011 18.6513 15.8664 18.9857 15.4166L19.0971 15.2876L25.4286 8.95619L21.1543 4.6819L34 2Z" fill="#FCFCFC"/>
</svg>
