<svg xmlns="http://www.w3.org/2000/svg" width="36" height="36" viewBox="0 0 36 36"><g fill="none" fill-rule="evenodd"><rect width="36" height="36"/><path fill="#FCFCFC" d="M17.9999999,1.49999993 C27.15,1.49999993 34.4999999,8.84999996 34.4999999,17.9999999 C34.4999999,27.15 27.15,34.4999999 17.9999999,34.4999999 C8.84999996,34.4999999 1.49999993,27.15 1.49999993,17.9999999 C1.49999993,8.84999996 8.92499996,1.49999993 17.9999999,1.49999993 Z M17.9999999,3.74999994 C10.125,3.74999994 3.74999994,10.125 3.74999994,17.9999999 C3.74999994,25.875 10.125,32.2499999 17.9999999,32.2499999 C25.875,32.2499999 32.2499999,25.875 32.2499999,17.9999999 C32.2499999,10.125 25.875,3.74999994 17.9999999,3.74999994 Z M10.425,23.025 C10.95,22.65 11.625,22.8 12,23.325 C13.5,25.65 15.75,27 18,27 C20.25,27 22.5,25.65 24,23.325 C24.375,22.8 25.05,22.65 25.575,23.025 C26.1,23.325 26.25,24 25.875,24.6 C23.925,27.6 21,29.325 18,29.325 C15,29.325 12.075,27.6 10.125,24.6 C9.74999997,24.075 9.89999997,23.4 10.425,23.025 Z M12.75,11.25 C13.9926407,11.25 15,12.2573593 15,13.5 C15,14.7426407 13.9926407,15.75 12.75,15.75 C11.5073593,15.75 10.5,14.7426407 10.5,13.5 C10.5,12.2573593 11.5073593,11.25 12.75,11.25 Z M23.25,11.25 C24.4926407,11.25 25.5,12.2573593 25.5,13.5 C25.5,14.7426407 24.4926407,15.75 23.25,15.75 C22.0073593,15.75 21,14.7426407 21,13.5 C21,12.2573593 22.0073593,11.25 23.25,11.25 Z"/></g></svg>