<svg xmlns="http://www.w3.org/2000/svg" width="36" height="36" viewBox="0 0 36 36"><g fill="none" fill-rule="evenodd"><rect width="36" height="36"/><path fill="#E20074" d="M12.8,21.84 L8,21.84 L8,17.04 L12.8,17.04 L12.8,21.84 Z M8,6 L8,14.16 L9.44,14.16 L9.44,13.92 C9.44,10.08 11.6,7.68 15.68,7.68 L15.92,7.68 L15.92,24.96 C15.92,27.36 14.96,28.32 12.56,28.32 L11.84,28.32 L11.84,30 L24.32,30 L24.32,28.32 L23.6,28.32 C21.2,28.32 20.24,27.36 20.24,24.96 L20.24,7.68 L20.48,7.68 C24.56,7.68 26.72,10.08 26.72,13.92 L26.72,14.16 L28.16,14.16 L28.16,6 L8,6 Z M23.36,21.84 L28.16,21.84 L28.16,17.04 L23.36,17.04 L23.36,21.84 Z"/></g></svg>