<svg xmlns="http://www.w3.org/2000/svg" width="36" height="36" viewBox="0 0 36 36"><g fill="none" fill-rule="evenodd"><rect width="36" height="36" opacity=".3"/><path fill="#FCFCFC" d="M30.5,6 C32.4329966,6 34,7.56700338 34,9.5 L34,26.5 C34,28.4329966 32.4329966,30 30.5,30 L5.5,30 C3.56700338,30 2,28.4329966 2,26.5 L2,9.5 C2,7.56700338 3.56700338,6 5.5,6 L30.5,6 Z M10.8180853,12 L8.3,12 L8.3,24 L10.8180853,24 L10.8180853,18.7604396 L14.5565396,18.7604396 L14.5565396,24 L17.0746249,24 L17.0746249,12 L14.5565396,12 L14.5565396,16.5626374 L10.8180853,16.5626374 L10.8180853,12 Z M22.8684982,12 L19.250362,12 L19.250362,24 L22.8599041,24 C23.5760831,24 24.2005911,23.9326007 24.7334283,23.7978022 C25.4839839,23.6161172 26.1457333,23.2234432 26.7186765,22.6197802 C27.7728919,21.5179487 28.2999996,19.9648352 28.2999996,17.9604396 C28.2999996,15.9091575 27.74138,14.356044 26.6241408,13.3010989 C25.7131612,12.4336996 24.4612803,12 22.8684982,12 Z M22.8255275,14.1978022 C23.8052603,14.1978022 24.5271688,14.5025641 24.9912527,15.1120879 C25.5183605,15.7978022 25.7819143,16.7443223 25.7819143,17.9516484 C25.7819143,19.410989 25.4696603,20.4776557 24.8451522,21.1516484 C24.4383626,21.585348 23.788072,21.8021978 22.8942807,21.8021978 L21.7684473,21.8021978 L21.7684473,14.1978022 Z"/></g></svg>