<svg xmlns="http://www.w3.org/2000/svg" width="36" height="36" viewBox="0 0 36 36"><g fill="none" fill-rule="evenodd"><rect width="36" height="36"/><path fill="#FCFCFC" d="M19.5938455,2.2923558 L23.5318367,11.9364159 L33.9795685,12.699904 C34.6648131,12.7741101 35.2378474,13.2538664 35.431378,13.9153894 C35.6249087,14.5769124 35.4008076,15.2898732 34.8636073,15.7217095 L26.8911843,22.4564781 L29.3825665,32.5988147 C29.5415101,33.2706298 29.281348,33.9721698 28.7228002,34.3779073 C28.1642524,34.7836449 27.4166486,34.8141613 26.8268906,34.4552962 L17.9865022,28.958182 L9.14611373,34.4552962 C8.5563557,34.8141613 7.80875192,34.7836449 7.2502041,34.3779073 C6.69165628,33.9721698 6.43149421,33.2706298 6.5904378,32.5988147 L9.08181999,22.4564781 L1.10939698,15.7217095 C0.576304175,15.2748818 0.36836442,14.5488596 0.584080573,13.8875658 C0.799796725,13.226272 1.39584668,12.7625138 2.08987642,12.7159774 L12.5376082,11.9524893 L16.4755994,2.30842923 C16.7498369,1.69499314 17.3576053,1.29873169 18.0295414,1.29524522 C18.7014775,1.29180451 19.3132986,1.68177942 19.5938455,2.2923558 Z"/></g></svg>