<svg xmlns="http://www.w3.org/2000/svg" width="36" height="36" viewBox="0 0 36 36"><g fill="none" fill-rule="evenodd"><rect width="36" height="36"/><path fill="#FCFCFC" fill-rule="nonzero" d="M35.3557074,13.8196719 C34.9808687,12.7701235 34.0812558,12.020446 32.9567396,11.9454783 L23.9606101,11.2707686 L20.5870616,2.94934884 C20.1372551,1.8998004 19.1626744,1.22509069 18.0381582,1.22509069 C16.913642,1.22509069 15.9390614,1.8998004 15.4892549,2.94934884 L12.0407386,11.3457363 L3.04460913,12.020446 C1.92009294,12.0954138 1.02048,12.8450912 0.645641271,13.8946397 C0.270802544,14.9441881 0.645641271,16.0687043 1.47028647,16.8183818 L8.36731906,22.6658659 L6.26822218,31.3621244 C6.04331895,32.4116728 6.41815767,33.536189 7.31777062,34.2108987 C7.76757709,34.5857374 8.36731906,34.7356729 8.89209328,34.7356729 C9.41686749,34.7356729 9.86667397,34.5857374 10.3164804,34.3608342 L18.0381582,29.5628985 L25.6848683,34.3608342 C26.659449,34.9605762 27.7839651,34.8856084 28.6835781,34.2858665 C29.583191,33.6111567 29.9580298,32.4866406 29.7331265,31.4370921 L27.5590619,22.6658659 L34.4560945,16.8183818 C35.3557074,15.9937366 35.7305462,14.8692204 35.3557074,13.8196719 Z M33.1066751,15.0191559 L25.160094,21.766253 L27.6340296,31.8868986 C27.7089974,32.1867696 27.5590619,32.3367051 27.4840942,32.4116728 C27.4091264,32.4866406 27.1842232,32.5616083 26.9593199,32.4116728 L18.0381582,26.8640597 L9.19196426,32.3367051 C8.96706102,32.4866406 8.74215778,32.4116728 8.66719004,32.3367051 C8.59222229,32.2617373 8.4422868,32.1118018 8.51725455,31.8119309 L10.9911901,21.6912852 L3.04460913,14.9441881 C2.81970589,14.7942526 2.89467364,14.5693494 2.89467364,14.4194139 C2.89467364,14.3444462 3.04460913,14.1195429 3.26951236,14.1195429 L13.690029,13.3698655 L17.6633195,3.69902629 C17.7382872,3.47412306 17.8882227,3.47412306 18.0381582,3.47412306 C18.1880937,3.47412306 18.3380292,3.5490908 18.4879647,3.77399404 L22.4612552,13.4448332 L32.8817718,14.1945107 C33.1816428,14.1945107 33.2566106,14.4194139 33.2566106,14.4943816 C33.2566106,14.6443171 33.2566106,14.8692204 33.1066751,15.0191559 Z"/></g></svg>