<svg xmlns="http://www.w3.org/2000/svg" width="36" height="36" viewBox="0 0 36 36"><g fill="none" fill-rule="evenodd"><rect width="36" height="36"/><path fill="#FCFCFC" d="M3.82500002,4.3375 C4.23409093,3.92840909 4.82913225,3.89121901 5.27203233,4.22592975 L5.40000002,4.3375 L31.2750001,30.2125001 C31.7250001,30.6625001 31.7250001,31.3375001 31.2750001,31.7875001 C30.8659092,32.196591 30.2708679,32.2337811 29.8279678,31.8990704 L29.7000001,31.7875001 L3.82500002,5.91250001 C3.37500001,5.46250001 3.37500001,4.7875 3.82500002,4.3375 Z M5.85000002,11.0875 L7.42500003,12.6625 C5.77500002,14.2375 4.27500002,16.1125001 2.85000001,18.0625001 L3.71666837,19.2295118 L3.71666837,19.2295118 L4.30297853,19.9887696 L4.30297853,19.9887696 L4.89814807,20.7297462 C8.19914066,24.7496876 11.98125,27.8125001 17.5500001,27.8125001 C18.9281251,27.8125001 20.1914063,27.6402344 21.3398438,27.2957032 L21.8250001,27.1375001 L23.5500001,28.8625001 C21.75,29.6125001 19.8000001,30.0625001 17.5500001,30.0625001 C11.3875,30.0625001 7.06888024,26.6381511 3.90111764,23.0413304 L3.35390626,22.4054688 L3.35390626,22.4054688 L2.82974177,21.7699979 L2.82974177,21.7699979 L2.32777779,21.138889 L2.32777779,21.138889 L1.6146064,20.2090916 L1.6146064,20.2090916 L0.525000002,18.7375001 L0,18.0625001 L0.525000002,17.3875001 L1.41720001,16.1779001 C2.50290001,14.7268 3.75030002,13.1581 5.21085002,11.703325 L5.85000002,11.0875 Z M17.55,6.06250001 C23.7125001,6.06250001 28.0311199,9.48684898 31.1988825,13.0836697 L31.7460939,13.7195313 L31.7460939,13.7195313 L32.2702584,14.3550022 L32.2702584,14.3550022 L32.7722224,14.9861112 L32.7722224,14.9861112 L33.4853937,15.9159085 L33.4853937,15.9159085 L34.5750001,17.3875001 L35.1000001,18.0625 L34.5750001,18.7375001 L33.6828001,19.9471001 C32.5971001,21.3982001 31.3497001,22.9669001 29.8891501,24.4216751 L29.2500001,25.0375001 L27.6750001,23.4625001 C29.3250001,21.8875001 30.8250001,20.0125001 32.2500001,18.0625 L31.3833318,16.8954883 L31.3833318,16.8954883 L30.7970216,16.1362305 L30.7970216,16.1362305 L30.2018521,15.3952539 C26.9008595,11.3753125 23.11875,8.31250001 17.55,8.31250001 C16.1718751,8.31250001 14.9085938,8.48476564 13.7601563,8.82929689 L13.2750001,8.98750002 L11.55,7.26250001 C13.3500001,6.51250001 15.3,6.06250001 17.55,6.06250001 Z M11.025,16.3375001 L19.2750001,24.5875001 C18.7500001,24.7375001 18.1500001,24.8125001 17.55,24.8125001 C13.8,24.8125001 10.8,21.8125001 10.8,18.0625001 C10.8,17.5825001 10.848,17.1025001 10.944,16.6609001 L11.025,16.3375001 Z M17.5500001,11.3125 C21.3000001,11.3125 24.3000001,14.3125 24.3000001,18.0625 C24.3000001,18.5425001 24.2520001,19.0225001 24.1560001,19.4641001 L24.0750001,19.7875001 L15.8250001,11.5375 C16.3500001,11.3875 16.9500001,11.3125 17.5500001,11.3125 Z"/></g></svg>