<?xml version="1.0" encoding="UTF-8"?>
<svg width="36px" height="36px" viewBox="0 0 36 36" version="1.1" xmlns="http://www.w3.org/2000/svg" xmlns:xlink="http://www.w3.org/1999/xlink">
    <title>help_a_icon</title>
    <defs>
        <path d="M1.5,18 C1.5,27.113 8.887,34.5 18,34.5 L18,34.5 C27.113,34.5 34.5,27.113 34.5,18 L34.5,18 C34.5,8.887 27.113,1.5 18,1.5 L18,1.5 C8.887,1.5 1.5,8.887 1.5,18 L1.5,18 Z M3.75,18 C3.75,10.142 10.142,3.75 18,3.75 L18,3.75 C25.858,3.75 32.25,10.142 32.25,18 L32.25,18 C32.25,25.858 25.858,32.25 18,32.25 L18,32.25 C10.142,32.25 3.75,25.858 3.75,18 L3.75,18 Z M13.681,14.729 L16.4,14.729 L16.433,14.513 C16.62,13.541 17.233,12.992 18.151,12.992 L18.151,12.992 C19.186,12.992 19.829,13.643 19.829,14.693 L19.829,14.693 C19.829,15.473 19.351,15.992 18.769,16.486 L18.769,16.486 L18.055,17.073 C17.294,17.716 16.604,18.454 16.604,19.789 L16.604,19.789 L16.604,20.694 L19.225,20.694 L19.225,20.195 L19.238,19.968 C19.32,19.308 19.755,18.811 20.273,18.327 L20.273,18.327 L20.967,17.696 L21.305,17.369 C21.968,16.691 22.54,15.849 22.54,14.534 L22.54,14.534 C22.54,12.215 20.695,10.53 18.151,10.53 L18.151,10.53 C15.22,10.53 13.808,12.612 13.681,14.729 L13.681,14.729 Z M16.125,24.375 C16.125,25.411 16.964,26.25 18,26.25 L18,26.25 C19.036,26.25 19.875,25.411 19.875,24.375 L19.875,24.375 C19.875,23.34 19.036,22.5 18,22.5 L18,22.5 C16.964,22.5 16.125,23.34 16.125,24.375 L16.125,24.375 Z" id="path-1"></path>
    </defs>
    <g id="Atoms" stroke="none" stroke-width="1" fill="none" fill-rule="evenodd">
        <g id="A_Icons_new" transform="translate(-248.000000, -2990.000000)">
            <g id="1_Atoms-/-Icon-/-3_0-/-help_a_icon" transform="translate(248.000000, 2990.000000)">
                <rect id="Rectangle" x="0" y="0" width="36" height="36"></rect>
                <mask id="mask-2" fill="white">
                    <use xlink:href="#path-1"></use>
                </mask>
                <g id="Clip-2"></g>
                <polygon id="Fill-1" fill="#FCFCFC" mask="url(#mask-2)" points="1.5 34.5 34.5 34.5 34.5 1.5 1.5 1.5"></polygon>
            </g>
        </g>
    </g>
</svg>