<svg xmlns="http://www.w3.org/2000/svg" width="36" height="36" viewBox="0 0 36 36"><g fill="none" fill-rule="evenodd"><rect width="36" height="36"/><path fill="#FCFCFC" d="M22.0695652,24.6521739 C23.9173913,24.6521739 25.3956522,26.1304348 25.3956522,27.9782609 C25.3956522,29.0016723 24.8918189,29.9621045 24.1166908,30.5688845 L23.9173913,30.7130435 L23.9173913,35 L22.0695652,34.2608696 L20.2217391,35 L20.2217391,30.7130435 C19.3347826,30.1217392 18.7434783,29.1608696 18.7434783,27.9782609 C18.7434783,26.1304348 20.2217391,24.6521739 22.0695652,24.6521739 Z M31.3086956,1 L31.3086956,29.0869564 C31.3086956,31.4389752 29.4530446,33.3786268 27.1334807,33.5141733 L26.873913,33.521739 L26.1347825,33.521739 L26.1347825,31.3043477 L26.873913,31.3043477 C28.0565218,31.3043477 28.9772378,30.453197 29.0814653,29.3054911 L29.0913043,29.0869564 L29.0913043,3.2173913 L6.9173913,3.2173913 L6.9173913,29.0869564 C6.9173913,30.2695652 7.7685422,31.1902813 8.91624792,31.2945087 L9.1347826,31.3043477 L18.0043478,31.3043477 L18.0043478,33.521739 L9.1347826,33.521739 C6.78276398,33.521739 4.84311225,31.6660881 4.70756572,29.3465242 L4.7,29.0869564 L4.7,1 L31.3086956,1 Z M23.9173913,18 C24.5086957,18 25.0260869,18.5173913 25.0260869,19.1086957 C25.0260869,19.6507247 24.5913346,20.1306462 24.0634209,20.206869 L23.9173913,20.2173913 L12.0913044,20.2173913 C11.5,20.2173913 10.9826087,19.7 10.9826087,19.1086957 C10.9826087,18.5666667 11.4173611,18.0867452 11.9452748,18.0105224 L12.0913044,18 L23.9173913,18 Z M23.9173913,13.5652174 C24.5086957,13.5652174 25.0260869,14.0826087 25.0260869,14.6739131 C25.0260869,15.215942 24.5913346,15.6958635 24.0634209,15.7720864 L23.9173913,15.7826087 L12.0913044,15.7826087 C11.5,15.7826087 10.9826087,15.2652174 10.9826087,14.6739131 C10.9826087,14.1318841 11.4173611,13.6519626 11.9452748,13.5757398 L12.0913044,13.5652174 L23.9173913,13.5652174 Z M23.9173913,9.13043479 C24.5086957,9.13043479 25.0260869,9.6478261 25.0260869,10.2391304 C25.0260869,10.7811594 24.5913346,11.2610809 24.0634209,11.3373037 L23.9173913,11.3478261 L12.0913044,11.3478261 C11.5,11.3478261 10.9826087,10.8304348 10.9826087,10.2391304 C10.9826087,9.69710146 11.4173611,9.21717996 11.9452748,9.14095714 L12.0913044,9.13043479 L23.9173913,9.13043479 Z"/></g></svg>