<?xml version="1.0" encoding="utf-8"?>
<!-- Generator: Adobe Illustrator 27.9.0, SVG Export Plug-In . SVG Version: 6.00 Build 0)  -->
<svg version="1.1" id="Ebene_1" xmlns="http://www.w3.org/2000/svg" xmlns:xlink="http://www.w3.org/1999/xlink" x="0px" y="0px"
	 viewBox="0 0 123 36" style="enable-background:new 0 0 123 36;" xml:space="preserve">
<style type="text/css">
	.st0{fill-rule:evenodd;clip-rule:evenodd;fill:#FCFCFC;}
</style>
<path class="st0" d="M4.5,6C2.6,6,1,7.6,1,9.5v17C1,28.4,2.6,30,4.5,30h114c1.9,0,3.5-1.6,3.5-3.5v-17c0-1.9-1.6-3.5-3.5-3.5H4.5z
	 M73.1,23.8h1.1l1.4-3.3h6.6l1.4,3.3h1.1l-5.2-12.3h-1L73.1,23.8z M81.8,19.6H76l3-7L81.8,19.6z M92.2,21.7c0,0.4,0.1,1.6,0.1,2.1
	h-0.9c0-0.4-0.1-1.4-0.1-1.8h0c-0.5,1.1-1.7,1.8-2.9,1.8c-2.1,0-3-1.4-3-3.4v-5.2h1v4.8c0,1.6,0.5,2.9,2.3,2.9
	c1.4,0,2.7-1.1,2.7-3.4v-4.3h0.9V21.7z M93.7,19.5c0,2.4,1.7,4.3,4.1,4.3c1.3,0,2.5-0.6,3.2-1.8h0v1.8h1V11.5h-1v5.6h0
	c-0.7-1.2-2-1.9-3.2-1.9C95.4,15.3,93.7,17.2,93.7,19.5z M101.2,19.5c0,1.9-1.4,3.4-3.3,3.4c-2,0-3.2-1.5-3.2-3.4
	c0-1.9,1.2-3.5,3.2-3.5C99.9,16.1,101.2,17.6,101.2,19.5z M104.1,12.2c0,0.4,0.4,0.7,0.7,0.7c0.4,0,0.7-0.3,0.7-0.7
	c0-0.4-0.4-0.7-0.7-0.7C104.4,11.5,104.1,11.8,104.1,12.2z M104.3,15.3v8.5h1v-8.5H104.3z M106.9,19.5c0,2.4,1.8,4.3,4.2,4.3
	c2.5,0,4.3-1.8,4.3-4.3c0-2.5-1.8-4.2-4.3-4.2C108.6,15.3,106.9,17.1,106.9,19.5z M107.9,19.5c0-1.9,1.3-3.4,3.3-3.4
	c2,0,3.3,1.5,3.3,3.4c0,1.9-1.3,3.4-3.3,3.4C109.1,22.9,107.9,21.5,107.9,19.5z M8.8,23.8H7V11.5h1.8c3.4,0,6.1,2.8,6.1,6.1
	C14.9,21,12.2,23.8,8.8,23.8z M22.7,11.5h1.8v12.3h-1.8c-3.4,0-6.1-2.8-6.1-6.1C16.5,14.3,19.3,11.5,22.7,11.5z M28.2,11.5h4.4
	c3.4,0,6.1,2.7,6.1,6.1c0,3.4-2.7,6.1-6.1,6.1h-4.4V11.5z M30,21.9h2.6c2.4,0,4.3-1.9,4.3-4.3c0-2.4-1.9-4.3-4.3-4.3H30V21.9z
	 M39.7,19.5c0-2.3,1.9-4.2,4.2-4.2c2.3,0,4.2,1.9,4.2,4.2c0,2.3-1.9,4.2-4.2,4.2S39.7,21.9,39.7,19.5z M41.4,19.5
	c0,1.4,1.1,2.6,2.6,2.6c1.4,0,2.6-1.1,2.6-2.6c0-1.4-1.2-2.6-2.6-2.6S41.4,18.1,41.4,19.5z M51.3,23.8h-1.9V11.5h1.9V23.8z
	 M54.7,16.1c0.7-0.5,1.5-0.8,2.4-0.8c2.3,0,4.2,1.9,4.2,4.3c0,2.3-1.9,4.2-4.2,4.2c-0.9,0-1.8-0.3-2.4-0.8v0.8h-1.9V11.5h1.9V16.1z
	 M54.7,20.3c0.3,1,1.3,1.8,2.4,1.8c1.4,0,2.6-1.1,2.6-2.6c0-1.4-1.1-2.6-2.6-2.6c-1.1,0-2.1,0.7-2.4,1.8c-0.1,0.2-0.1,0.5-0.1,0.8
	C54.6,19.8,54.6,20.1,54.7,20.3z M65.8,20.7l2.4-5.5h2c-0.4,0.9-4.8,10.8-4.8,10.8c-0.5,1.2-2,1.8-3.2,1.2L61.6,27l0.8-1.7l0.3,0.1
	c0.5,0.2,1.1,0,1.3-0.5l0.8-1.9l-3.4-7.7h2L65.8,20.7z"/>
</svg>
