<svg xmlns="http://www.w3.org/2000/svg" width="36" height="36" viewBox="0 0 36 36"><g fill="none" fill-rule="evenodd"><rect width="36" height="36"/><path fill="#FCFCFC" fill-rule="nonzero" d="M19.5963309,0.056304564 L19.5963095,4.09640349 C27.4759133,4.89597998 33.6250001,11.5503224 33.6250001,19.6408609 C33.6250001,28.2703102 26.6294493,35.265861 18,35.265861 C9.37055081,35.265861 2.37500001,28.2703102 2.37500001,19.6408609 C2.37500001,19.4166075 2.37973155,19.1928778 2.38917074,18.9697717 C2.4154341,18.3490067 2.93995423,17.8670679 3.56071925,17.8933312 C4.18148426,17.9195946 4.66342308,18.4441147 4.63715973,19.0648797 C4.62906095,19.2563038 4.62500001,19.4483237 4.62500001,19.6408609 C4.62500001,27.0276695 10.6131915,33.0158609 18,33.0158609 C25.3868086,33.0158609 31.375,27.0276695 31.375,19.6408609 C31.375,12.7942976 26.2306887,7.14925267 19.596497,6.36015698 L19.5963309,10.3631241 L11.7079785,5.20971432 L19.5963309,0.056304564 Z"/></g></svg>