<svg width="36" height="36" viewBox="0 0 36 36" fill="none" xmlns="http://www.w3.org/2000/svg">
<path fill-rule="evenodd" clip-rule="evenodd" d="M17.475 6L19.725 8.25H5.25V28.5C5.25 29.7 6.11367 30.6343 7.27825 30.74L7.5 30.75H25.5C26.7 30.75 27.6343 29.8863 27.74 28.7217L27.75 28.5V16.275L30 18.525V28.5C30 30.8866 28.1171 32.8548 25.7634 32.9923L25.5 33H7.5C5.11339 33 3.14522 31.1171 3.00768 28.7634L3 28.5V6H17.475ZM33 3L30.4857 15.1073L26.5238 11.1226L15.019 22.6935C14.7905 22.9234 14.4857 23 14.181 23C13.8762 23 13.5714 22.9234 13.3429 22.6935C12.9273 22.2755 12.8895 21.6676 13.2295 21.215L13.3429 21.0843L24.8476 9.51341L20.8857 5.52874L33 3Z" fill="white"/>
</svg>
