<svg xmlns="http://www.w3.org/2000/svg" width="36" height="36" viewBox="0 0 36 36"><g fill="none" fill-rule="evenodd"><rect width="36" height="36"/><g fill="#FCFCFC" transform="translate(2 6)"><path d="M28.5,0 L3.5,0 C1.575,0 0,1.575 0,3.5 L0,20.5 C0,22.425 1.575,24 3.5,24 L28.5,24 C30.425,24 32,22.425 32,20.5 L32,3.5 C32,1.575 30.425,0 28.5,0 L28.5,0 Z M28.5,2.25 C29.178,2.25 29.75,2.822 29.75,3.5 L29.75,20.5 C29.75,21.178 29.178,21.75 28.5,21.75 L3.5,21.75 C2.822,21.75 2.25,21.178 2.25,20.5 L2.25,3.5 C2.25,2.822 2.822,2.25 3.5,2.25 L28.5,2.25 Z"/><polygon points="22.509 12 12.4 17.777 12.4 6.223"/></g></g></svg>