<svg xmlns="http://www.w3.org/2000/svg" width="36" height="36" viewBox="0 0 36 36"><g fill="none" fill-rule="evenodd"><rect width="36" height="36"/><path fill="#FCFCFC" d="M29.6672619,6.33273801 C36.137289,12.8027651 36.1372889,23.1972348 29.6672619,29.6672618 C23.1972348,36.1372889 12.8027652,36.1372889 6.33273811,29.6672618 C-0.137288916,23.1972348 -0.137289013,12.8027651 6.33273811,6.33273801 C12.8027651,-0.137289013 23.1972349,-0.137289013 29.6672619,6.33273801 Z M7.92372837,7.92372828 C2.3552624,13.4921943 2.35526249,22.5078057 7.92372837,28.0762715 C13.4921943,33.6447375 22.5078057,33.6447375 28.0762716,28.0762715 C33.6447375,22.5078057 33.6447376,13.4921943 28.0762716,7.92372828 C22.5078057,2.3552624 13.4921943,2.3552624 7.92372837,7.92372828 Z M18,9.40865257 C18.5785419,9.40865257 19.025597,9.80311297 19.1020984,10.3529669 L19.1136932,10.5223458 L19.1136932,16.8863068 L25.4776542,16.8863068 C26.1140503,16.8863068 26.5913474,17.3636039 26.5913474,18 C26.5913474,18.5785419 26.196887,19.025597 25.6470331,19.1020984 L25.4776542,19.1136932 L19.1136932,19.1136932 L19.1136932,25.4776542 C19.1136932,26.1140503 18.6363961,26.5913474 18,26.5913474 C17.4214581,26.5913474 16.974403,26.196887 16.8979016,25.6470331 L16.8863068,25.4776542 L16.8863068,19.1136932 L10.5223458,19.1136932 C9.88594965,19.1136932 9.40865257,18.6363961 9.40865257,18 C9.40865257,17.4214581 9.80311297,16.974403 10.3529669,16.8979016 L10.5223458,16.8863068 L16.8863068,16.8863068 L16.8863068,10.5223458 C16.8863068,9.88594965 17.3636039,9.40865257 18,9.40865257 Z"/></g></svg>