<svg xmlns="http://www.w3.org/2000/svg" width="36" height="36" viewBox="0 0 36 36"><g fill="none" fill-rule="evenodd"><rect width="36" height="36"/><path fill="#FCFCFC" d="M13.3125,24.75 L17.9625,29.4 L22.6125,24.75 L25.9875,24.75 C29.3987904,24.75 32.248166,27.0678981 32.9722354,30.3442231 L33.0375001,30.6750001 L33.3375001,32.25 L2.66249994,32.25 L2.88749994,30.6750001 C3.4681451,27.3362904 6.22620961,24.910692 9.59830188,24.757676 L9.93749997,24.75 L13.3125,24.75 Z M17.9625,2.99999994 C23.2125,2.99999994 26.9625,6.74999994 26.9625,11.9999999 C26.9625,17.1 23.3625,22.4999999 17.9625,22.4999999 C12.5625,22.4999999 8.96249996,17.1 8.96249996,11.9999999 C8.96249996,6.74999994 12.7125,2.99999994 17.9625,2.99999994 Z M17.9625,5.24999995 C14.0625,5.24999995 11.2125,8.09999996 11.2125,11.9999999 C11.2125,15.975 13.9125,20.2499999 17.9625,20.2499999 C22.0125,20.2499999 24.7125,15.975 24.7125,11.9999999 C24.7125,8.09999996 21.8625,5.24999995 17.9625,5.24999995 Z"/></g></svg>