<?xml version="1.0" encoding="UTF-8"?>
<svg width="448px" height="448px" viewBox="0 0 448 448" version="1.1" xmlns="http://www.w3.org/2000/svg" xmlns:xlink="http://www.w3.org/1999/xlink">
    <title>A_Assets_PINKeypad</title>
    <defs>
        <path d="M219.028637,75 L227.572637,63.912 C230.020637,60.744 231.844637,57.24 231.844637,53.112 C231.844637,47.448 227.428637,42.264 220.708637,42.264 C213.940637,42.264 209.572637,47.448 209.572637,53.112 C209.572637,58.776 213.748637,63.96 220.228637,63.96 C220.660637,63.96 221.092637,63.912 221.524637,63.864 L221.524637,63.912 L221.668637,63.864 L213.028637,75 L219.028637,75 Z M220.708637,59.256 C216.964637,59.256 214.612637,56.424 214.612637,53.112 C214.612637,49.848 216.964637,46.968 220.708637,46.968 C224.500637,46.968 226.852637,49.848 226.852637,53.112 C226.852637,56.424 224.500637,59.256 220.708637,59.256 Z" id="path-1"></path>
        <path d="M387.323154,239.672 C393.515154,239.672 398.315154,235.592 398.315154,227.672 L398.315154,218.216 C398.315154,210.296 393.515154,206.264 387.323154,206.264 C381.179154,206.264 376.379154,210.296 376.379154,218.216 L376.379154,227.672 C376.379154,235.592 381.179154,239.672 387.323154,239.672 Z M387.323154,234.92 C383.867154,234.92 381.275154,232.616 381.275154,227.624 L381.275154,218.264 C381.275154,213.272 383.867154,210.968 387.323154,210.968 C390.827154,210.968 393.419154,213.272 393.419154,218.264 L393.419154,227.624 C393.419154,232.616 390.827154,234.92 387.323154,234.92 Z" id="path-2"></path>
        <path d="M202.348,239 L202.348,206.936 L197.884,206.936 L188.332,214.856 L188.332,220.808 L197.116,213.656 L197.404,213.656 L197.404,239 L202.348,239 Z M231.244,228.632 L231.244,224.456 L209.356,224.456 L209.356,228.632 L231.244,228.632 Z M255.484,239 L255.484,232.088 L259.036,232.088 L259.036,227.48 L255.484,227.48 L255.484,206.936 L250.828,206.936 L235.948,226.136 L235.948,232.088 L250.54,232.088 L250.54,239 L255.484,239 Z M250.54,227.48 L240.7,227.48 L240.7,227.24 L250.252,215.144 L250.54,215.144 L250.54,227.48 Z" id="path-3"></path>
    </defs>
    <g id="Page-1" stroke="none" stroke-width="1" fill="none" fill-rule="evenodd">
        <g id="A_Assets_PINKeypad" transform="translate(-1266.000000, -268.000000)">
            <g transform="translate(1266.000000, 268.000000)">
                <path d="M224,1.5 C285.441678,1.5 341.066678,26.4041608 381.331259,66.6687412 C421.595839,106.933322 446.5,162.558322 446.5,224 C446.5,285.441678 421.595839,341.066678 381.331259,381.331259 C341.066678,421.595839 285.441678,446.5 224,446.5 C162.558322,446.5 106.933322,421.595839 66.6687412,381.331259 C26.4041608,341.066678 1.5,285.441678 1.5,224 C1.5,162.558322 26.4041608,106.933322 66.6687412,66.6687412 C106.933322,26.4041608 162.558322,1.5 224,1.5 Z M224,116.792135 C194.395366,116.792135 167.593399,128.791784 148.192592,148.192592 C128.791784,167.593399 116.792135,194.395366 116.792135,224 C116.792135,253.604634 128.791784,280.406601 148.192592,299.807408 C167.593399,319.208216 194.395366,331.207865 224,331.207865 C253.604634,331.207865 280.406601,319.208216 299.807408,299.807408 C319.208216,280.406601 331.207865,253.604634 331.207865,224 C331.207865,194.395366 319.208216,167.593399 299.807408,148.192592 C280.406601,128.791784 253.604634,116.792135 224,116.792135 Z" id="Combined-Shape" stroke="#979797" stroke-width="3"></path>
                <g id="9" fill-rule="nonzero" fill="#FCFCFC">
                    <use xlink:href="#path-1"></use>
                    <use xlink:href="#path-1"></use>
                </g>
                <g id="0" fill-rule="nonzero" fill="#FCFCFC">
                    <use xlink:href="#path-2"></use>
                    <use xlink:href="#path-2"></use>
                </g>
                <g id="1–4" fill-rule="nonzero" fill="#FCFCFC">
                    <use xlink:href="#path-3"></use>
                    <use xlink:href="#path-3"></use>
                </g>
                <g id="01-Atom/Icons/A-IC-023_delete_36x36" transform="translate(33.000000, 200.000000)" fill="#FCFCFC">
                    <path d="M38.7963995,30.6771014 C39.4149193,31.2883188 39.4149193,32.2806667 38.7963995,32.8918841 C38.1770868,33.5015362 37.1723888,33.5015362 36.5530761,32.8918841 L30.0253139,26.4494493 L23.4983448,32.8918841 C22.8790321,33.5015362 21.874334,33.5015362 21.2550213,32.8918841 C20.6365016,32.2806667 20.6365016,31.2883188 21.2550213,30.6771014 L27.7827834,24.2362319 L21.2550213,17.7937971 C20.6365016,17.1825797 20.6365016,16.1917971 21.2550213,15.5805797 C21.874334,14.9693623 22.8790321,14.9693623 23.4983448,15.5805797 L30.0253139,22.0230145 L36.5530761,15.5805797 C37.1723888,14.9693623 38.1770868,14.9693623 38.7963995,15.5805797 C39.4149193,16.1917971 39.4149193,17.1825797 38.7963995,17.7937971 L32.2686374,24.2362319 L38.7963995,30.6771014 Z M45.0807186,6.66666667 L43.5756539,6.66666667 L40.4037579,6.66666667 L20.4977311,6.66666667 C19.6246667,6.66666667 18.4066586,7.16518841 17.7905178,7.77327536 L1.79543894,23.5584928 C1.17929813,24.1673623 1.17929813,25.1636232 1.79543894,25.7717101 L17.7905178,41.560058 C18.4074516,42.1681449 19.6246667,42.6666667 20.4977311,42.6666667 L40.4037579,42.6666667 L43.5756539,42.6666667 L45.0807186,42.6666667 C45.9529901,42.6666667 46.6666667,41.9623188 46.6666667,41.1014493 L46.6666667,8.23188406 C46.6666667,7.37101449 45.9529901,6.66666667 45.0807186,6.66666667 L45.0807186,6.66666667 Z" id="01-Atom/Icons/ICA-IC/A-IC/0023_36x36"></path>
                </g>
            </g>
        </g>
    </g>
</svg>