<svg xmlns="http://www.w3.org/2000/svg" width="36" height="36" viewBox="0 0 36 36"><g fill="none" fill-rule="evenodd"><rect width="36" height="36" opacity=".3"/><path fill="#FCFCFC" d="M17.5500001,6 C23.7125,6 28.0311199,9.42434897 31.1988825,13.0211697 L31.7460939,13.6570313 L31.7460939,13.6570313 L32.2702584,14.2925022 L32.2702584,14.2925022 L32.7722224,14.9236111 L32.7722224,14.9236111 L33.4853937,15.8534085 L33.4853937,15.8534085 L34.5750001,17.325 L35.1000001,18 L34.5750001,18.6750001 L33.4853937,20.1465916 L33.4853937,20.1465916 L33.0151436,20.7637113 L33.0151436,20.7637113 L32.5239625,21.39115 L32.5239625,21.39115 L32.0110041,22.0249363 C31.9236492,22.1308757 31.8353517,22.2369141 31.7460939,22.3429688 L31.1988825,22.9788303 C28.0311199,26.5756511 23.7125,30 17.5500001,30 C11.3875,30 7.06888024,26.5756511 3.90111764,22.9788303 L3.35390626,22.3429688 L3.35390626,22.3429688 L2.82974177,21.7074979 L2.82974177,21.7074979 L2.32777779,21.0763889 L2.32777779,21.0763889 L1.6146064,20.1465916 L1.6146064,20.1465916 L0.525000002,18.6750001 L0,18 L0.525000002,17.325 L1.6146064,15.8534085 L1.6146064,15.8534085 L2.08485651,15.2362888 L2.08485651,15.2362888 L2.57603761,14.6088501 L2.57603761,14.6088501 L3.08899605,13.9750638 C3.17635092,13.8691244 3.26464845,13.763086 3.35390626,13.6570313 L3.90111764,13.0211697 C7.06888024,9.42434897 11.3875,6 17.5500001,6 Z M17.5500001,8.25000001 C11.98125,8.25000001 8.19914066,11.3128125 4.89814807,15.3327539 L4.30297853,16.0737305 L4.30297853,16.0737305 L3.71666837,16.8329883 L3.71666837,16.8329883 L3.13747384,17.6077149 C3.04143751,17.7379688 2.94562501,17.86875 2.85000001,18 L3.71666837,19.1670117 L3.71666837,19.1670117 L4.30297853,19.9262695 L4.30297853,19.9262695 L4.89814807,20.6672461 L4.89814807,20.6672461 L5.50392073,21.3871289 C8.66414066,25.0471875 12.3187501,27.75 17.5500001,27.75 C22.7812501,27.75 26.4358595,25.0471875 29.5960794,21.3871289 L30.2018521,20.6672461 L30.2018521,20.6672461 L30.7970216,19.9262695 L30.7970216,19.9262695 L31.3833318,19.1670117 L31.3833318,19.1670117 L31.9625263,18.3922852 C32.0585626,18.2620313 32.1543751,18.13125 32.2500001,18 L31.3833318,16.8329883 L31.3833318,16.8329883 L30.7970216,16.0737305 L30.7970216,16.0737305 L30.2018521,15.3327539 C26.9008595,11.3128125 23.1187501,8.25000001 17.5500001,8.25000001 Z M17.55,10.5 C21.6750001,10.5 25.05,13.875 25.05,18 C25.05,22.1250001 21.6750001,25.5 17.55,25.5 C13.4250001,25.5 10.05,22.1250001 10.05,18 C10.05,13.875 13.4250001,10.5 17.55,10.5 Z M17.5500001,12.75 C14.6250001,12.75 12.3000001,15.075 12.3000001,18 C12.3000001,20.9250001 14.6250001,23.25 17.5500001,23.25 C20.4750001,23.25 22.8000001,20.9250001 22.8000001,18 C22.8000001,15.075 20.4750001,12.75 17.5500001,12.75 Z"/></g></svg>