<?xml version="1.0" encoding="utf-8"?>
<!-- Generator: Adobe Illustrator 27.9.0, SVG Export Plug-In . SVG Version: 6.00 Build 0)  -->
<svg version="1.1" id="Ebene_1" xmlns="http://www.w3.org/2000/svg" xmlns:xlink="http://www.w3.org/1999/xlink" x="0px" y="0px"
	 viewBox="0 0 125 36" style="enable-background:new 0 0 125 36;" xml:space="preserve">
<style type="text/css">
	.st0{fill-rule:evenodd;clip-rule:evenodd;fill:#FCFCFC;}
</style>
<path class="st0" d="M4.5,6C2.6,6,1,7.6,1,9.5v17C1,28.4,2.6,30,4.5,30h116c1.9,0,3.5-1.6,3.5-3.5v-17c0-1.9-1.6-3.5-3.5-3.5H4.5z
	 M71.7,23.8h1.1l1.4-3.3h6.4l1.4,3.3H83l-5.1-12.3h-1L71.7,23.8z M80.2,19.6h-5.7l2.9-7L80.2,19.6z M85.3,15.3h2.3v0.8h-2.3v5.4
	c0,1.2,0.5,1.5,1.3,1.5c0.3,0,0.7-0.1,1-0.2l0,0.8c-0.4,0.1-0.8,0.2-1.3,0.2c-1,0-1.9-0.5-1.9-2.1v-5.6h-1.7v-0.8h1.7v-3.8h0.9V15.3
	z M90.2,23.8h-0.9v-6.4c0-0.5,0-1.5-0.1-2.1h0.9c0,0.5,0.1,1.4,0.1,1.8h0c0.5-1.1,1.6-1.8,2.7-1.8c1.2,0,2.1,0.6,2.5,1.9h0
	c0.5-1.2,1.5-1.9,2.8-1.9c2,0,2.9,1.5,2.9,3.4v5.1h-0.9V19c0-1.6-0.6-2.9-2.2-2.9c-1.6,0-2.5,1.5-2.5,3.3v4.4h-0.9v-5
	c0-1.5-0.4-2.8-2-2.8c-1.3,0-2.5,1.1-2.5,3.4V23.8z M102.6,19.5c0,2.5,1.7,4.3,4.2,4.3c2.5,0,4.2-1.8,4.2-4.3c0-2.5-1.7-4.3-4.2-4.3
	C104.3,15.3,102.6,17.1,102.6,19.5z M103.6,19.5c0-1.9,1.2-3.4,3.2-3.4c2,0,3.2,1.5,3.2,3.4c0,1.9-1.2,3.4-3.2,3.4
	C104.8,23,103.6,21.5,103.6,19.5z M114.9,15.3c1.2,0,2.2,0.5,2.7,1.4l-0.7,0.5c-0.4-0.7-1.1-1.1-2-1.1c-0.8,0-1.8,0.4-1.8,1.4
	c0,0.9,0.7,1.3,2,1.5c1.7,0.4,2.7,1,2.7,2.3c0,1.7-1.4,2.4-2.9,2.4c-1.2,0-2.3-0.5-3-1.5l0.7-0.5c0.5,0.7,1.3,1.3,2.3,1.3
	c1,0,2-0.4,2-1.6c0-1-1-1.3-2-1.6c-1.2-0.3-2.6-0.7-2.6-2.3C112.2,16,113.6,15.3,114.9,15.3z M8.8,23.8H7V11.5h1.8
	c3.3,0,6,2.8,6,6.1C14.8,21,12.1,23.8,8.8,23.8z M22.3,11.5h1.8v12.3h-1.8c-3.3,0-6-2.8-6-6.1C16.3,14.3,19,11.5,22.3,11.5z
	 M27.7,11.5h4.3c3.3,0,6,2.8,6,6.1c0,3.4-2.7,6.1-6,6.1h-4.3V11.5z M29.5,21.9h2.5c2.3,0,4.2-1.9,4.2-4.3c0-2.4-1.9-4.3-4.2-4.3
	h-2.5V21.9z M39,19.5c0-2.3,1.9-4.3,4.2-4.3c2.3,0,4.2,1.9,4.2,4.3c0,2.3-1.9,4.3-4.2,4.3C40.9,23.8,39,21.9,39,19.5z M40.7,19.5
	c0,1.4,1.1,2.6,2.5,2.6c1.4,0,2.5-1.1,2.5-2.6c0-1.4-1.1-2.6-2.5-2.6C41.8,17,40.7,18.1,40.7,19.5z M50.3,23.8h-1.8V11.5h1.8V23.8z
	 M53.7,16.1c0.7-0.5,1.5-0.8,2.4-0.8c2.3,0,4.2,1.9,4.2,4.3c0,2.3-1.9,4.3-4.2,4.3c-0.9,0-1.7-0.3-2.4-0.8v0.8h-1.8V11.5h1.8V16.1z
	 M53.7,20.3c0.3,1,1.3,1.8,2.4,1.8c1.4,0,2.5-1.1,2.5-2.6c0-1.4-1.1-2.6-2.5-2.6c-1.1,0-2,0.7-2.4,1.8c-0.1,0.3-0.1,0.5-0.1,0.8
	C53.5,19.8,53.6,20.1,53.7,20.3z M64.5,20.7l2.4-5.5h2c-0.4,0.9-4.7,10.8-4.7,10.8c-0.5,1.2-1.9,1.8-3.1,1.2L60.4,27l0,0l0.7-1.7
	l0.3,0.1c0.5,0.2,1.1,0,1.3-0.5c0,0,0.8-1.9,0.8-1.9l-3.4-7.7h2L64.5,20.7z"/>
</svg>
