<svg xmlns="http://www.w3.org/2000/svg" width="36" height="36" viewBox="0 0 36 36"><g fill="none" fill-rule="evenodd"><rect width="36" height="36"/><path fill="#FCFCFC" d="M27.7500001,16.2500001 L27.7500001,13.25 C27.7500001,7.86522371 23.3847764,3.5 18,3.5 C12.6152237,3.5 8.25000002,7.86522371 8.25000002,13.25 L8.25000002,16.2500001 L4.5,16.2500001 L4.5,30.5 C4.5,32.9852815 6.51471863,35 9,35 L27,35 C29.4852815,35 31.5,32.9852815 31.5,30.5 L31.5,16.2500001 L27.7500001,16.2500001 Z M19.5000001,26.1650001 L19.5000001,29.0000001 L16.5000001,29.0000001 L16.5000001,26.1650001 C15.8046678,25.543076 15.5652379,24.5565758 15.8981122,23.6850994 C16.2309866,22.813623 17.0671139,22.2379491 18.0000001,22.2379491 C18.9328862,22.2379491 19.7690135,22.813623 20.1018879,23.6850994 C20.4347622,24.5565758 20.1953323,25.543076 19.5000001,26.1650001 L19.5000001,26.1650001 Z M25.5,16.25 L10.5,16.25 L10.5,13.25 C10.5,9.1078644 13.8578644,5.75000001 18,5.75000001 C22.1421357,5.75000001 25.5,9.1078644 25.5,13.25 L25.5,16.25 Z"/></g></svg>