<svg width="36" height="36" viewBox="0 0 36 36" fill="none" xmlns="http://www.w3.org/2000/svg">
<path d="M6.5 8.25H29.5C30.7426 8.25 31.75 9.25736 31.75 10.5V26C31.75 27.2426 30.7426 28.25 29.5 28.25H19V30.5H29.5C31.9853 30.5 34 28.4853 34 26V10.5C34 8.01472 31.9853 6 29.5 6H6.5C4.01472 6 2 8.01472 2 10.5V13.5H4.25V10.5C4.25 9.25736 5.25736 8.25 6.5 8.25Z" fill="white"/>
<path d="M5.96456 30.5H2V26.5354C2.1633 26.5121 2.33024 26.5 2.5 26.5C4.433 26.5 6 28.067 6 30C6 30.1698 5.98791 30.3367 5.96456 30.5Z" fill="white"/>
<path d="M10.9855 30.5C10.9951 30.3346 11 30.1678 11 30C11 25.3056 7.19442 21.5 2.5 21.5C2.33215 21.5 2.16544 21.5049 2 21.5145V23.7697C2.16495 23.7567 2.3317 23.75 2.5 23.75C5.95178 23.75 8.75 26.5482 8.75 30C8.75 30.1683 8.74335 30.3351 8.73029 30.5H10.9855Z" fill="white"/>
<path d="M15.9909 30.5C15.997 30.3341 16 30.1674 16 30C16 22.5442 9.95584 16.5 2.5 16.5C2.3326 16.5 2.16592 16.503 2 16.5091V18.7609C2.16576 18.7537 2.33245 18.75 2.5 18.75C8.7132 18.75 13.75 23.7868 13.75 30C13.75 30.1675 13.7463 30.3342 13.7391 30.5H15.9909Z" fill="white"/>
</svg>
