<svg xmlns="http://www.w3.org/2000/svg" width="36" height="37" viewBox="0 0 36 37"><g fill="none" fill-rule="evenodd" transform="translate(0 .139)"><rect width="36" height="36"/><path fill="#FCFCFC" d="M15.9999999,5.24999995 L15.9999999,7.49999995 L3.74999994,7.49999996 L3.74999994,24 C3.74999994,25.2 4.61366776,26.134256 5.77825152,26.2400162 L5.99999994,26.25 L29.9999999,26.25 C31.2,26.25 32.134256,25.3863322 32.2400162,24.2217484 L32.2499999,24 L32.2499999,19.2499999 L34.4999999,19.2499999 L34.4999999,23.9999999 C34.4999999,26.3866072 32.61706,28.3547831 30.2633848,28.492323 L29.9999999,28.4999999 L21.825,28.4999999 L22.125,28.8 C22.465909,29.4818182 23.1167355,29.9157024 23.8520849,29.9889556 L24.075,29.9999999 L27.825,29.9999999 L27.825,32.2499999 L8.32499996,32.2499999 L8.32499996,29.9999999 L12.075,29.9999999 C12.825,29.9999999 13.5130165,29.6280992 13.9136551,28.9969948 L14.025,28.8 L14.175,28.4999999 L5.99999993,28.4999999 C3.6133928,28.4999999 1.64521677,26.61706 1.50767691,24.2633848 L1.49999993,23.9999999 L1.49999993,5.24999995 L15.9999999,5.24999995 Z M27.2777778,2.77777778 L27.2777778,16.9444444 L25.6111111,16.9444444 L21.8611111,13.6111111 L20.6111111,13.6111111 C19.2812004,13.6111111 18.1915001,12.5689077 18.1153607,11.2578512 L18.1111111,11.1111111 L18.1111111,8.61111111 C18.1111111,7.28120041 19.1533146,6.19150014 20.4643711,6.11536072 L20.6111111,6.11111111 L21.8611111,6.11111111 L25.6111111,2.77777778 L27.2777778,2.77777778 Z M33.0318941,3.26068204 C34.5803877,5.0217499 35.5194445,7.33176627 35.5194445,9.86111111 C35.5194445,12.3757512 34.5912747,14.6736057 33.0588394,16.4307699 L31.8749417,15.2462232 C33.1065732,13.7941002 33.8494445,11.9143591 33.8494445,9.86111111 C33.8494445,7.79310869 33.0958584,5.90111573 31.8483149,4.44476087 L33.0318941,3.26068204 Z M25.5762888,4.86111114 L22.3846462,7.69972786 L20.8932917,7.69972786 C20.3338749,7.69972786 19.8701871,8.13050875 19.8175713,8.67672765 L19.8126001,8.7804195 L19.8126001,10.9418028 C19.8126001,11.5012196 20.243381,11.9649074 20.7895999,12.0175232 L20.8932917,12.0224944 L22.3846462,12.0224944 L25.5762888,14.8611111 L25.5762888,4.86111114 Z M30.5295229,5.76271022 C31.3848251,6.90529728 31.8913987,8.32404589 31.8913987,9.86111111 C31.8913987,11.3831775 31.3946633,12.7892251 30.5544614,13.9259849 L29.3557364,12.7276717 C29.9026408,11.9070089 30.2213987,10.921285 30.2213987,9.86111111 C30.2213987,8.7854162 29.8932392,7.78636704 29.3315698,6.95861323 L30.5295229,5.76271022 Z"/></g></svg>