<svg xmlns="http://www.w3.org/2000/svg" width="36" height="36" viewBox="0 0 36 36"><g fill="none" fill-rule="evenodd"><rect width="36" height="36"/><path fill="#000" fill-rule="nonzero" d="M19.5559709,2.39808098e-14 L19.5558948,3.34404063 C27.5632561,4.12566379 33.8208965,10.8767567 33.8208965,19.0893999 C33.8208965,27.8270397 26.7376399,34.9102964 18,34.9102964 C9.26236021,34.9102964 2.17910359,27.8270397 2.17910359,19.0893999 C2.17910359,18.8624863 2.18389164,18.6360849 2.19344422,18.4102985 C2.23283925,17.479151 3.01961945,16.7562428 3.95076698,16.7956378 C4.88191451,16.8350328 5.60482274,17.621813 5.5654277,18.5529606 C5.55788573,18.7312239 5.5541036,18.9100606 5.5541036,19.0893999 C5.5541036,25.9630787 11.1263212,31.5352964 18,31.5352964 C24.8736789,31.5352964 30.4458965,25.9630787 30.4458965,19.0893999 C30.4458965,12.7424993 25.6950282,7.50522352 19.5554811,6.73976195 L19.5559709,10.0462321 L11.8670597,5.02311607 L19.5559709,2.39808098e-14 Z"/></g></svg>