<svg xmlns="http://www.w3.org/2000/svg" width="36" height="36" viewBox="0 0 36 36"><g fill="none" fill-rule="evenodd"><rect width="36" height="36"/><g fill="#FCFCFC" transform="translate(1.5 1.5)"><path d="M3.31343948 1.72193975 31.3134395 29.7219397C31.7524395 30.1609397 31.7524395 30.8739397 31.3134395 31.3129397 30.8744395 31.7519397 30.1614395 31.7519397 29.7224395 31.3129397L1.72243948 3.31293975C1.28343948 2.87393975 1.28343948 2.16093975 1.72243948 1.72193975 2.16143948 1.28293975 2.87443948 1.28293975 3.31343948 1.72193975M15.4042395 23.9951397 15.4162395 24.1641397C15.4922395 24.7141397 15.9392395 25.1091397 16.5182395 25.1091397 17.1542395 25.1091397 17.6312395 24.6311397 17.6312395 23.9951397L17.6312395 22.4561397 15.4042395 20.1981397 15.4042395 23.9951397ZM8.87093948 15.4153397C8.32093948 15.4923397 7.92693948 15.9393397 7.92693948 16.5173397 7.92693948 17.1543397 8.40393948 17.6313397 9.03993948 17.6313397L12.8719395 17.6313397 10.6749395 15.4033397 9.03993948 15.4033397 8.87093948 15.4153397ZM17.6316395 9.03973975 17.6196395 8.87073975C17.5436395 8.32073975 17.0966395 7.92573975 16.5176395 7.92573975 15.8816395 7.92573975 15.4046395 8.40373975 15.4046395 9.03973975L15.4046395 10.6627397 17.6316395 12.9207397 17.6316395 9.03973975Z"/><path d="M6.44163948 26.5937397C1.67363948 21.8257397 1.00163948 14.5367397 4.39863948 9.04173975L2.76863948 7.38973975C-1.51936052 13.8077397-.827360523 22.5067397 4.85063948 28.1847397 10.4736395 33.8077397 19.0566395 34.5367397 25.4556395 30.3877397L23.8266395 28.7347397C18.3516395 32.0167397 11.1616395 31.3137397 6.44163948 26.5937397M28.1851395 4.85023975C22.5471395-.787760255 13.9321395-1.50876025 7.52713948 2.67823975L9.15713948 4.33023975C14.6381395 1.01323975 21.8591395 1.70623975 26.5941395 6.44123975 31.3771395 11.2242397 32.0391395 18.5452397 28.6061395 24.0452397L30.2321395 25.6932397C34.5561395 19.2712397 33.8781395 10.5432397 28.1851395 4.85023975"/><path d="M23.9956395,17.6311397 L24.1646395,17.6191397 C24.7146395,17.5431397 25.1096395,17.0961397 25.1096395,16.5171397 C25.1096395,15.8811397 24.6316395,15.4041397 23.9956395,15.4041397 L20.0806395,15.4041397 L22.2786395,17.6311397 L23.9956395,17.6311397 Z"/></g></g></svg>