<?xml version="1.0" encoding="UTF-8"?>
<svg width="448px" height="448px" viewBox="0 0 448 448" version="1.1" xmlns="http://www.w3.org/2000/svg" xmlns:xlink="http://www.w3.org/1999/xlink">
    <title>A_Assets_PINKeypad</title>
    <defs>
        <path d="M220.444637,75.672 C226.828637,75.672 231.100637,71.208 231.100637,65.064 C231.100637,58.632 226.828637,54.504 220.108637,54.504 L216.604637,54.504 L217.324637,47.544 L230.716637,47.544 L230.716637,42.936 L212.908637,42.936 L211.180637,59.208 L219.772637,59.208 C223.660637,59.208 226.012637,61.512 226.012637,65.064 C226.012637,68.568 223.756637,70.92 220.444637,70.92 C217.420637,70.92 215.356637,69.144 214.972637,65.928 L209.884637,65.928 C210.364637,71.736 214.348637,75.672 220.444637,75.672 Z" id="path-1"></path>
        <polygon id="path-2" points="220.234618 406 233.290618 379.792 233.290618 373.936 213.562618 373.936 213.562618 378.544 228.394618 378.544 228.394618 378.832 214.714618 406"></polygon>
        <path d="M387.443154,239.672 C394.211154,239.672 398.627154,234.488 398.627154,228.824 C398.627154,223.16 394.451154,217.976 387.971154,217.976 C387.539154,217.976 387.059154,218.024 386.627154,218.072 L386.627154,218.024 L386.483154,218.072 L395.171154,206.936 L389.123154,206.936 L380.627154,218.024 C378.131154,221.192 376.307154,224.696 376.307154,228.824 C376.307154,234.488 380.723154,239.672 387.443154,239.672 Z M387.443154,234.968 C383.699154,234.968 381.347154,232.088 381.347154,228.824 C381.347154,225.512 383.699154,222.68 387.443154,222.68 C391.187154,222.68 393.539154,225.512 393.539154,228.824 C393.539154,232.088 391.187154,234.968 387.443154,234.968 Z" id="path-3"></path>
        <path d="M57.924,239.672 C64.5,239.672 68.58,235.784 68.58,230.408 C68.58,226.808 66.852,223.88 63.588,222.632 L63.588,222.44 C66.564,221.192 68.1,218.264 68.1,215.048 C68.1,210.104 64.068,206.264 57.924,206.264 C51.732,206.264 47.7,210.104 47.7,215.048 C47.7,218.264 49.236,221.192 52.212,222.44 L52.212,222.632 C48.948,223.88 47.22,226.808 47.22,230.408 C47.22,235.784 51.3,239.672 57.924,239.672 Z M57.924,220.28 C54.948,220.28 52.74,218.552 52.74,215.624 C52.74,212.744 54.948,210.968 57.924,210.968 C60.852,210.968 63.108,212.744 63.108,215.624 C63.108,218.552 60.852,220.28 57.924,220.28 Z M57.924,234.92 C54.756,234.92 52.308,233.096 52.308,229.928 C52.308,226.76 54.756,224.936 57.924,224.936 C61.044,224.936 63.492,226.76 63.492,229.928 C63.492,233.096 61.044,234.92 57.924,234.92 Z" id="path-4"></path>
        <path d="M194.644,239 L203.188,227.912 C205.636,224.744 207.46,221.24 207.46,217.112 C207.46,211.448 203.044,206.264 196.324,206.264 C189.556,206.264 185.188,211.448 185.188,217.112 C185.188,222.776 189.364,227.96 195.844,227.96 C196.276,227.96 196.708,227.912 197.14,227.864 L197.14,227.912 L197.284,227.864 L188.644,239 L194.644,239 Z M196.324,223.256 C192.58,223.256 190.228,220.424 190.228,217.112 C190.228,213.848 192.58,210.968 196.324,210.968 C200.116,210.968 202.468,213.848 202.468,217.112 C202.468,220.424 200.116,223.256 196.324,223.256 Z M233.476,228.632 L233.476,224.456 L211.588,224.456 L211.588,228.632 L233.476,228.632 Z M250.468,239.672 C256.66,239.672 261.46,235.592 261.46,227.672 L261.46,218.216 C261.46,210.296 256.66,206.264 250.468,206.264 C244.324,206.264 239.524,210.296 239.524,218.216 L239.524,227.672 C239.524,235.592 244.324,239.672 250.468,239.672 Z M250.468,234.92 C247.012,234.92 244.42,232.616 244.42,227.624 L244.42,218.264 C244.42,213.272 247.012,210.968 250.468,210.968 C253.972,210.968 256.564,213.272 256.564,218.264 L256.564,227.624 C256.564,232.616 253.972,234.92 250.468,234.92 Z" id="path-5"></path>
    </defs>
    <g id="Page-1" stroke="none" stroke-width="1" fill="none" fill-rule="evenodd">
        <g id="A_Assets_PINKeypad" transform="translate(-669.000000, -268.000000)">
            <g transform="translate(669.000000, 268.000000)">
                <path d="M224,1.5 C285.441678,1.5 341.066678,26.4041608 381.331259,66.6687412 C421.595839,106.933322 446.5,162.558322 446.5,224 C446.5,285.441678 421.595839,341.066678 381.331259,381.331259 C341.066678,421.595839 285.441678,446.5 224,446.5 C162.558322,446.5 106.933322,421.595839 66.6687412,381.331259 C26.4041608,341.066678 1.5,285.441678 1.5,224 C1.5,162.558322 26.4041608,106.933322 66.6687412,66.6687412 C106.933322,26.4041608 162.558322,1.5 224,1.5 Z M224,116.792135 C194.395366,116.792135 167.593399,128.791784 148.192592,148.192592 C128.791784,167.593399 116.792135,194.395366 116.792135,224 C116.792135,253.604634 128.791784,280.406601 148.192592,299.807408 C167.593399,319.208216 194.395366,331.207865 224,331.207865 C253.604634,331.207865 280.406601,319.208216 299.807408,299.807408 C319.208216,280.406601 331.207865,253.604634 331.207865,224 C331.207865,194.395366 319.208216,167.593399 299.807408,148.192592 C280.406601,128.791784 253.604634,116.792135 224,116.792135 Z" id="Combined-Shape" stroke="#979797" stroke-width="3"></path>
                <g id="5" fill-rule="nonzero" fill="#FCFCFC">
                    <use xlink:href="#path-1"></use>
                    <use xlink:href="#path-1"></use>
                </g>
                <g id="7" fill-rule="nonzero" fill="#FCFCFC">
                    <use xlink:href="#path-2"></use>
                    <use xlink:href="#path-2"></use>
                </g>
                <g id="6" fill-rule="nonzero" fill="#FCFCFC">
                    <use xlink:href="#path-3"></use>
                    <use xlink:href="#path-3"></use>
                </g>
                <g id="8" fill-rule="nonzero" fill="#FCFCFC">
                    <use xlink:href="#path-4"></use>
                    <use xlink:href="#path-4"></use>
                </g>
                <g id="9–0" fill-rule="nonzero" fill="#FCFCFC">
                    <use xlink:href="#path-5"></use>
                    <use xlink:href="#path-5"></use>
                </g>
            </g>
        </g>
    </g>
</svg>