<svg xmlns="http://www.w3.org/2000/svg" width="36" height="36" viewBox="0 0 36 36"><g fill="none" fill-rule="evenodd"><rect width="36" height="36"/><path fill="#FCFCFC" d="M7.5,24 C3.91014913,24 1,21.0898509 1,17.5 C1,13.9101491 3.91014913,11 7.5,11 C11.0898509,11 14,13.9101491 14,17.5 C14,19.1252114 13.4035388,20.6111119 12.4175794,21.7507386 L23.5824206,21.7507386 C22.5964612,20.6111119 22,19.1252114 22,17.5 C22,13.9101491 24.9101491,11 28.5,11 C32.0898509,11 35,13.9101491 35,17.5 C35,21.0898509 32.0898509,24 28.5,24 L7.5,24 Z M7.5,13.25 C5.15278981,13.25 3.25,15.1527898 3.25,17.5 C3.25,19.8472102 5.15278981,21.75 7.5,21.75 C9.84721019,21.75 11.75,19.8472102 11.75,17.5 C11.75,15.1527898 9.84721019,13.25 7.5,13.25 Z M28.5,13.25 C26.1527898,13.25 24.25,15.1527898 24.25,17.5 C24.25,19.8472102 26.1527898,21.75 28.5,21.75 C30.8472102,21.75 32.75,19.8472102 32.75,17.5 C32.75,15.1527898 30.8472102,13.25 28.5,13.25 Z"/></g></svg>