<svg xmlns="http://www.w3.org/2000/svg" width="50.25" height="50.25" viewBox="0 0 50.25 50.25"><g fill="none" fill-rule="evenodd" transform="translate(1.125 1.125)"><circle cx="24" cy="24" r="24" stroke="#969696" stroke-width="2.25"/><path fill="#FCFCFC" d="M12,34 L27.7881,23.5 L12,13 L12,34 Z M14.2506,17.1985 L23.7246,23.5 L14.2506,29.8 L14.2506,17.1985 Z M29.125,13 C29.7463,13 30.25,13.5037 30.25,14.125 L30.25,32.8782 C30.25,33.4995 29.7463,34.0032 29.125,34.0032 C28.5037,34.0032 28,33.4995 28,32.8782 L28,14.125 C28,13.5037 28.5037,13 29.125,13 Z M34.1917,13 C34.813,13 35.3167,13.5037 35.3167,14.125 L35.3167,32.8782 C35.3167,33.4995 34.813,34.0032 34.1917,34.0032 C33.5703,34.0032 33.0667,33.4995 33.0667,32.8782 L33.0667,14.125 C33.0667,13.5037 33.5703,13 34.1917,13 Z"/></g></svg>