<svg xmlns="http://www.w3.org/2000/svg" width="37" height="36" viewBox="0 0 37 36"><g fill="none" fill-rule="evenodd"><rect width="36" height="36" x=".054"/><path fill="#FCFCFC" fill-rule="nonzero" d="M29.0465754,26.4328767 C28.5534247,26.4328767 27.9616439,26.630137 27.5671233,26.9260274 C27.6657535,26.5315068 27.6657535,26.1369863 27.6657535,25.7424657 L27.6657535,25.6438356 C28.5534247,26.2356164 29.7369863,26.1369863 30.6246576,25.5452055 C31.1178083,25.1506849 31.5123288,24.5589041 31.5123288,23.8684931 C31.6109589,23.1780822 31.4136987,22.5863013 30.920548,21.9945205 C29.4410959,20.219178 27.5671233,18.739726 25.3972603,17.9506849 C26.7780822,16.6684931 27.5671233,14.8931506 27.5671233,12.9205479 L27.5671233,10.849315 C27.5671233,10.5534246 27.5671233,10.2575342 27.4684932,9.96164376 C28.2575343,9.07397253 28.6520548,7.98904102 28.6520548,6.90410951 C28.6520548,4.33972594 26.5808219,2.16986292 23.9178082,2.16986292 C22.7342466,2.16986292 21.6493151,2.56438347 20.860274,3.35342457 C20.5643836,3.35342457 20.2684932,3.25479443 20.0712329,3.25479443 L15.7315068,3.25479443 C15.4356164,3.25479443 15.139726,3.25479443 14.9424657,3.35342457 C14.0547945,2.56438347 12.969863,2.16986292 11.8849315,2.16986292 C9.32054792,2.16986292 7.1506849,4.2410958 7.1506849,6.90410951 C7.1506849,8.08767116 7.54520545,9.17260267 8.33424655,9.96164376 C8.33424655,10.2575342 8.23561641,10.5534246 8.23561641,10.849315 L8.23561641,12.9205479 C8.23561641,14.7945205 9.02465751,16.6684931 10.5041096,17.9506849 C8.33424655,18.8383561 6.46027394,20.219178 4.98082188,21.9945205 C4.58630133,22.4876712 4.38904106,23.1780822 4.38904106,23.8684931 C4.4876712,24.5589041 4.78356161,25.1506849 5.27671229,25.5452055 C6.16438353,26.2356164 7.34794518,26.2356164 8.23561641,25.6438356 L8.23561641,25.7424657 C8.23561641,26.1369863 8.23561641,26.5315068 8.33424655,26.9260274 C7.54520545,26.3342465 6.55890408,26.2356164 5.76986298,26.7287671 C4.88219174,27.1232876 4.38904106,28.0109589 4.38904106,28.9972603 L4.38904106,29.8849315 C4.4876712,31.8575342 6.06575339,33.3369863 8.03835614,33.3369863 L27.9616439,33.3369863 C29.9342466,33.4356164 31.5123288,31.8575342 31.6109589,29.8849315 L31.6109589,28.9972603 C31.6109589,27.5178082 30.4273973,26.4328767 29.0465754,26.4328767 Z M9.91232874,12.9205479 L9.91232874,10.849315 C9.91232874,10.5534246 9.91232874,10.158904 10.0109589,9.86301363 L10.109589,9.36986294 L9.81369861,9.07397253 C9.22191778,8.4821917 8.82739723,7.69315061 8.82739723,6.90410951 C8.82739723,5.22739717 10.2082192,3.84657525 11.8849315,3.84657525 C12.7726027,3.84657525 13.5616438,4.14246566 14.0547945,4.83287663 L14.3506849,5.12876704 L14.7452055,5.0301369 C15.139726,4.93150676 15.5342466,4.93150676 15.830137,4.93150676 L20.169863,4.93150676 C20.4657534,4.93150676 20.860274,4.93150676 21.1561644,5.0301369 L21.5506849,5.12876704 L21.8465754,4.83287663 C23.030137,3.64931498 25.0027397,3.64931498 26.1863014,4.83287663 C27.369863,6.01643827 27.369863,7.98904102 26.1863014,9.17260267 L25.890411,9.36986294 L25.9890411,9.76438349 C26.0876713,10.0602739 26.0876713,10.4547944 26.0876713,10.7506849 L26.0876713,12.8219177 C26.0876713,16.2739725 22.6356165,18.8383561 18.0986301,18.8383561 C13.5616438,18.8383561 9.91232874,16.3726027 9.91232874,12.9205479 Z M29.9342466,29.7863014 C29.8356165,30.7726027 29.0465754,31.5616438 27.9616439,31.5616438 L8.03835614,31.5616438 C7.05205476,31.660274 6.16438353,30.8712329 6.06575339,29.7863014 L6.06575339,28.8986301 C6.06575339,28.4054794 6.46027394,28.109589 6.85479449,28.109589 C7.24931504,28.109589 7.64383559,28.5041096 7.64383559,28.8986301 L7.64383559,29.8849315 L11.3917808,29.8849315 L10.8,28.6027397 C10.3068493,27.7150685 10.0109589,26.7287671 10.0109589,25.6438356 L10.0109589,25.1506849 C10.0109589,24.5589041 10.109589,23.9671233 10.3068493,23.4739726 L11.0958904,20.8109589 L8.92602737,22.6849315 C8.53150682,23.079452 8.13698627,23.4739726 7.74246572,23.9671233 L7.54520545,24.1643835 C7.34794518,24.3616438 7.1506849,24.4602739 6.85479449,24.4602739 C6.65753422,24.4602739 6.46027394,24.3616438 6.3616438,24.2630137 C6.16438353,24.1643835 6.06575339,23.9671233 6.06575339,23.6712328 C6.06575339,23.4739726 6.06575339,23.2767123 6.26301367,23.079452 C7.84109586,21.2054794 9.91232874,19.8246575 12.1808219,19.1342465 C13.9561644,20.1205479 15.9287671,20.6136986 18,20.6136986 C20.0712329,20.6136986 22.0438356,20.1205479 23.8191781,19.1342465 C26.1863014,19.8246575 28.2575343,21.2054794 29.7369863,23.079452 C29.9342466,23.2767123 29.9342466,23.6712328 29.8356165,23.8684931 C29.7369863,24.1643835 29.4410959,24.3616438 29.1452055,24.3616438 C28.8493151,24.3616438 28.5534247,24.2630137 28.3561644,24.0657534 L28.1589041,23.8684931 C27.8630137,23.3753424 27.4684932,22.9808219 26.9753425,22.5863013 L24.9041096,20.8109589 L25.6931507,23.5726027 C25.890411,24.1643835 25.9890411,24.6575342 25.9890411,25.249315 L25.9890411,25.7424657 C25.9890411,26.7287671 25.6931507,27.8136986 25.2,28.7013698 L24.5095891,29.9835616 L28.2575343,29.9835616 L28.2575343,28.9972603 C28.2575343,28.5041096 28.6520548,28.2082192 29.0465754,28.2082192 C29.4410959,28.2082192 29.8356165,28.6027397 29.8356165,28.9972603 L29.8356165,29.7863014 L29.9342466,29.7863014 Z M22.4383562,11.8356164 C23.030137,11.8356164 23.5232877,11.3424657 23.5232877,10.7506849 C23.5232877,10.158904 23.030137,9.66575335 22.4383562,9.66575335 C21.8465754,9.66575335 21.3534247,10.158904 21.3534247,10.7506849 C21.3534247,11.3424657 21.8465754,11.8356164 22.4383562,11.8356164 Z M13.5616438,11.8356164 C14.1534246,11.8356164 14.6465753,11.3424657 14.6465753,10.7506849 C14.6465753,10.158904 14.1534246,9.66575335 13.5616438,9.66575335 C12.969863,9.66575335 12.4767123,10.158904 12.4767123,10.7506849 C12.4767123,11.3424657 12.969863,11.8356164 13.5616438,11.8356164 Z M17.309589,14.4986301 C17.5068493,14.6958904 17.8027397,14.7945205 18.0986301,14.7945205 C18.3945205,14.7945205 18.690411,14.6958904 18.8876712,14.4986301 L19.5780822,13.8082191 C19.9726027,13.4136986 19.8739726,13.019178 19.2821918,13.019178 L16.9150685,13.019178 C16.3232877,13.019178 16.1260274,13.4136986 16.6191781,13.8082191 L17.309589,14.4986301 Z"/></g></svg>