<svg width="36" height="36" viewBox="0 0 36 36" fill="none" xmlns="http://www.w3.org/2000/svg">
<path fill-rule="evenodd" clip-rule="evenodd" d="M1 4.5C1 2.567 2.567 1 4.5 1H31.5C33.433 1 35 2.567 35 4.5V31.5C35 33.433 33.433 35 31.5 35H4.5C2.567 35 1 33.433 1 31.5V4.5ZM5 17.1667C5 16.7985 5.29848 16.5 5.66667 16.5H16.5V5.66667C16.5 5.29848 16.7985 5 17.1667 5H18.8333C19.2015 5 19.5 5.29848 19.5 5.66667V16.5H30.3333C30.7015 16.5 31 16.7985 31 17.1667V18.8333C31 19.2015 30.7015 19.5 30.3333 19.5H19.5V30.3333C19.5 30.7015 19.2015 31 18.8333 31H17.1667C16.7985 31 16.5 30.7015 16.5 30.3333V19.5H5.66667C5.29848 19.5 5 19.2015 5 18.8333V17.1667Z" fill="#FDCA00"/>
</svg>
