<?xml version="1.0" encoding="UTF-8"?>
<svg width="36px" height="36px" viewBox="0 0 36 36" version="1.1" xmlns="http://www.w3.org/2000/svg" xmlns:xlink="http://www.w3.org/1999/xlink">
    <title>alert_white_a_icon</title>
    <g id="Atoms" stroke="none" stroke-width="1" fill="none" fill-rule="evenodd">
        <g id="A_Icons" transform="translate(-405.000000, -2990.000000)">
            <g id="1_Atoms-/-Icon-/-3_0-/-alert_white_a_icon" transform="translate(405.000000, 2990.000000)">
                <path d="M16.5454545,9.27272727 L19.4545455,9.27272727 L19.4545455,19.9393939 L16.5454545,19.9393939 L16.5454545,9.27272727 Z M18,2 C9.16344403,2 2,9.16344403 2,18 C2,26.8365561 9.16344403,34 18,34 C26.8365561,34 34,26.8365561 34,18 C34,13.7565362 32.3142907,9.68687359 29.3137086,6.68629152 C26.3131265,3.68570945 22.2434639,2 18,2 Z M16.0606061,24.7878788 C16.0606061,23.7167811 16.9289023,22.8484848 18,22.8484848 C19.0710977,22.8484848 19.9393939,23.7167811 19.9393939,24.7878788 C19.9393939,25.8589765 19.0710977,26.7272727 18,26.7272727 C16.9289023,26.7272727 16.0606061,25.8589765 16.0606061,24.7878788 Z" id="Shape" fill="#FCFCFC"></path>
                <rect id="Rectangle" x="0" y="0" width="36" height="36"></rect>
            </g>
        </g>
    </g>
</svg>