<svg width="36" height="36" viewBox="0 0 36 36" fill="none" xmlns="http://www.w3.org/2000/svg">
<path fill-rule="evenodd" clip-rule="evenodd" d="M29.6748 10.0238L25.42 1.61663L23.3999 5.11546C16.1762 1.86813 7.5238 4.55641 3.47853 11.563C-0.836189 19.0363 1.72436 28.5924 9.19768 32.9072C16.671 37.2219 26.2271 34.6613 30.5418 27.188C30.654 26.9938 30.7617 26.7977 30.8651 26.5998C31.1527 26.049 30.9395 25.3694 30.3887 25.0818C29.838 24.7941 29.1584 25.0074 28.8707 25.5581C28.782 25.728 28.6895 25.8963 28.5933 26.063C24.8999 32.4602 16.7198 34.652 10.3227 30.9586C3.92552 27.2652 1.73369 19.0852 5.42709 12.688C8.8504 6.75867 16.1281 4.44209 22.2681 7.07591L20.2666 10.5426L29.6748 10.0238ZM16.0783 20.99C16.0783 23.465 17.6233 24.74 19.5883 24.74C21.5533 24.74 23.0833 23.465 23.0833 20.99L23.0833 17.99C23.0833 15.515 21.5533 14.24 19.5883 14.24C17.6233 14.24 16.0783 15.515 16.0783 17.99L16.0783 20.99ZM21.1483 20.975C21.1483 22.31 20.4733 22.865 19.5883 22.865C18.6883 22.865 18.0133 22.31 18.0133 20.975L18.0133 18.005C18.0133 16.67 18.6883 16.115 19.5883 16.115C20.4733 16.115 21.1483 16.67 21.1483 18.005L21.1483 20.975ZM14.465 14.48L12.71 14.48L9.83002 16.94L9.83002 19.28L12.44 17.12L12.53 17.12L12.53 24.5L14.465 24.5L14.465 14.48Z" fill="#FCFCFC"/>
</svg>
