<svg xmlns="http://www.w3.org/2000/svg" width="45" height="36" viewBox="0 0 45 36"><g fill="none" fill-rule="evenodd"><rect width="45" height="36"/><path fill="#FCFCFC" fill-rule="nonzero" d="M40.4971921,6 C42.4301887,6 43.9971921,7.56700338 43.9971921,9.5 L43.9971921,26.5 C43.9971921,28.4329966 42.4301887,30 40.4971921,30 L4.4982811,30 C2.56528447,30 0.998281096,28.4329966 0.998281096,26.5 L0.998281096,9.5 C0.998281096,7.56700338 2.56528447,6 4.4982811,6 L40.4971921,6 Z M9.4500621,12.009863 L6.9971633,12.009863 L6.9971633,18.6622235 C6.9971633,19.5720993 7.05390238,20.3017057 7.16738226,20.8510647 C7.28086212,21.4004237 7.47435696,21.886828 7.74787254,22.3102922 C8.48694658,23.443345 9.71192886,24.009863 11.4228562,24.009863 C12.6158497,24.009863 13.5498623,23.7580772 14.2249221,23.2544982 C14.9058013,22.7451966 15.3771722,22.0241738 15.6390488,21.091408 C15.7903552,20.5477716 15.8660074,19.7494963 15.8660074,18.6965583 L15.8660074,12.009863 L13.3083585,12.009863 L13.3083585,18.8253136 C13.3083585,19.7809693 13.2123385,20.4762414 13.0202956,20.9111505 C12.7467801,21.5463469 12.2317637,21.8639402 11.4752313,21.8639402 C10.7768935,21.8639402 10.2589676,21.6321829 9.92143768,21.1686613 C9.60718573,20.7280295 9.4500621,19.9497827 9.4500621,18.8338973 L9.4500621,12.009863 Z M20.446807,12.009863 L17.8891582,12.009863 L17.8891582,23.7266012 L20.446807,23.7266012 L20.446807,18.6107214 L24.2439991,18.6107214 L24.2439991,23.7266012 L26.801648,23.7266012 L26.801648,12.009863 L24.2439991,12.009863 L24.2439991,16.4647986 L20.446807,16.4647986 L20.446807,12.009863 Z M32.5555428,12.009863 L28.8805592,12.009863 L28.8805592,23.7266012 L32.5468136,23.7266012 C33.2742487,23.7266012 33.9085626,23.6607936 34.4497743,23.5291763 C35.2121262,23.3517791 35.8842662,22.968378 36.4662142,22.3789617 C37.5369987,21.3031337 38.0723829,19.7866968 38.0723829,17.8296055 C38.0723829,15.8267342 37.504992,14.3102973 36.3701933,13.2802493 C35.4448959,12.4333208 34.1733584,12.009863 32.5555428,12.009863 Z M32.609218,14.1557857 C33.6043492,14.1557857 34.3375927,14.4533507 34.8089707,15.0484896 C35.3443629,15.7180208 35.612055,16.642189 35.612055,17.8210218 C35.612055,19.2459216 35.294898,20.2873991 34.6605747,20.9454853 C34.2473915,21.3689495 33.5868904,21.5806784 32.6790514,21.5806784 L31.5355292,21.5806784 L31.5355292,14.1557857 L32.609218,14.1557857 Z"/></g></svg>