<svg width="37" height="36" viewBox="0 0 37 36" fill="none" xmlns="http://www.w3.org/2000/svg">
<path d="M25.8259 33.0699C25.0459 33.0699 24.2159 32.9599 23.3459 32.7499C19.9359 31.9099 15.5859 29.0399 11.4059 24.8599C7.66595 21.1199 4.71595 16.7199 3.50595 13.0899C2.71595 10.7099 2.97595 8.10991 4.18595 6.30991C5.31595 4.60991 7.40595 3.50991 10.3759 3.02991L11.1559 2.90991L16.2459 12.1199L13.4659 14.6699C13.0859 15.0499 12.9359 15.4299 14.3659 17.1699L14.5759 17.4299C15.1359 18.1199 15.9859 19.1599 17.4659 20.5199L17.7259 20.7599C19.7859 22.6599 20.7659 23.3299 21.5159 22.6199L24.1359 20.0799L33.1859 25.0899L33.0259 25.8999C32.4259 28.8899 31.3859 30.8599 29.8359 31.9099C28.6759 32.6999 27.3359 33.0899 25.8359 33.0899L25.8259 33.0699ZM9.96595 5.39991C8.05595 5.80991 6.74595 6.53991 6.05595 7.55991C5.23595 8.77991 5.07595 10.6699 5.64595 12.3799C6.73595 15.6499 9.54594 19.8199 12.9959 23.2599C16.8359 27.0999 20.9059 29.8299 23.8759 30.5599C25.7759 31.0299 27.3459 30.8499 28.5559 30.0199C29.4759 29.3999 30.1559 28.1499 30.6259 26.2299L24.4959 22.8299L23.0659 24.2099C20.6659 26.5099 18.0759 24.1299 16.1959 22.3899L15.9459 22.1599C14.3459 20.6899 13.4359 19.5699 12.8359 18.8299L12.6359 18.5799C11.7159 17.4599 9.80595 15.1399 11.9159 13.0299L13.4259 11.6499L9.96595 5.38991V5.39991Z" fill="#FCFCFC"/>
</svg>
