<svg xmlns="http://www.w3.org/2000/svg" width="36" height="36" viewBox="0 0 36 36"><g fill="none" fill-rule="evenodd"><rect width="36" height="36"/><path fill="#FCFCFC" d="M17.7500001,20.5 C18.9926407,20.5 20,19.4926407 20,18.25 C20,17.0073593 18.9926407,16 17.7500001,16 C16.5073594,16 15.5,17.0073593 15.5,18.25 C15.5,19.4926407 16.5073594,20.5 17.7500001,20.5 Z M28.2500001,20.5 C29.4926408,20.5 30.5000001,19.4926407 30.5000001,18.25 C30.5000001,17.0073593 29.4926408,16 28.2500001,16 C27.0073594,16 26.0000001,17.0073593 26.0000001,18.25 C26.0000001,19.4926407 27.0073594,20.5 28.2500001,20.5 Z M7.25000001,20.5 C8.4926407,20.5 9.5,19.4926407 9.5,18.25 C9.5,17.0073593 8.4926407,16 7.25000001,16 C6.00735932,16 5,17.0073593 5,18.25 C5,19.4926407 6.00735932,20.5 7.25000001,20.5 Z"/></g></svg>