<svg xmlns="http://www.w3.org/2000/svg" width="36" height="36" viewBox="0 0 36 36"><g fill="none" fill-rule="evenodd"><rect width="36" height="36" opacity=".3"/><path fill="#FCFCFC" d="M35.5,20.0250001 L35.5,27.5250001 C35.5,29.9116073 33.6170601,31.8797832 31.2633849,32.0173231 L31,32.0250001 L5.5,32.0250001 C3.11339287,32.0250001 1.14521684,30.1420601 1.00767698,27.788385 L1,27.5250001 L1,20.0250001 L35.5,20.0250001 Z M33.25,22.2750001 L3.25000001,22.2750001 L3.25000001,27.5250001 C3.25000001,28.7250001 4.11366783,29.6592561 5.27825159,29.7650164 L5.50000001,29.7750001 L31,29.7750001 C32.2000001,29.7750001 33.1342561,28.9113323 33.2400163,27.7467485 L33.25,27.5250001 L33.25,22.2750001 Z M28.7500001,24.5250001 L28.7500001,27.5250001 L25.7500001,27.5250001 L25.7500001,24.5250001 L28.7500001,24.5250001 Z M29.0500001,7.27500002 L30.6250001,8.85000002 C27.325,12.075 23.2000001,13.875 18.5500001,13.875 C14.0788462,13.875 9.88505921,12.2107989 6.70206107,9.21577011 L6.32500002,8.85000002 L7.90000003,7.27500002 C10.675,10.125 14.5000001,11.7 18.4750001,11.7 C22.2843751,11.7 25.8871095,10.2535157 28.6891114,7.62458769 L29.0500001,7.27500002 Z M24.7750001,3 L26.3500001,4.57500001 C24.2500001,6.67500002 21.4000001,7.87500002 18.4000001,7.87500002 C15.5500001,7.87500002 12.835375,6.79200002 10.77055,4.88321251 L10.45,4.57500001 L12.025,3 C13.7500001,4.72500001 16.0000001,5.62500001 18.4000001,5.62500001 C20.6588236,5.62500001 22.7847752,4.82776817 24.4652148,3.29583249 L24.7750001,3 Z"/></g></svg>