<svg xmlns="http://www.w3.org/2000/svg" width="56" height="36" viewBox="0 0 56 36"><g fill="none" fill-rule="evenodd"><rect width="36" height="36"/><path fill="#FCFCFC" d="M38,1.5 C47.1500001,1.5 54.5,8.85000003 54.5,18 C54.5,27.1500001 47.1500001,34.5 38,34.5 C37.8250735,34.5 37.6508049,34.4973137 37.477233,34.4919798 C43.179932,31.2216873 47,25.0786071 47,18 C47,10.920978 43.179484,4.77759248 37.4767037,1.50809532 C37.6501347,1.50269665 37.8247371,1.5 38,1.5 Z M28,1.5 C37.1500001,1.5 44.5,8.85000003 44.5,18 C44.5,27.1500001 37.1500001,34.5 28,34.5 C27.8250735,34.5 27.6508049,34.4973137 27.477233,34.4919798 C33.179932,31.2216873 37,25.0786071 37,18 C37,10.920978 33.179484,4.77759248 27.4767037,1.50809532 C27.6501347,1.50269665 27.8247371,1.5 28,1.5 Z M18,1.4999999 C27.1500001,1.4999999 34.5,8.84999993 34.5,17.9999999 C34.5,27.15 27.1500001,34.4999999 18,34.4999999 C8.85000003,34.4999999 1.5,27.15 1.5,17.9999999 C1.5,8.84999993 8.85000003,1.4999999 18,1.4999999 Z M18.0000001,9.40865254 C17.363604,9.40865254 16.8863069,9.88594962 16.8863069,10.5223457 L16.8863069,16.8863068 L10.5223458,16.8863068 L10.3529669,16.8979015 C9.80311304,16.9744029 9.40865264,17.4214581 9.40865264,18 C9.40865264,18.6363961 9.88594972,19.1136932 10.5223458,19.1136932 L16.8863069,19.1136932 L16.8863069,25.4776542 L16.8979016,25.6470331 C16.974403,26.196887 17.4214582,26.5913474 18.0000001,26.5913474 C18.6363962,26.5913474 19.1136933,26.1140503 19.1136933,25.4776542 L19.1136933,19.1136932 L25.4776543,19.1136932 L25.6470332,19.1020984 C26.1968871,19.025597 26.5913475,18.5785419 26.5913475,18 C26.5913475,17.3636039 26.1140504,16.8863068 25.4776543,16.8863068 L19.1136933,16.8863068 L19.1136933,10.5223457 L19.1020985,10.3529668 C19.0255971,9.80311294 18.578542,9.40865254 18.0000001,9.40865254 Z"/></g></svg>