<svg xmlns="http://www.w3.org/2000/svg" width="36" height="36" viewBox="0 0 36 36"><g fill="none" fill-rule="evenodd"><rect width="36" height="36"/><path fill="#52BAF2" d="M18,2 C9.163444,2 2,9.163444 2,18 C2,26.836556 9.163444,34 18,34 C26.836556,34 34,26.836556 34,18 C34,13.7565362 32.3142906,9.68687356 29.3137085,6.6862915 C26.3131264,3.68570945 22.2434638,2 18,2 Z M19.4545455,25.2727273 L16.5454545,25.2727273 L16.5454545,15.8181818 L19.4545455,15.8181818 L19.4545455,25.2727273 Z M18,13.6363636 C16.9958459,13.6363636 16.1818182,12.8223359 16.1818182,11.8181818 C16.1818182,10.8140277 16.9958459,10 18,10 C19.0041541,10 19.8181818,10.8140277 19.8181818,11.8181818 C19.8181818,12.8223359 19.0041541,13.6363636 18,13.6363636 L18,13.6363636 Z"/></g></svg>