<svg xmlns="http://www.w3.org/2000/svg" width="90" height="36" viewBox="0 0 90 36"><g fill="none" fill-rule="evenodd" transform="translate(.504)"><rect width="88.996" height="36"/><path fill="#FCFCFC" fill-rule="nonzero" d="M84.4955418,6 C86.4285385,6 87.9955418,7.56700338 87.9955418,9.5 L87.9955418,26.5 C87.9955418,28.4329966 86.4285385,30 84.4955418,30 L4.49382294,30 C2.56082632,30 0.993822943,28.4329966 0.993822943,26.5 L0.993822943,9.5 C0.993822943,7.56700338 2.56082632,6 4.49382294,6 L84.4955418,6 Z M84.4955418,8.25 L43.9955418,8.25 L43.9955418,27.75 L84.4955418,27.75 C85.1858978,27.75 85.7455418,27.1903559 85.7455418,26.5 L85.7455418,9.5 C85.7455418,8.80964406 85.1858978,8.25 84.4955418,8.25 Z M9.44560395,12.009863 L6.99270515,12.009863 L6.99270515,18.6622235 C6.99270515,19.5720993 7.04944423,20.3017057 7.1629241,20.8510647 C7.27640397,21.4004237 7.4698988,21.886828 7.74341439,22.3102922 C8.48248842,23.443345 9.70747071,24.009863 11.418398,24.009863 C12.6113915,24.009863 13.5454041,23.7580772 14.2204639,23.2544982 C14.9013431,22.7451966 15.372714,22.0241738 15.6345906,21.091408 C15.7858971,20.5477716 15.8615492,19.7494963 15.8615492,18.6965583 L15.8615492,12.009863 L13.3039003,12.009863 L13.3039003,18.8253136 C13.3039003,19.7809693 13.2078804,20.4762414 13.0158374,20.9111505 C12.7423219,21.5463469 12.2273056,21.8639402 11.4707731,21.8639402 C10.7724354,21.8639402 10.2545094,21.6321829 9.91697953,21.1686613 C9.60272757,20.7280295 9.44560395,19.9497827 9.44560395,18.8338973 L9.44560395,12.009863 Z M75.9751892,12 C78.2639681,12 79.8837193,13.3556613 79.8837193,15.7324702 C79.8837193,17.5282813 78.9506018,18.7430947 77.5245165,19.2184565 L80.0069613,23.7608023 L77.3660626,23.7608023 L75.1477076,19.4649404 L74.0033182,19.4649404 L74.0033182,23.7608023 L71.6265094,23.7608023 L71.6265094,12 L75.9751892,12 Z M52.5531907,12.009863 L52.5531907,16.4647986 L56.3503828,16.4647986 L56.3503828,12.009863 L58.9080317,12.009863 L58.9080317,23.7266012 L56.3503828,23.7266012 L56.3503828,18.6107214 L52.5531907,18.6107214 L52.5531907,23.7266012 L49.9955418,23.7266012 L49.9955418,12.009863 L52.5531907,12.009863 Z M64.6619265,12.009863 C66.2797421,12.009863 67.5512795,12.4333208 68.476577,13.2802493 C69.6113757,14.3102973 70.1787666,15.8267342 70.1787666,17.8296055 C70.1787666,19.7866968 69.6433823,21.3031337 68.5725979,22.3789617 C67.9906499,22.968378 67.3185099,23.3517791 66.556158,23.5291763 C66.0149463,23.6607936 65.3806324,23.7266012 64.6531973,23.7266012 L60.9869428,23.7266012 L60.9869428,12.009863 L64.6619265,12.009863 Z M20.4423488,12.009863 L17.8847,12.009863 L17.8847,23.7266012 L20.4423488,23.7266012 L20.4423488,18.6107214 L24.2395409,18.6107214 L24.2395409,23.7266012 L26.7971899,23.7266012 L26.7971899,12.009863 L24.2395409,12.009863 L24.2395409,16.4647986 L20.4423488,16.4647986 L20.4423488,12.009863 Z M32.5510846,12.009863 L28.876101,12.009863 L28.876101,23.7266012 L32.5423555,23.7266012 C33.2697905,23.7266012 33.9041045,23.6607936 34.4453162,23.5291763 C35.2076681,23.3517791 35.879808,22.968378 36.4617561,22.3789617 C37.5325405,21.3031337 38.0679247,19.7866968 38.0679247,17.8296055 C38.0679247,15.8267342 37.5005339,14.3102973 36.3657351,13.2802493 C35.4404377,12.4333208 34.1689002,12.009863 32.5510846,12.009863 Z M64.7156017,14.1557857 L63.6419128,14.1557857 L63.6419128,21.5806784 L64.7854351,21.5806784 C65.6932741,21.5806784 66.3537752,21.3689495 66.7669584,20.9454853 C67.4012817,20.2873991 67.7184387,19.2459216 67.7184387,17.8210218 C67.7184387,16.642189 67.4507466,15.7180208 66.9153544,15.0484896 C66.4439764,14.4533507 65.7107329,14.1557857 64.7156017,14.1557857 Z M32.6047599,14.1557857 C33.5998911,14.1557857 34.3331345,14.4533507 34.8045125,15.0484896 C35.3399048,15.7180208 35.6075968,16.642189 35.6075968,17.8210218 C35.6075968,19.2459216 35.2904399,20.2873991 34.6561165,20.9454853 C34.2429334,21.3689495 33.5824323,21.5806784 32.6745932,21.5806784 L31.531071,21.5806784 L31.531071,14.1557857 L32.6047599,14.1557857 Z M75.8695533,14.2007489 L74.0033182,14.2007489 L74.0033182,17.2465854 L75.8695533,17.2465854 C76.7850648,17.2465854 77.4188805,16.7007997 77.4188805,15.7324702 C77.4188805,14.7465347 76.7850648,14.2007489 75.8695533,14.2007489 Z"/></g></svg>