<svg xmlns="http://www.w3.org/2000/svg" width="37" height="36" viewBox="0 0 37 36"><g fill="none" fill-rule="evenodd" transform="translate(.121)"><rect width="36" height="36"/><path fill="#FCFCFC" d="M34.4989343,6.27775371 L34.4989343,25.0277537 C34.4989343,27.4143609 32.6159944,29.3825369 30.2623192,29.5200767 L29.9989343,29.5277537 L21.8239344,29.5277537 L22.1239344,29.8277538 C22.4648434,30.509572 23.1156698,30.9434562 23.8510193,31.0167094 L24.0739344,31.0277537 L27.8239344,31.0277537 L27.8239344,33.2777537 L8.32393434,33.2777537 L8.32393434,31.0277537 L12.0739344,31.0277537 C12.8239344,31.0277537 13.5119509,30.655853 13.9125895,30.0247485 L14.0239344,29.8277538 L14.1739344,29.5277537 L5.99893431,29.5277537 C3.61232717,29.5277537 1.64415115,27.6448137 1.50661129,25.2911386 L1.49893431,25.0277537 L1.49893431,6.27775371 L34.4989343,6.27775371 Z M32.2489343,8.52775372 L3.74893432,8.52775372 L3.74893432,25.0277537 C3.74893432,26.2277538 4.61260214,27.1620098 5.7771859,27.26777 L5.99893432,27.2777537 L29.9989343,27.2777537 C31.1989344,27.2777537 32.1331904,26.414086 32.2389506,25.2495022 L32.2489343,25.0277537 L32.2489343,8.52775372 Z"/><polyline stroke="#FFF" stroke-width="2.25" points="23.17 1.185 17.984 6.371 12.799 1.185"/></g></svg>