<svg xmlns="http://www.w3.org/2000/svg" width="36" height="37" viewBox="0 0 36 37"><g fill="none" fill-rule="evenodd" transform="translate(0 .139)"><rect width="36" height="36"/><path fill="#FCFCFC" fill-rule="nonzero" d="M35.25,4.61111111 L35.25,26.6111111 C35.25,29.0861112 33.2250001,31.1111111 30.75,31.1111111 L5.25,31.1111111 C2.77500001,31.1111111 0.75,29.0861112 0.75,26.6111111 L0.75,4.61111111 L35.25,4.61111111 Z M16.875,6.86111111 L3.00000001,6.86111111 L3.00000001,26.6111112 C3.00000001,27.8861112 3.97500001,28.8611111 5.25000002,28.8611111 L16.875,28.8611111 L16.875,6.86111111 Z M33,6.86111111 L19.125,6.86111111 L19.125,28.8611111 L30.7500001,28.8611111 C31.9718751,28.8611111 32.9182292,27.9656685 32.9949707,26.7688749 L33,26.6111112 L33,6.86111111 Z M8.9583023,17.7361111 L8.9583023,19.9861111 L4.9583023,19.9861111 L4.9583023,17.7361111 L8.9583023,17.7361111 Z M14.914969,17.7361111 L14.914969,19.9861111 L10.914969,19.9861111 L10.914969,17.7361111 L14.914969,17.7361111 Z M25.0816667,17.7361111 L25.0816667,19.9861111 L21.0816667,19.9861111 L21.0816667,17.7361111 L25.0816667,17.7361111 Z M31.0383333,17.7361111 L31.0383333,19.9861111 L27.0383333,19.9861111 L27.0383333,17.7361111 L31.0383333,17.7361111 Z M9.188898,9.24407504 L9.188898,10.3527217 L7.67226935,10.3527217 L7.67226935,15.1686828 L6.47493095,15.1686828 L6.47493095,10.3527217 L4.9583023,10.3527217 L4.9583023,9.24407504 L9.188898,9.24407504 Z M11.0514244,9.24407504 L12.3197162,13.385979 L12.3729312,13.385979 L13.641223,9.24407504 L14.8829073,9.24407504 L12.9494275,15.1686828 L11.7432199,15.1686828 L9.81860931,9.24407504 L11.0514244,9.24407504 Z"/></g></svg>