<svg xmlns="http://www.w3.org/2000/svg" width="36" height="36" viewBox="0 0 36 36"><g fill="none" fill-rule="evenodd"><rect width="36" height="36"/><path fill="#FCFCFC" d="M20.9999999,1.49999993 L21.7499999,5.62499995 C21.9625,6.68749993 23.0446759,7.14791662 23.9224409,6.69034203 L24.075,6.59999995 L27.525,4.19999994 L31.8000001,8.47499996 L29.4,11.925 C28.8333334,12.775 29.2701389,13.8925926 30.204964,14.2036908 L30.3750001,14.2499999 L34.4999999,14.9999999 L34.4999999,20.9999999 L30.3750001,21.7499999 C29.3124999,21.9625 28.8520834,23.0446759 29.309658,23.9224409 L29.4,24.075 L31.8000001,27.525 L27.525,31.8000001 L24.075,29.4 C23.225,28.8333334 22.1074074,29.2701389 21.7963091,30.204964 L21.7499999,30.3750001 L20.9999999,34.4999999 L14.9999999,34.4999999 L14.2499999,30.3750001 C14.0375,29.3833334 12.9553241,28.8599537 12.0775591,29.3103138 L11.925,29.4 L8.47499996,31.8000001 L4.19999994,27.525 L6.59999995,24.075 C7.16666662,23.225 6.72986106,22.1074074 5.79503596,21.7963091 L5.62499995,21.7499999 L1.49999993,20.9999999 L1.49999993,14.9999999 L5.62499995,14.2499999 C6.68749993,14.0375 7.14791662,12.9553241 6.69034203,12.0775591 L6.59999995,11.925 L4.19999994,8.47499996 L8.47499996,4.19999994 L11.925,6.59999995 C12.775,7.16666662 13.8925926,6.72986106 14.2036908,5.79503596 L14.2499999,5.62499995 L14.9999999,1.49999993 L20.9999999,1.49999993 Z M19.125,3.74999994 L16.875,3.74999994 L16.425,5.99999994 C16.125,7.79999996 14.55,9.07499996 12.7499999,9.07499996 C12.0937499,9.07499996 11.4374999,8.90273434 10.8817382,8.55820309 L8.69999996,7.04999995 L7.12499995,8.62499996 L8.47499996,10.575 C9.17142853,11.55 9.35051017,12.7836734 8.95219566,13.9157252 L8.84999996,14.175 C8.43214282,15.2892857 7.49693873,16.0802296 6.3446337,16.367684 L6.07499995,16.425 L3.74999994,16.875 L3.74999994,19.125 L6.07499995,19.4999999 C7.34999996,19.725 8.32499996,20.55 8.84999996,21.7499999 C9.33749996,22.8642857 9.24298466,24.1079082 8.62650324,25.1205722 L8.47499996,25.35 L7.12499995,27.3 L8.69999996,28.875 L10.65,27.525 C11.2499999,27.075 11.9999999,26.85 12.7499999,26.85 C14.4681818,26.85 15.9813533,28.0117252 16.3762866,29.6828701 L16.875,32.2499999 L19.125,32.2499999 L19.575,29.925 C19.875,28.125 21.45,26.85 23.2499999,26.85 C23.9062499,26.85 24.5624999,27.0222657 25.1182617,27.3667969 L27.3,28.875 L28.875,27.3 L27.525,25.35 C26.775,24.3 26.7,22.95 27.15,21.9 C27.5678572,20.7857143 28.5030613,19.9947704 29.6553663,19.707316 L29.925,19.65 L32.2499999,19.2 L32.2499999,16.95 L29.925,16.4999999 C28.65,16.275 27.675,15.45 27.15,14.2499999 C26.6625,13.1357143 26.7570153,11.8920918 27.3734968,10.8794278 L27.525,10.65 L28.875,8.69999996 L27.3,7.12499995 L25.35,8.47499996 C24.7499999,8.92499996 23.9999999,9.14999996 23.2499999,9.14999996 C21.5318182,9.14999996 20.0186467,7.98827475 19.6237134,6.31712993 L19.125,3.74999994 Z M18,13.5 C20.4852814,13.5 22.5,15.5147186 22.5,18 C22.5,20.4852814 20.4852814,22.5 18,22.5 C15.5147186,22.5 13.5,20.4852814 13.5,18 C13.5,15.5147186 15.5147186,13.5 18,13.5 Z"/></g></svg>