<svg xmlns="http://www.w3.org/2000/svg" width="36" height="36" viewBox="0 0 36 36"><g fill="none" fill-rule="evenodd"><rect width="36" height="36"/><path fill="#FCFCFC" d="M30.5,6 C32.4329966,6 34,7.56700338 34,9.5 L34,26.5 C34,28.4329966 32.4329966,30 30.5,30 L5.5,30 C3.56700338,30 2,28.4329966 2,26.5 L2,9.5 C2,7.56700338 3.56700338,6 5.5,6 L30.5,6 Z M16.466,11.976 L7.88,11.976 L7.88,14.226 L10.958,14.226 L10.958,24 L13.388,24 L13.388,14.226 L16.466,14.226 L16.466,11.976 Z M20.346,11.976 L17.844,11.976 L21.75,24 L24.198,24 L28.122,11.976 L25.602,11.976 L23.028,20.382 L22.92,20.382 L20.346,11.976 Z"/></g></svg>