<svg xmlns="http://www.w3.org/2000/svg" width="36" height="36" viewBox="0 0 36 36"><g fill="none" fill-rule="evenodd"><rect width="36" height="36"/><path fill="#FCFCFC" d="M5.5,6 L30.5,6 C32.4329966,6 34,7.56700338 34,9.5 L34,26.5 C34,28.4329966 32.4329966,30 30.5,30 L5.5,30 C3.56700338,30 2,28.4329966 2,26.5 L2,9.5 C2,7.56700338 3.56700338,6 5.5,6 Z M11.2509434,11.199635 C13.9875149,11.8064085 16.0730664,14.4288612 16.4156763,17.6940098 C16.6447136,19.8765648 16.0446005,22.0768639 14.7633134,23.7524814 C14.5331119,24.0535235 13.9769493,24.6224062 13.681317,24.8591873 C12.9473442,25.4470878 12.1153997,25.8443765 11.2334797,26.0281279 C10.9245457,26.0925046 10.8652854,26.0945019 8.97337785,26.1043726 L7.03053435,26.1145038 L7.03053435,11.1145038 L8.98793098,11.1231877 C10.9176767,11.1317558 10.9496353,11.1328269 11.2509434,11.199635 Z M28.9368065,18.6145038 L28.9368065,26.1145038 L26.984243,26.1043706 C25.0795862,26.094498 25.0239273,26.0926162 24.7152045,26.0279375 C22.3527623,25.5330331 20.456932,23.5175148 19.7667552,20.7670805 C19.4398279,19.4642432 19.4168907,18.0050655 19.7028505,16.7022282 C20.3402718,13.7983486 22.4652996,11.541487 24.9213487,11.1599873 C25.1170696,11.1295878 25.6167226,11.1196283 27.056829,11.117399 L28.9368065,11.1145038 L28.9368065,18.6145038 L28.9368065,18.6145038 Z"/></g></svg>