<svg xmlns="http://www.w3.org/2000/svg" width="36" height="36" viewBox="0 0 36 36"><g fill="none" fill-rule="evenodd"><rect width="36" height="36"/><path fill="#FCFCFC" d="M34.4999999,5.24999995 L34.4999999,23.9999999 C34.4999999,26.3866072 32.61706,28.3547831 30.2633848,28.492323 L29.9999999,28.4999999 L21.825,28.4999999 L22.125,28.8 C22.465909,29.4818182 23.1167355,29.9157024 23.8520849,29.9889556 L24.075,29.9999999 L27.825,29.9999999 L27.825,32.2499999 L8.32499996,32.2499999 L8.32499996,29.9999999 L12.075,29.9999999 C12.825,29.9999999 13.5130165,29.6280992 13.9136551,28.9969948 L14.025,28.8 L14.175,28.4999999 L5.99999993,28.4999999 C3.6133928,28.4999999 1.64521677,26.61706 1.50767691,24.2633848 L1.49999993,23.9999999 L1.49999993,5.24999995 L34.4999999,5.24999995 Z M32.2499999,7.49999996 L3.74999994,7.49999996 L3.74999994,24 C3.74999994,25.2 4.61366776,26.134256 5.77825152,26.2400162 L5.99999994,26.25 L29.9999999,26.25 C31.2,26.25 32.134256,25.3863322 32.2400162,24.2217484 L32.2499999,24 L32.2499999,7.49999996 Z"/></g></svg>