<svg xmlns="http://www.w3.org/2000/svg" width="56" height="36" viewBox="0 0 56 36"><g fill="none" fill-rule="evenodd"><rect width="36" height="36"/><path fill="#000" d="M38,1.5 C47.1500001,1.5 54.5,8.85000003 54.5,18 C54.5,27.1500001 47.1500001,34.5 38,34.5 C37.8250735,34.5 37.6508049,34.4973137 37.477233,34.4919798 C43.179932,31.2216873 47,25.0786071 47,18 C47,10.920978 43.179484,4.77759248 37.4767037,1.50809532 C37.6501347,1.50269665 37.8247371,1.5 38,1.5 Z"/><path fill="#000" d="M28,1.5 C37.1500001,1.5 44.5,8.85000003 44.5,18 C44.5,27.1500001 37.1500001,34.5 28,34.5 C27.8250735,34.5 27.6508049,34.4973137 27.477233,34.4919798 C33.179932,31.2216873 37,25.0786071 37,18 C37,10.920978 33.179484,4.77759248 27.4767037,1.50809532 C27.6501347,1.50269665 27.8247371,1.5 28,1.5 Z"/><path fill="#000" d="M18,1.4999999 C27.1500001,1.4999999 34.5,8.84999993 34.5,17.9999999 C34.5,27.15 27.1500001,34.4999999 18,34.4999999 C8.85000003,34.4999999 1.5,27.15 1.5,17.9999999 C1.5,8.84999993 8.85000003,1.4999999 18,1.4999999 Z M18,9.41506704 C17.0680195,9.41506704 16.3125,10.1705865 16.3125,11.102567 L16.312,16.3189999 L11.0950671,16.3199999 C10.2160624,16.3199999 9.49472868,16.9950702 9.42123374,17.8550431 L9.41506713,17.9999999 C9.41506713,18.9278383 10.1672288,19.6799999 11.0950671,19.6799999 L16.312,19.6789999 L16.3125,24.8974328 C16.3125,25.7803617 16.990584,26.5049156 17.854396,26.5787386 L18,26.5849328 C18.9319805,26.5849328 19.6875,25.8294133 19.6875,24.8974328 L19.687,19.6789999 L24.9049329,19.6799999 C25.7839376,19.6799999 26.5052713,19.0049296 26.5787663,18.1449567 L26.5849329,17.9999999 C26.5849329,17.0721615 25.8327712,16.3199999 24.9049329,16.3199999 L19.687,16.3189999 L19.6875,11.102567 C19.6875,10.2196381 19.009416,9.49508422 18.145604,9.42126117 Z"/></g></svg>