<svg xmlns="http://www.w3.org/2000/svg" width="36" height="36" viewBox="0 0 36 36"><g fill="none" fill-rule="evenodd"><rect width="36" height="36"/><path fill="#FCFCFC" fill-rule="nonzero" d="M3.56071924,17.8933312 C4.18148425,17.9195945 4.66342307,18.4441147 4.63715971,19.0648797 C4.62906093,19.2563038 4.625,19.4483237 4.625,19.6408609 C4.625,27.0276694 10.6131915,33.0158609 18,33.0158609 C20.5049201,33.0158609 22.8490081,32.3272565 24.8532926,31.1290192 L26.4869333,32.7622393 C24.043174,34.3461197 21.1289955,35.2658609 18,35.2658609 C9.37055078,35.2658609 2.375,28.2703101 2.375,19.6408609 C2.375,19.4166074 2.37973155,19.1928778 2.38917073,18.9697717 C2.41543409,18.3490066 2.93995422,17.8670678 3.56071924,17.8933312 Z M19.5963309,0.0563045638 L19.5963095,4.09640348 C27.4759132,4.89597997 33.625,11.5503223 33.625,19.6408609 C33.625,22.6982557 32.74687,25.5505523 31.2290636,27.959297 L29.5907419,26.3195736 C30.7256133,24.3542763 31.375,22.0734048 31.375,19.6408609 C31.375,12.7942976 26.2306887,7.14925265 19.596497,6.36015696 L19.5963309,10.3631241 L11.7079784,5.20971431 L19.5963309,0.0563045638 Z"/><rect width="38.974" height="2.25" x="-1.422" y="18.44" fill="#FCFCFC" rx="1.125" transform="rotate(-135 18.065 19.565)"/></g></svg>