<svg xmlns="http://www.w3.org/2000/svg" width="50.25" height="50.25" viewBox="0 0 50.25 50.25"><g fill="none" fill-rule="evenodd" transform="translate(1.125 1.125)"><circle cx="24" cy="24" r="24" stroke="#969696" stroke-width="2.25"/><g fill="#FCFCFC" fill-rule="nonzero" transform="translate(10.128 15.656)"><path d="M6.528,16.656 C10.728,16.656 13.056,13.464 13.056,8.328 C13.056,3.168 10.728,0 6.528,0 C2.352,0 0,3.168 0,8.328 C0,13.464 2.352,16.656 6.528,16.656 Z M6.528,14.616 C3.744,14.616 2.184,12.384 2.184,8.328 C2.184,4.248 3.744,2.04 6.528,2.04 C9.336,2.04 10.872,4.248 10.872,8.328 C10.872,12.384 9.336,14.616 6.528,14.616 Z"/><polygon points="20.448 9 25.248 16.344 27.696 16.344 21.72 7.248 27.6 .312 24.912 .312 19.008 7.416 18.864 7.416 18.864 .312 16.776 .312 16.776 16.344 18.864 16.344 18.864 10.704 20.304 9"/></g></g></svg>