<svg xmlns="http://www.w3.org/2000/svg" width="36" height="36" viewBox="0 0 36 36"><g fill="none" fill-rule="evenodd"><rect width="36" height="36"/><path fill="#FCFCFC" fill-rule="nonzero" d="M12.6475,7.49840206 C13.2688203,7.49840206 13.7725,8.00208172 13.7725,8.62340206 L13.7725,27.3765979 C13.7725,27.9979183 13.2688203,28.5015979 12.6475,28.5015979 C12.0261797,28.5015979 11.5225,27.9979183 11.5225,27.3765979 L11.5225,8.62340206 C11.5225,8.00208172 12.0261797,7.49840206 12.6475,7.49840206 Z M23.3525,7.49840206 C23.9738203,7.49840206 24.4775,8.00208172 24.4775,8.62340206 L24.4775,27.3765979 C24.4775,27.9979183 23.9738203,28.5015979 23.3525,28.5015979 C22.7311797,28.5015979 22.2275,27.9979183 22.2275,27.3765979 L22.2275,8.62340206 C22.2275,8.00208172 22.7311797,7.49840206 23.3525,7.49840206 Z"/></g></svg>