<svg xmlns="http://www.w3.org/2000/svg" xmlns:xlink="http://www.w3.org/1999/xlink" width="36" height="36" viewBox="0 0 36 36"><defs><path id="a" d="M-1.55431223e-15,0 L-1.55431223e-15,18.751 L0.007,19.013 C0.145,21.367 2.113,23.251 4.5,23.251 L4.5,23.251 L12.675,23.251 L12.524,23.55 L12.414,23.748 C12.013,24.378 11.325,24.75 10.575,24.75 L10.575,24.75 L6.825,24.75 L6.825,27 L26.325,27 L26.325,24.75 L22.575,24.75 L22.351,24.739 C21.616,24.666 20.965,24.233 20.624,23.55 L20.624,23.55 L20.325,23.251 L28.499,23.251 L28.763,23.243 C31.117,23.105 32.999,21.137 32.999,18.751 L32.999,18.751 L32.999,0 L-1.55431223e-15,0 Z M4.278,20.991 C3.113,20.885 2.25,19.95 2.25,18.751 L2.25,18.751 L2.25,2.25 L30.749,2.25 L30.749,18.751 L30.739,18.972 C30.634,20.137 29.7,21.001 28.499,21.001 L28.499,21.001 L4.5,21.001 L4.278,20.991 Z"/></defs><g fill="none" fill-rule="evenodd"><rect width="36" height="36"/><g transform="translate(1.5 5.25)"><mask id="b" fill="#fff"><use xlink:href="#a"/></mask><polygon fill="#FCFCFC" points="-.667 27.667 33.666 27.667 33.666 -.666 -.667 -.666" mask="url(#b)"/><polygon fill="#FCFCFC" points="7.985 6.601 14.982 6.601 14.982 8.435 12.474 8.435 12.474 16.4 10.493 16.4 10.493 8.435 7.985 8.435"/><polygon fill="#FCFCFC" points="25.014 6.601 21.816 16.4 19.821 16.4 16.638 6.601 18.677 6.601 20.774 13.451 20.862 13.451 22.96 6.601"/></g></g></svg>