<svg xmlns="http://www.w3.org/2000/svg" width="36" height="36" viewBox="0 0 36 36"><g fill="none" fill-rule="evenodd"><rect width="36" height="36"/><path fill="#FCFCFC" d="M35.3614518,13.8321786 C35.0066409,12.7407673 34.0378601,11.9804583 32.8924914,11.8970696 L23.9788904,11.2438579 L20.603282,2.96875296 L20.603282,2.96875296 C20.1699876,1.90677298 19.1480669,1.21922474 18.0002456,1.21922474 C16.8524243,1.21922474 15.8313211,1.90595544 15.3972092,2.96875296 L12.0216008,11.2446754 L3.10799984,11.8970696 C1.96344867,11.9812759 0.993850323,12.7407673 0.639039461,13.8321786 C0.284228599,14.9235899 0.621871193,16.1073828 1.49908791,16.8480709 L8.32633563,22.6157913 L6.19338277,31.2955768 C5.91950803,32.4098791 6.34299196,33.5658758 7.27007841,34.241161 C8.19879993,34.9164462 9.43000997,34.9614107 10.4053311,34.3564337 L18.0002456,29.6449705 L25.5959777,34.3564337 C26.0529806,34.6401189 26.5663936,34.7807753 27.0773539,34.7807753 C27.6578049,34.7807753 28.2366207,34.6000596 28.7295953,34.241161 C29.6574993,33.5666934 30.0801657,32.4106967 29.8062909,31.2963944 L27.6733381,22.6166088 L34.5005858,16.8488885 C35.3778025,16.1073828 35.7154451,14.9235899 35.3614518,13.8321786 Z M32.9186525,14.9742772 L24.9296854,21.7238589 L27.4256245,31.880933 C27.4738591,32.0738716 27.3773898,32.1915969 27.2890959,32.2561823 C27.1999844,32.3215852 27.0601856,32.3779952 26.8893205,32.2708979 L18.0010631,26.758249 L18.0010631,26.758249 L18.0010631,3.67183439 L18.0010631,3.67183439 C18.1114306,3.67183439 18.2569521,3.71025861 18.332983,3.89502187 L22.2833196,13.5795598 L32.7142684,14.3439565 C32.9129298,14.3586722 32.995501,14.4862079 33.02902,14.5908525 C33.062539,14.6946797 33.0707143,14.8459239 32.9186525,14.9742772 Z"/></g></svg>