<svg xmlns="http://www.w3.org/2000/svg" width="36" height="36" viewBox="0 0 36 36"><g fill="none" fill-rule="evenodd"><rect width="36" height="36"/><path fill="#FCFCFC" d="M30.5,6 C32.4329966,6 34,7.56700338 34,9.5 L34,26.5 C34,28.4329966 32.4329966,30 30.5,30 L5.5,30 C3.56700338,30 2,28.4329966 2,26.5 L2,9.5 C2,7.56700338 3.56700338,6 5.5,6 L30.5,6 Z M11.894534,12 C10.69306,12 9.75239379,12.3191043 9.07253533,12.9573128 C8.46300705,13.5339398 8.15824292,14.2813156 8.15824292,15.1994402 C8.15824292,16.2687194 8.59487615,17.1336599 9.46814262,17.7942617 C9.90770628,18.1245626 10.6197994,18.4548635 11.604422,18.7851645 C12.1612026,18.9755073 12.5260405,19.1084675 12.6989355,19.1840448 C12.8718306,19.2596221 13.04033,19.3617915 13.2044337,19.4905528 C13.5971106,19.7984605 13.793449,20.1735479 13.793449,20.6158153 C13.793449,21.0412876 13.6498582,21.3855843 13.3626766,21.6487054 C13.0754951,21.9118265 12.7004007,22.043387 12.2373937,22.043387 C11.6630305,22.043387 11.2234668,21.8194542 10.9187027,21.3715885 C10.7721815,21.153254 10.6637558,20.820154 10.5934256,20.3722883 L8,20.3722883 C8.09377358,21.1056683 8.33406838,21.7578726 8.7208844,22.3289013 C9.48279475,23.4429671 10.6403124,24 12.1934373,24 C13.4945457,24 14.5348464,23.6641008 15.3143393,22.9923023 C16.0645279,22.3428971 16.4396223,21.4975507 16.4396223,20.4562631 C16.4396223,19.4149755 16.0352237,18.5864241 15.2264266,17.9706088 C14.6696459,17.5507348 13.8842922,17.1840448 12.8703654,16.8705388 C11.9384904,16.5794262 11.3157752,16.3163051 11.0022198,16.0811756 C10.6886644,15.8460462 10.5318867,15.5269419 10.5318867,15.1238628 C10.5318867,14.759972 10.6505689,14.4758572 10.8879332,14.2715185 C11.1252976,14.0671798 11.4549704,13.9650105 11.8769515,13.9650105 C12.3516802,13.9650105 12.729705,14.0825752 13.0110257,14.3177047 C13.2454597,14.5192442 13.3919809,14.8411477 13.4505894,15.283415 L15.9648935,15.283415 C15.8125114,14.2253324 15.3846695,13.4135759 14.6813676,12.8481456 C13.9780658,12.2827152 13.0491212,12 11.894534,12 Z M22.4439153,12.2603219 L18.7427893,12.2603219 L18.7427893,23.7228831 L22.4351241,23.7228831 C23.1677302,23.7228831 23.8065627,23.6585024 24.3516216,23.5297411 C25.1193928,23.3561931 25.7963209,22.9811057 26.3824057,22.4044787 C27.4608019,21.3519944 28,19.8684395 28,17.9538139 C28,15.9944017 27.4285672,14.5108467 26.2857017,13.5031491 C25.3538268,12.6745976 24.0732313,12.2603219 22.4439153,12.2603219 Z M22.399959,14.3596921 C23.4021641,14.3596921 24.1406311,14.6508048 24.6153598,15.2330301 C25.1545579,15.8880336 25.424157,16.7921624 25.424157,17.9454164 C25.424157,19.3393982 25.1047407,20.3582925 24.4659082,21.0020994 C24.0497879,21.4163751 23.3845816,21.6235129 22.4702892,21.6235129 L21.3186324,21.6235129 L21.3186324,14.3596921 Z"/></g></svg>