<svg xmlns="http://www.w3.org/2000/svg" width="36" height="36" viewBox="0 0 36 36"><g fill="none" fill-rule="evenodd"><rect width="36" height="36"/><path fill="#FCFCFC" d="M31.7121492,7.46994851 L31.7121492,7.46994851 C29.7336921,4.36317428 25.968353,3.17017664 22.7122246,4.61844208 C19.8763994,5.86372021 19.0782928,8.07454006 18,10.3304787 C16.8707642,7.9482075 16.0386957,5.66519761 13.007589,4.49210952 C9.80265762,3.22915172 6.20070091,4.45923992 4.28785081,7.46994851 L4.28785081,7.46994851 C2.40258619,10.4112292 2.60433929,14.3300224 4.78029951,17.0351283 L16.0471862,31.0309715 C16.5311483,31.6451668 17.2462182,32 18,32 C18.7537818,32 19.4688517,31.6451668 19.9528138,31.0309715 L31.2197005,17.0351283 C33.3956607,14.3300224 33.5974138,10.4112292 31.7121492,7.46994851 Z"/></g></svg>