<svg xmlns="http://www.w3.org/2000/svg" width="36" height="36" viewBox="0 0 36 36"><g fill="none" fill-rule="evenodd"><rect width="36" height="36"/><path fill="#FCFCFC" d="M10.4999999,16.2500001 L10.4999999,10.25 C10.4999999,6.1078644 13.8578644,2.75000001 17.9999999,2.75000001 C22.1421356,2.75000001 25.4999999,6.1078644 25.4999999,10.25 L27.75,10.25 C27.75,4.86522371 23.3847763,0.5 17.9999999,0.5 C12.6152237,0.5 8.24999996,4.86522371 8.24999996,10.25 L8.24999996,16.2500001 L4.49999994,16.2500001 L4.49999994,30.5 C4.49999994,32.9852815 6.51471858,35 8.99999994,35 L26.9999999,35 C29.4852814,35 31.4999999,32.9852815 31.4999999,30.5 L31.4999999,16.2500001 L10.4999999,16.2500001 Z M19.5,26.1650001 L19.5,29.0000001 L16.5,29.0000001 L16.5,26.1650001 C15.8046677,25.543076 15.5652378,24.5565758 15.8981122,23.6850994 C16.2309866,22.813623 17.0671139,22.2379491 18,22.2379491 C18.9328861,22.2379491 19.7690134,22.813623 20.1018878,23.6850994 C20.4347622,24.5565758 20.1953323,25.543076 19.5,26.1650001 L19.5,26.1650001 Z"/></g></svg>