<svg xmlns="http://www.w3.org/2000/svg" width="36" height="36" viewBox="0 0 36 36"><g fill="none" fill-rule="evenodd"><rect width="36" height="36"/><path fill="#FFF" d="M12.75,19.5 C14.766,19.5 16.36728,21.02064 16.4921568,23.0002368 L16.5,23.25 L16.5,29.25 C16.5,31.2660001 14.97936,32.86728 12.9997632,32.9921568 L12.75,33 L6.74999997,33 C4.73399997,33 3.13271997,31.4793601 3.00784317,29.4997632 L2.99999997,29.25 L2.99999997,23.25 C2.99999997,21.234 4.52063997,19.63272 6.50023677,19.5078432 L6.74999997,19.5 L12.75,19.5 Z M29.25,19.5 C31.2660001,19.5 32.86728,21.02064 32.9921568,23.0002368 L33,23.25 L33,29.25 C33,31.2660001 31.4793601,32.86728 29.4997632,32.9921568 L29.25,33 L23.25,33 C21.234,33 19.63272,31.4793601 19.5078432,29.4997632 L19.5,29.25 L19.5,23.25 C19.5,21.234 21.02064,19.63272 23.0002368,19.5078432 L23.25,19.5 L29.25,19.5 Z M12.75,21.75 L6.74999998,21.75 C5.98392855,21.75 5.34719385,22.3320154 5.26014028,23.0757016 L5.24999998,23.25 L5.24999998,29.25 C5.24999998,30.0160715 5.83201528,30.6528062 6.57570151,30.7398597 L6.74999998,30.75 L12.75,30.75 C13.5160714,30.75 14.1528061,30.1679848 14.2398597,29.4242985 L14.25,29.25 L14.25,23.25 C14.25,22.4839286 13.6679847,21.8471939 12.9242985,21.7601403 L12.75,21.75 Z M29.25,21.75 L23.25,21.75 C22.4839286,21.75 21.8471939,22.3320154 21.7601403,23.0757016 L21.75,23.25 L21.75,29.25 C21.75,30.0160715 22.3320154,30.6528062 23.0757016,30.7398597 L23.25,30.75 L29.25,30.75 C30.0160715,30.75 30.6528062,30.1679848 30.7398597,29.4242985 L30.75,29.25 L30.75,23.25 C30.75,22.4839286 30.1679848,21.8471939 29.4242985,21.7601403 L29.25,21.75 Z M12.75,2.99999997 C14.766,2.99999997 16.36728,4.52063997 16.4921568,6.50023677 L16.5,6.74999997 L16.5,12.75 C16.5,14.766 14.97936,16.36728 12.9997632,16.4921568 L12.75,16.5 L6.74999997,16.5 C4.73399997,16.5 3.13271997,14.97936 3.00784317,12.9997632 L2.99999997,12.75 L2.99999997,6.74999997 C2.99999997,4.73399997 4.52063997,3.13271997 6.50023677,3.00784317 L6.74999997,2.99999997 L12.75,2.99999997 Z M29.25,2.99999997 C31.2660001,2.99999997 32.86728,4.52063997 32.9921568,6.50023677 L33,6.74999997 L33,12.75 C33,14.766 31.4793601,16.36728 29.4997632,16.4921568 L29.25,16.5 L23.25,16.5 C21.234,16.5 19.63272,14.97936 19.5078432,12.9997632 L19.5,12.75 L19.5,6.74999997 C19.5,4.73399997 21.02064,3.13271997 23.0002368,3.00784317 L23.25,2.99999997 L29.25,2.99999997 Z M12.75,5.24999998 L6.74999998,5.24999998 C5.98392855,5.24999998 5.34719385,5.83201528 5.26014028,6.57570151 L5.24999998,6.74999998 L5.24999998,12.75 C5.24999998,13.5160714 5.83201528,14.1528061 6.57570151,14.2398597 L6.74999998,14.25 L12.75,14.25 C13.5160714,14.25 14.1528061,13.6679847 14.2398597,12.9242985 L14.25,12.75 L14.25,6.74999998 C14.25,5.98392855 13.6679847,5.34719385 12.9242985,5.26014028 L12.75,5.24999998 Z M29.25,5.24999998 L23.25,5.24999998 C22.4839286,5.24999998 21.8471939,5.83201528 21.7601403,6.57570151 L21.75,6.74999998 L21.75,12.75 C21.75,13.5160714 22.3320154,14.1528061 23.0757016,14.2398597 L23.25,14.25 L29.25,14.25 C30.0160715,14.25 30.6528062,13.6679847 30.7398597,12.9242985 L30.75,12.75 L30.75,6.74999998 C30.75,5.98392855 30.1679848,5.34719385 29.4242985,5.26014028 L29.25,5.24999998 Z"/></g></svg>