<svg xmlns="http://www.w3.org/2000/svg" width="36" height="36" viewBox="0 0 36 36"><g fill="none" fill-rule="evenodd"><rect width="36" height="36"/><path fill="#FCFCFC" d="M17.999904,1.5 C21.6427612,1.5 24.5778632,4.33102041 24.7426096,7.93046064 L24.7499041,8.25 L24.7499041,10.5 L31.4249041,10.5 L32.7749041,29.7000001 C32.8499041,30.9000001 32.3999041,32.1750001 31.5749041,33.0750001 C30.8186541,33.9000001 29.7472999,34.4098959 28.591918,34.4891493 L28.2749041,34.5 L7.72490399,34.5 C6.44990399,34.5 5.24990398,33.9750001 4.42490398,33.0750001 C3.66865398,32.2500001 3.22750814,31.1729168 3.21700467,30.0170574 L3.22490397,29.7000001 L4.57490398,10.5 L11.249904,10.5 L11.249904,8.25 C11.249904,4.5 14.249904,1.5 17.999904,1.5 Z M29.3249041,12.75 L6.67490399,12.75 L5.47490398,29.7750001 C5.39990398,30.4500001 5.62490398,30.9750001 6.07490399,31.5 C6.46865399,31.9593751 6.97724774,32.1890626 7.50019696,32.2393067 L7.72490399,32.25 L28.2749041,32.25 C28.8749041,32.25 29.4749041,31.9500001 29.9249041,31.5 C30.2463327,31.1142858 30.4575571,30.6183675 30.5113472,30.1067057 L30.5249041,29.8500001 L29.3249041,12.75 Z M12.374904,14.6250001 C13.2033311,14.6250001 13.874904,15.2965729 13.874904,16.1250001 C13.874904,16.9534272 13.2033311,17.6250001 12.374904,17.6250001 C11.5464769,17.6250001 10.874904,16.9534272 10.874904,16.1250001 C10.874904,15.2965729 11.5464769,14.6250001 12.374904,14.6250001 Z M23.6249041,14.6250001 C24.4533312,14.6250001 25.1249041,15.2965729 25.1249041,16.1250001 C25.1249041,16.9534272 24.4533312,17.6250001 23.6249041,17.6250001 C22.7964769,17.6250001 22.1249041,16.9534272 22.1249041,16.1250001 C22.1249041,15.2965729 22.7964769,14.6250001 23.6249041,14.6250001 Z M17.999904,3.75000001 C15.6132969,3.75000001 13.6451209,5.63294007 13.507581,7.98661513 L13.499904,8.25000001 L13.499904,10.5 L22.499904,10.5 L22.499904,8.25000001 C22.499904,5.77500002 20.474904,3.75000001 17.999904,3.75000001 Z"/></g></svg>