<svg xmlns="http://www.w3.org/2000/svg" width="36" height="36" viewBox="0 0 36 36"><g fill="none" fill-rule="evenodd"><rect width="36" height="36"/><path fill="#FCFCFC" fill-rule="nonzero" d="M31.8505996,10.5095978 C33.1679346,11.0284364 34.1002317,12.3122839 34.1002317,13.8138812 L34.1002317,26.6965656 C34.1002317,28.6571765 32.5108426,30.2465656 30.5502318,30.2465656 L9.95233826,30.2465656 C8.45035659,30.2465656 7.16623609,29.313791 6.64765651,27.9959216 L30.5502318,27.9965656 C31.2682019,27.9965656 31.8502317,27.4145358 31.8502317,26.6965656 L31.8505996,10.5095978 Z M26.0476617,5.7534344 C28.0082726,5.7534344 29.5976617,7.34282352 29.5976617,9.30343435 L29.5976617,22.1861188 C29.5976617,24.1467297 28.0082726,25.7361188 26.0476617,25.7361188 L5.44976822,25.7361188 C3.48915739,25.7361188 1.89976827,24.1467297 1.89976827,22.1861188 L1.89976827,9.30343435 C1.89976827,7.34282352 3.48915739,5.7534344 5.44976822,5.7534344 Z M26.0476617,8.0034344 L5.44976822,8.0034344 C4.73179808,8.0034344 4.14976827,8.5854642 4.14976827,9.30343435 L4.14976827,22.1861188 C4.14976827,22.904089 4.73179808,23.4861188 5.44976822,23.4861188 L26.0476617,23.4861188 C26.7656319,23.4861188 27.3476617,22.904089 27.3476617,22.1861188 L27.3476617,9.30343435 C27.3476617,8.5854642 26.7656319,8.0034344 26.0476617,8.0034344 Z M20.1842553,10.9483861 C20.6235951,10.5090463 21.3359057,10.5090463 21.7752455,10.9483861 C22.183204,11.3563445 22.2123438,11.9996706 21.8626652,12.4412529 L21.7752455,12.5393763 L13.9297847,20.3848372 L9.13477668,15.5898292 C8.69543686,15.1504893 8.69543686,14.4381787 9.13477668,13.9988389 C9.5427351,13.5908805 10.1860612,13.5617406 10.6276435,13.9114192 L10.7257669,13.9988389 L13.9293383,17.2018812 L20.1842553,10.9483861 Z"/></g></svg>