<svg xmlns="http://www.w3.org/2000/svg" width="36" height="36" viewBox="0 0 36 36"><g fill="#FCFCFC"><path fill-opacity=".3" d="M32.5644761,0 C34.4618636,0 36,1.53535868 36,3.43552385 L36,32.5644761 C36,34.4618636 34.4646413,36 32.5644761,36 L3.43552385,36 C1.53813642,36 0,34.4646413 0,32.5644761 L0,3.43552385 C0,1.53813642 1.53535868,0 3.43552385,0 L32.5644761,0 Z M32.5644761,2.57142857 L3.43552385,2.57142857 C2.95680049,2.57142857 2.57142857,2.95701584 2.57142857,3.43552385 L2.57142857,32.5644761 C2.57142857,33.0431995 2.95701584,33.4285714 3.43552385,33.4285714 L32.5644761,33.4285714 C33.0431995,33.4285714 33.4285714,33.0429842 33.4285714,32.5644761 L33.4285714,3.43552385 C33.4285714,2.95680049 33.0429842,2.57142857 32.5644761,2.57142857 Z"/><path d="M26.1576101,11.0368131 C26.6597127,10.5347105 27.473782,10.5347105 27.9758846,11.0368131 C28.4779873,11.5389158 28.4779873,12.3529851 27.9758846,12.8550877 L14.9823715,25.8486008 L8.04290802,18.9091373 C7.54080536,18.4070346 7.54080536,17.5929654 8.04290802,17.0908627 C8.54501068,16.58876 9.35907994,16.58876 9.8611826,17.0908627 L14.982,22.2111429 L26.1576101,11.0368131 Z"/></g></svg>