<svg xmlns="http://www.w3.org/2000/svg" width="36" height="36" viewBox="0 0 36 36"><g fill="none" fill-rule="evenodd"><rect width="36" height="36"/><path fill="#FCFCFC" d="M30.4666667,6 L12.3333333,6 L1,19 L12.3333333,32 L30.4666667,32 C32.9703575,32 35,29.9457771 35,27.4117647 L35,10.5882353 C35,8.05422291 32.9703575,6 30.4666667,6 Z M27.4444444,22.7088235 C27.6656445,22.9236919 27.7906899,23.2205757 27.7906899,23.5308824 C27.7906899,23.841189 27.6656445,24.1380728 27.4444444,24.3529412 C27.0019646,24.8002228 26.2851465,24.8002228 25.8426667,24.3529412 L22.1555556,20.6211765 L18.4911111,24.3529412 C18.2777518,24.5748451 17.9848173,24.700023 17.6788889,24.700023 C17.3729605,24.700023 17.080026,24.5748451 16.8666667,24.3529412 C16.6525633,24.1388741 16.5320605,23.8469543 16.5320605,23.5423529 C16.5320605,23.2377516 16.6525633,22.9458318 16.8666667,22.7317647 L20.5537778,19 L16.8666667,15.2911765 C16.4180887,14.8371659 16.4180887,14.1010694 16.8666667,13.6470588 C17.3152446,13.1930483 18.0425332,13.1930483 18.4911111,13.6470588 L22.1555556,17.3788235 L25.82,13.6470588 C26.2685779,13.1930483 26.9958665,13.1930483 27.4444444,13.6470588 C27.8930224,14.1010694 27.8930224,14.8371659 27.4444444,15.2911765 L23.7573333,19 L27.4444444,22.7088235 Z"/></g></svg>