<svg xmlns="http://www.w3.org/2000/svg" width="36" height="36" viewBox="0 0 36 36"><g fill="none" fill-rule="evenodd"><rect width="36" height="36"/><path fill="#FDCA00" d="M18,1.5 C27.1500001,1.5 34.5,8.85000003 34.5,18 C34.5,27.1500001 27.1500001,34.5 18,34.5 C8.85000003,34.5 1.5,27.1500001 1.5,18 C1.5,8.85000003 8.92500003,1.5 18,1.5 Z M18,3.75000001 C10.125,3.75000001 3.75000001,10.125 3.75000001,18 C3.75000001,25.8750001 10.125,32.25 18,32.25 C25.8750001,32.25 32.25,25.8750001 32.25,18 C32.25,10.125 25.8750001,3.75000001 18,3.75000001 Z M18.0000001,6.00000002 C18.5500001,6.00000002 19.0369792,6.37812502 19.114323,6.96106773 L19.1250001,7.12500002 L19.1250001,17.3250001 L25.7250001,20.9250001 C26.3250001,21.2250001 26.4750001,21.9750001 26.1750001,22.5 C25.9500001,22.8750001 25.5750001,23.1000001 25.2000001,23.1000001 C25.0875001,23.1000001 24.9328126,23.0578126 24.7992188,23.0050782 L24.6750001,22.9500001 L16.8750001,18.6750001 L16.8750001,7.12500002 C16.8750001,6.52500002 17.4000001,6.00000002 18.0000001,6.00000002 Z"/></g></svg>