<svg xmlns="http://www.w3.org/2000/svg" width="36" height="36" viewBox="0 0 36 36"><g fill="none" fill-rule="evenodd"><rect width="36" height="36" opacity=".3"/><path fill="#000" d="M18,1.4999999 C27.1500001,1.4999999 34.5,8.84999993 34.5,17.9999999 C34.5,27.15 27.1500001,34.4999999 18,34.4999999 C8.85000003,34.4999999 1.5,27.15 1.5,17.9999999 C1.5,8.84999993 8.85000003,1.4999999 18,1.4999999 Z M18,9.41506704 C17.0680195,9.41506704 16.3125,10.1705865 16.3125,11.102567 L16.312,16.3189999 L11.0950671,16.3199999 C10.2160624,16.3199999 9.49472868,16.9950702 9.42123374,17.8550431 L9.41506713,17.9999999 C9.41506713,18.9278383 10.1672288,19.6799999 11.0950671,19.6799999 L16.312,19.6799999 L16.3125,24.8974328 C16.3125,25.7803617 16.990584,26.5049156 17.854396,26.5787386 L18,26.5849328 C18.9319805,26.5849328 19.6875,25.8294133 19.6875,24.8974328 L19.687,19.6799999 L24.9049329,19.6799999 C25.7839376,19.6799999 26.5052713,19.0049296 26.5787663,18.1449567 L26.5849329,17.9999999 C26.5849329,17.0721615 25.8327712,16.3199999 24.9049329,16.3199999 L19.687,16.3199999 L19.6875,11.102567 C19.6875,10.2196381 19.009416,9.49508422 18.145604,9.42126117 Z"/></g></svg>