<svg xmlns="http://www.w3.org/2000/svg" width="36" height="36" viewBox="0 0 36 36"><g fill="none" fill-rule="evenodd"><rect width="36" height="36"/><path fill="#FCFCFC" d="M23.8536586,1 L23.8536586,5.43478261 L31.9024391,5.43478261 C32.487805,5.43478261 33,5.95217393 33,6.54347828 C33,7.08550727 32.5696139,7.56542875 32.0470022,7.64165157 L31.9024391,7.65217391 L30.3658538,7.65217391 L29.1951221,30.7869566 C29.0542007,33.0645734 27.284854,34.8624143 25.0631671,34.9924634 L24.8048781,35 L11.2682927,35 C9.01355016,35 7.1659139,33.2865153 6.90146878,31.0475618 L6.8780488,30.7869566 L5.63414635,7.65217391 L4.09756098,7.65217391 C3.51219512,7.65217391 3,7.13478263 3,6.54347828 C3,6.0014493 3.43038618,5.52152778 3.95299797,5.44530495 L4.09756098,5.43478261 L12.1463415,5.43478261 L12.1463415,1 L23.8536586,1 Z M28.1707318,7.65217394 L7.82926831,7.65217394 L9.07317076,30.7130436 C9.14203733,31.8260871 9.98869106,32.6772379 11.0641057,32.7735219 L11.2682927,32.7826087 L24.7317074,32.7826087 C25.8335725,32.7826087 26.7409908,31.9969311 26.9049362,30.9185498 L26.9268294,30.7130436 L28.1707318,7.65217394 Z M18.0000001,11.7173913 C18.5365854,11.7173913 19.0116871,12.1521438 19.0871444,12.6800574 L19.097561,12.826087 L19.097561,27.6086958 C19.097561,28.2000001 18.5853659,28.7173913 18.0000001,28.7173913 C17.4634147,28.7173913 16.9883131,28.282639 16.9128557,27.7547254 L16.9024391,27.6086958 L16.9024391,12.826087 C16.9024391,12.2347827 17.4146342,11.7173913 18.0000001,11.7173913 Z M23.1219513,11.7173913 C23.6585367,11.7173913 24.1336383,12.1521438 24.2090956,12.6800574 L24.2195123,12.826087 L24.2195123,27.6086958 C24.2195123,28.2000001 23.7073172,28.7173913 23.1219513,28.7173913 C22.5853659,28.7173913 22.1102643,28.282639 22.034807,27.7547254 L22.0243903,27.6086958 L22.0243903,12.826087 C22.0243903,12.2347827 22.5365854,11.7173913 23.1219513,11.7173913 Z M12.8780488,11.7173913 C13.4146342,11.7173913 13.8897358,12.1521438 13.9651931,12.6800574 L13.9756098,12.826087 L13.9756098,27.6086958 C13.9756098,28.2000001 13.4634147,28.7173913 12.8780488,28.7173913 C12.3414635,28.7173913 11.8663618,28.282639 11.7909045,27.7547254 L11.7804878,27.6086958 L11.7804878,12.826087 C11.7804878,12.2347827 12.292683,11.7173913 12.8780488,11.7173913 Z M21.6585366,3.21739131 L14.3414635,3.21739131 L14.3414635,5.43478262 L21.6585366,5.43478262 L21.6585366,3.21739131 Z"/></g></svg>