<svg xmlns="http://www.w3.org/2000/svg" width="36" height="36" viewBox="0 0 36 36"><g fill="none" fill-rule="evenodd"><rect width="36" height="36"/><path fill="#FCFCFC" d="M12,3 L12,6 L24,6 L24,3 L26.25,3 L26.25,6 L33,6 L33,29.25 C33,31.6366073 31.1170601,33.6047832 28.7633849,33.742323 L28.5,33.75 L7.5,33.75 C5.11339287,33.75 3.14521684,31.8670601 3.00767698,29.5133849 L3,29.25 L3,6 L9.75,6 L9.75,3 L12,3 Z M30.75,12.75 L5.25000001,12.75 L5.25000001,29.25 C5.25000001,30.4500001 6.11366783,31.3842561 7.27825159,31.4900163 L7.50000001,31.5 L28.5,31.5 C29.7000001,31.5 30.6342561,30.6363323 30.7400163,29.4717485 L30.75,29.25 L30.75,12.75 Z M11.25,24.0000001 C12.0784272,24.0000001 12.75,24.671573 12.75,25.5000001 C12.75,26.3284272 12.0784272,27.0000001 11.25,27.0000001 C10.4215729,27.0000001 9.75000003,26.3284272 9.75000003,25.5000001 C9.75000003,24.671573 10.4215729,24.0000001 11.25,24.0000001 Z M18.0000001,24.0000001 C18.8284272,24.0000001 19.5000001,24.671573 19.5000001,25.5000001 C19.5000001,26.3284272 18.8284272,27.0000001 18.0000001,27.0000001 C17.1715729,27.0000001 16.5000001,26.3284272 16.5000001,25.5000001 C16.5000001,24.671573 17.1715729,24.0000001 18.0000001,24.0000001 Z M24.7500001,24.0000001 C25.5784272,24.0000001 26.2500001,24.671573 26.2500001,25.5000001 C26.2500001,26.3284272 25.5784272,27.0000001 24.7500001,27.0000001 C23.921573,27.0000001 23.2500001,26.3284272 23.2500001,25.5000001 C23.2500001,24.671573 23.921573,24.0000001 24.7500001,24.0000001 Z M11.25,17.2500001 C12.0784272,17.2500001 12.75,17.9215729 12.75,18.7500001 C12.75,19.5784272 12.0784272,20.2500001 11.25,20.2500001 C10.4215729,20.2500001 9.75000003,19.5784272 9.75000003,18.7500001 C9.75000003,17.9215729 10.4215729,17.2500001 11.25,17.2500001 Z M18.0000001,17.2500001 C18.8284272,17.2500001 19.5000001,17.9215729 19.5000001,18.7500001 C19.5000001,19.5784272 18.8284272,20.2500001 18.0000001,20.2500001 C17.1715729,20.2500001 16.5000001,19.5784272 16.5000001,18.7500001 C16.5000001,17.9215729 17.1715729,17.2500001 18.0000001,17.2500001 Z M24.7500001,17.2500001 C25.5784272,17.2500001 26.2500001,17.9215729 26.2500001,18.7500001 C26.2500001,19.5784272 25.5784272,20.2500001 24.7500001,20.2500001 C23.921573,20.2500001 23.2500001,19.5784272 23.2500001,18.7500001 C23.2500001,17.9215729 23.921573,17.2500001 24.7500001,17.2500001 Z"/></g></svg>