<svg width="36" height="36" viewBox="0 0 36 36" fill="none" xmlns="http://www.w3.org/2000/svg">
<path fill-rule="evenodd" clip-rule="evenodd" d="M6.32529 10.0238L10.5801 1.61663L12.6001 5.11546C19.8239 1.86813 28.4763 4.55641 32.5216 11.563C36.8363 19.0363 34.2757 28.5924 26.8024 32.9072C19.3291 37.2219 9.77299 34.6613 5.45826 27.188C5.34614 26.9938 5.23837 26.7977 5.13499 26.5998C4.84735 26.049 5.06063 25.3694 5.61136 25.0818C6.16209 24.7941 6.84172 25.0074 7.12936 25.5581C7.21806 25.728 7.31055 25.8963 7.40682 26.063C11.1002 32.4602 19.2802 34.652 25.6774 30.9586C32.0746 27.2652 34.2664 19.0852 30.573 12.688C27.1497 6.75867 19.872 4.44209 13.732 7.07591L15.7335 10.5426L6.32529 10.0238ZM16.465 14.48L14.71 14.48L11.83 16.94L11.83 19.28L14.44 17.12L14.53 17.12L14.53 24.5L16.465 24.5L16.465 14.48ZM18.0783 20.99C18.0783 23.465 19.6233 24.74 21.5883 24.74C23.5533 24.74 25.0833 23.465 25.0833 20.99L25.0833 17.99C25.0833 15.515 23.5533 14.24 21.5883 14.24C19.6233 14.24 18.0783 15.515 18.0783 17.99L18.0783 20.99ZM23.1483 20.975C23.1483 22.31 22.4733 22.865 21.5883 22.865C20.6883 22.865 20.0133 22.31 20.0133 20.975L20.0133 18.005C20.0133 16.67 20.6883 16.115 21.5883 16.115C22.4733 16.115 23.1483 16.67 23.1483 18.005L23.1483 20.975Z" fill="#FCFCFC"/>
</svg>
