<svg xmlns="http://www.w3.org/2000/svg" width="36" height="36" viewBox="0 0 36 36"><g fill="none" fill-rule="evenodd"><rect width="36" height="36"/><path fill="#FCFCFC" d="M18.25,1 L32.5,4.15000001 L32.5,16.1500001 C32.5,20.7250001 30.8500001,25.0750001 28,28.4500001 C25.2892858,31.7767857 22.1737246,33.3829719 19.7341131,34.2662172 L19.1137368,34.4808856 L19.1137368,34.4808856 L18.5282913,34.666691 C18.4338648,34.6954719 18.3410714,34.7232143 18.25,34.75 L17.8491923,34.6443464 L17.8491923,34.6443464 L17.5052905,34.5446094 L17.5052905,34.5446094 L16.8864138,34.3442901 C16.7361508,34.2924493 16.5777987,34.2354997 16.4121588,34.1729903 L15.8941773,33.9683321 C14.0103306,33.1904959 11.4113637,31.75 9.02500002,29.1250001 C5.99615385,25.8076924 4.14611686,21.450259 4.00828687,16.7861218 L4,16.2250001 L4,4.22500001 L18.25,1 Z M18.25,3.25000001 L6.25000001,6.02500002 L6.25000001,16.2250001 C6.25000001,23.6500001 11.2,30.25 18.25,32.4250001 C25.1590001,30.2935 30.05116,23.9122301 30.2440828,16.6694813 L30.25,16.2250001 L30.25,6.02500002 L18.25,3.25000001 Z M23.2000001,12.925 C23.6500001,12.475 24.3250001,12.475 24.7750001,12.925 C25.184091,13.334091 25.2212811,13.9291323 24.8865703,14.3720324 L24.7750001,14.5000001 L17.2000001,22.0750001 L12.475,17.3500001 C12.025,16.9000001 12.025,16.2250001 12.475,15.7750001 C12.8840909,15.3659092 13.4791323,15.3287191 13.9220323,15.6634298 L14.05,15.7750001 L17.2750001,18.8500001 L23.2000001,12.925 Z"/></g></svg>