<svg xmlns="http://www.w3.org/2000/svg" width="36" height="36" viewBox="0 0 36 36"><g fill="none" fill-rule="evenodd"><rect width="36" height="36"/><path fill="#FCFCFC" fill-rule="nonzero" d="M31.1908305,3.38387785 L32.4978667,8.26180327 L11.0834788,13.9996623 L33,14 L33,29.5 C33,31.9852814 30.9852814,34 28.5,34 L7.5,34 C5.01471863,34 3,31.9852814 3,29.5 L2.99947883,16.0016623 L1.73370416,11.2768911 C1.41208508,10.0765923 2.12439568,8.84283417 3.32469441,8.52121509 L28.4351545,1.79288759 C29.6354532,1.47126851 30.8692114,2.18357911 31.1908305,3.38387785 Z M30.7484788,21.2496623 L5.24847883,21.2496623 L5.25,29.5 C5.25,30.690864 6.17516159,31.6656449 7.34595119,31.7448092 L7.5,31.75 L28.5,31.75 C29.7426407,31.75 30.75,30.7426407 30.75,29.5 L30.7484788,21.2496623 Z M15.6664788,16.2486623 L9.00047883,16.2486623 L6.79947883,18.9996623 L13.4654788,18.9996623 L15.6664788,16.2486623 Z M29.0004788,16.2486623 L22.3334788,16.2486623 L20.1324788,18.9996623 L26.7994788,18.9996623 L29.0004788,16.2486623 Z M14.3944788,7.88366226 L7.95447883,9.60866226 L6.51547883,12.8936623 L12.9554788,11.1686623 L14.3944788,7.88366226 Z M27.2734788,4.43266226 L20.8334788,6.15766226 L19.3944788,9.44266226 L25.8344788,7.71766226 L27.2734788,4.43266226 Z"/></g></svg>