<svg xmlns="http://www.w3.org/2000/svg" width="36" height="36" viewBox="0 0 36 36"><g fill="none" fill-rule="evenodd"><rect width="36" height="36"/><path fill="#FCFCFC" d="M34.4999999,5.24999995 L34.4999999,23.9999999 C34.4999999,26.3866072 32.61706,28.3547831 30.2633848,28.492323 L29.9999999,28.4999999 L21.825,28.4999999 L22.125,28.8 C22.465909,29.4818182 23.1167355,29.9157024 23.8520849,29.9889556 L24.075,29.9999999 L27.825,29.9999999 L27.825,32.2499999 L8.32499996,32.2499999 L8.32499996,29.9999999 L12.075,29.9999999 C12.825,29.9999999 13.5130165,29.6280992 13.9136551,28.9969948 L14.025,28.8 L14.175,28.4999999 L5.99999993,28.4999999 C3.6133928,28.4999999 1.64521677,26.61706 1.50767691,24.2633848 L1.49999993,23.9999999 L1.49999993,5.24999995 L34.4999999,5.24999995 Z M32.2499999,7.49999996 L3.74999994,7.49999996 L3.74999994,24 C3.74999994,25.2 4.61366776,26.134256 5.77825152,26.2400162 L5.99999994,26.25 L29.9999999,26.25 C31.2,26.25 32.134256,25.3863322 32.2400162,24.2217484 L32.2499999,24 L32.2499999,7.49999996 Z"/><path fill="#FCFCFC" d="M23.4672897,12.75 C25.5781423,12.75 27.25,14.3961022 27.25,16.5 L27.2450571,16.6933618 C27.1433024,18.6784922 25.4828572,20.25 23.411215,20.25 L12.5327103,20.25 C10.440988,20.25 8.75,18.566355 8.75,16.5 C8.75,14.433645 10.440988,12.75 12.5327103,12.75 C14.6244326,12.75 16.3154206,14.433645 16.3154206,16.5 C16.3154206,17.1529648 16.1587421,17.7793354 15.8637039,18.3302959 L15.76,18.508 L20.239,18.508 L20.1362961,18.3302959 C19.8781377,17.8482055 19.7259109,17.3083791 19.691888,16.7435198 L19.6845794,16.5 C19.6845794,14.433645 21.3755674,12.75 23.4672897,12.75 Z M12.5,14.25 C11.2630712,14.25 10.25,15.2630712 10.25,16.5 L10.2552193,16.6533931 C10.3348112,17.8195926 11.3146099,18.75 12.5,18.75 C13.7369288,18.75 14.75,17.7369288 14.75,16.5 C14.75,15.2630712 13.7369288,14.25 12.5,14.25 Z M23.5,14.25 C22.2630712,14.25 21.25,15.2630712 21.25,16.5 C21.25,17.7369288 22.2630712,18.75 23.5,18.75 L23.6533931,18.7447807 C24.7688883,18.6686493 25.6686493,17.7688883 25.7447807,16.6533931 L25.75,16.5 C25.75,15.2630712 24.7369288,14.25 23.5,14.25 Z"/></g></svg>