<svg xmlns="http://www.w3.org/2000/svg" width="36" height="36" viewBox="0 0 36 36"><g fill="none" fill-rule="evenodd"><rect width="36" height="36"/><path fill="#FCFCFC" fill-rule="nonzero" d="M29.2045049,5.20450487 C29.6438447,4.76516504 30.3561553,4.76516504 30.7954951,5.20450487 C31.234835,5.6438447 31.234835,6.3561553 30.7954951,6.79549513 L6.79549513,30.7954951 C6.3561553,31.234835 5.6438447,31.234835 5.20450487,30.7954951 C4.76516504,30.3561553 4.76516504,29.6438447 5.20450487,29.2045049 L29.2045049,5.20450487 Z M5.20450487,5.20450487 C5.6438447,4.76516504 6.3561553,4.76516504 6.79549513,5.20450487 L30.7954951,29.2045049 C31.234835,29.6438447 31.234835,30.3561553 30.7954951,30.7954951 C30.3561553,31.234835 29.6438447,31.234835 29.2045049,30.7954951 L5.20450487,6.79549513 C4.76516504,6.3561553 4.76516504,5.6438447 5.20450487,5.20450487 Z"/></g></svg>