<svg xmlns="http://www.w3.org/2000/svg" width="36" height="36" viewBox="0 0 36 36"><g fill="none" fill-rule="evenodd"><rect width="36" height="36"/><path fill="#FCFCFC" d="M30.5,6 C32.4329966,6 34,7.56700338 34,9.5 L34,26.5 C34,28.4329966 32.4329966,30 30.5,30 L5.5,30 C3.56700338,30 2,28.4329966 2,26.5 L2,9.5 C2,7.56700338 3.56700338,6 5.5,6 L30.5,6 Z M10.4839006,12 L8,12 L8,19.4385965 C8,22.3684211 9.6375345,24 12.5630175,24 C15.4885005,24 17.126035,22.3684211 17.126035,19.4385965 L17.126035,12 L14.6605336,12 L14.6605336,19.122807 C14.6605336,20.9473684 14.0717571,21.7192982 12.5630175,21.7192982 C11.0542778,21.7192982 10.4839006,20.9473684 10.4839006,19.122807 L10.4839006,12 Z M28,12 L19.2235511,12 L19.2235511,14.1929825 L22.3698252,14.1929825 L22.3698252,23.7192982 L24.8537259,23.7192982 L24.8537259,14.1929825 L28,14.1929825 L28,12 Z"/></g></svg>