<svg xmlns="http://www.w3.org/2000/svg" width="36" height="36" viewBox="0 0 36 36"><g fill="none" fill-rule="evenodd"><rect width="36" height="36"/><path fill="#FCFCFC" fill-rule="nonzero" d="M4.43444905,7.24749516 C6.3805506,4.39929367 9.88278091,3.26072566 13.007589,4.49210952 C16.0386957,5.66519761 16.8707642,7.9482075 18,10.3304787 L18.5640521,9.13149745 C19.4283092,7.3157505 20.3827967,5.64134911 22.7122246,4.61844208 C25.968353,3.17017664 29.7336921,4.36317428 31.7121492,7.46994851 L31.8686349,7.72440108 C33.5842735,10.6341694 33.3334904,14.4073111 31.2197005,17.0351283 L19.9528138,31.0309715 C19.4688517,31.6451668 18.7537818,32 18,32 C17.2462182,32 16.5311483,31.6451668 16.0471862,31.0309715 L4.78029951,17.0351283 C2.60433929,14.3300224 2.40258619,10.4112292 4.28785081,7.46994851 L4.43444905,7.24749516 Z M12.1826776,6.58543728 C10.1245304,5.77438935 7.81660866,6.4694686 6.43208548,8.32118046 L6.299,8.506 L6.18212911,8.68411889 C4.86469585,10.7395019 4.95662827,13.47844 6.37582526,15.4193736 L6.53295716,15.6242097 L17.8144716,29.6384191 C17.8762737,29.716852 17.9430745,29.75 18,29.75 C18.0569255,29.75 18.1237263,29.716852 18.2001562,29.620053 L29.4665064,15.6248764 C30.986583,13.7351506 31.1760583,10.9797627 29.9520658,8.90307108 L29.8143035,8.67853526 C28.4270747,6.50016771 25.8522117,5.68435661 23.6168738,6.67856583 C22.2003597,7.30059079 21.567315,8.06562146 20.549952,10.1962243 L20.0300241,11.300789 L17.9915424,15.5655763 L15.6139118,10.5395047 L15.566161,10.436975 C14.4382238,8.01962521 13.7792379,7.2033775 12.1826776,6.58543728 Z"/></g></svg>