<svg xmlns="http://www.w3.org/2000/svg" width="36" height="36" viewBox="0 0 36 36"><g fill="none" fill-rule="evenodd"><rect width="36" height="36" opacity=".3"/><path fill="#FCFCFC" fill-rule="nonzero" d="M32.1000001,29.4 L24.75,22.05 C26.175,20.1 27.075,17.625 27.075,14.9999999 C27.075,8.39999996 21.675,2.99999994 15.075,2.99999994 C8.47499996,2.99999994 2.99999994,8.39999996 2.99999994,14.9999999 C2.99999994,21.6 8.39999996,26.9999999 14.9999999,26.9999999 C17.625,26.9999999 20.1,26.175 22.05,24.675 L29.4,32.0250001 C30.1500001,32.7750001 31.3500001,32.7750001 32.0250001,32.0250001 C32.7750001,31.3500001 32.7750001,30.1500001 32.1000001,29.4 Z M5.24999995,15 C5.24999995,9.59999996 9.59999997,5.24999995 15,5.24999995 C20.4,5.24999995 24.7499999,9.59999996 24.7499999,15 C24.7499999,20.4 20.4,24.7499999 15,24.7499999 C9.59999997,24.7499999 5.24999995,20.4 5.24999995,15 Z"/></g></svg>