<svg width="36" height="36" viewBox="0 0 36 36" fill="none" xmlns="http://www.w3.org/2000/svg">
<path fill-rule="evenodd" clip-rule="evenodd" d="M32.0782 2.33218C32.5211 1.88927 33.2268 1.88927 33.6697 2.33218C34.0723 2.728 34.1089 3.35337 33.7795 3.79656L33.6697 3.92364L27.4315 10.1619L31.6428 14.3732L18.9862 17.0157L21.6286 4.35904L25.84 8.57041L32.0782 2.33218ZM17.0157 18.9862L14.3732 31.6428L10.1619 27.4315L3.92364 33.6697C3.70594 33.8874 3.41317 34 3.12791 34C2.84265 34 2.54988 33.8874 2.33218 33.6697C1.92954 33.2739 1.89293 32.6485 2.22237 32.2053L2.33218 32.0782L8.57041 25.84L4.35904 21.6286L17.0157 18.9862Z" fill="#FCFCFC"/>
</svg>
