<svg xmlns="http://www.w3.org/2000/svg" width="62.064" height="33" viewBox="0 0 62.064 33"><g fill="none" fill-rule="evenodd" transform="translate(-1.5 -1.5)"><rect width="65" height="36"/><path fill="#FCFCFC" d="M34.0639,2.5 C33.1859,2.5 32.3309,2.59 31.4939,2.73 C35.7789,6.491 38.5019,11.991 38.5019,18.127 C38.5019,24.147 35.8779,29.552 31.7319,33.306 C32.4949,33.421 33.2689,33.5 34.0639,33.5 C42.6239,33.5 49.5639,26.56 49.5639,18 C49.5639,9.44 42.6239,2.5 34.0639,2.5"/><path fill="#FCFCFC" d="M34.5 18C34.5 27.113 27.113 34.5 18 34.5 8.887 34.5 1.5 27.113 1.5 18 1.5 8.887 8.887 1.5 18 1.5 27.113 1.5 34.5 8.887 34.5 18M49.0639 3.3732C48.3249 3.3732 47.6059 3.4462 46.8969 3.5522 50.8299 7.0812 53.3229 12.1852 53.3229 17.8732 53.3229 23.5612 50.8299 28.6652 46.8969 32.1942 47.6059 32.3002 48.3249 32.3732 49.0639 32.3732 57.0719 32.3732 63.5639 25.8812 63.5639 17.8732 63.5639 9.8652 57.0719 3.3732 49.0639 3.3732"/></g></svg>