<?xml version="1.0" encoding="UTF-8"?>
<svg width="448px" height="448px" viewBox="0 0 448 448" version="1.1" xmlns="http://www.w3.org/2000/svg" xmlns:xlink="http://www.w3.org/1999/xlink">
    <title>A_Assets_PINKeypad</title>
    <defs>
        <polygon id="path-1" points="226.636637 75 226.636637 42.936 222.172637 42.936 212.620637 50.856 212.620637 56.808 221.404637 49.656 221.692637 49.656 221.692637 75"></polygon>
        <path d="M222.970618,406.672 C229.402618,406.672 233.770618,402.592 233.770618,396.448 C233.770618,391.168 230.554618,387.664 225.370618,386.848 L225.370618,386.656 L233.050618,379.696 L233.050618,373.936 L213.274618,373.936 L213.274618,378.544 L227.482618,378.544 L227.482618,378.832 L219.178618,386.56 L219.178618,391.024 L222.538618,391.024 C226.426618,391.024 228.682618,393.232 228.682618,396.496 C228.682618,399.76 226.282618,401.968 222.970618,401.968 C220.138618,401.968 218.026618,400.336 217.642618,397.744 L212.506618,397.744 C212.890618,402.592 216.346618,406.672 222.970618,406.672 Z" id="path-2"></path>
        <path d="M397.139154,239 L397.139154,234.392 L383.507154,234.392 L383.507154,234.104 L392.195154,226.136 C395.027154,223.544 397.187154,220.616 397.187154,216.152 C397.187154,210.344 393.107154,206.264 387.203154,206.264 C380.867154,206.264 377.411154,210.344 376.979154,215.528 L382.067154,215.528 C382.451154,212.6 384.227154,210.968 387.203154,210.968 C390.131154,210.968 392.099154,213.272 392.099154,216.152 C392.099154,219.176 390.467154,221.048 388.739154,222.728 L377.651154,233.24 L377.651154,239 L397.139154,239 Z" id="path-3"></path>
        <path d="M65.676,239 L65.676,232.088 L69.228,232.088 L69.228,227.48 L65.676,227.48 L65.676,206.936 L61.02,206.936 L46.14,226.136 L46.14,232.088 L60.732,232.088 L60.732,239 L65.676,239 Z M60.732,227.48 L50.892,227.48 L50.892,227.24 L60.444,215.144 L60.732,215.144 L60.732,227.48 Z" id="path-4"></path>
        <path d="M196.228,239.672 C202.612,239.672 206.884,235.208 206.884,229.064 C206.884,222.632 202.612,218.504 195.892,218.504 L192.388,218.504 L193.108,211.544 L206.5,211.544 L206.5,206.936 L188.692,206.936 L186.964,223.208 L195.556,223.208 C199.444,223.208 201.796,225.512 201.796,229.064 C201.796,232.568 199.54,234.92 196.228,234.92 C193.204,234.92 191.14,233.144 190.756,229.928 L185.668,229.928 C186.148,235.736 190.132,239.672 196.228,239.672 Z M234.148,228.632 L234.148,224.456 L212.26,224.456 L212.26,228.632 L234.148,228.632 Z M250.564,239.672 C257.14,239.672 261.22,235.784 261.22,230.408 C261.22,226.808 259.492,223.88 256.228,222.632 L256.228,222.44 C259.204,221.192 260.74,218.264 260.74,215.048 C260.74,210.104 256.708,206.264 250.564,206.264 C244.372,206.264 240.34,210.104 240.34,215.048 C240.34,218.264 241.876,221.192 244.852,222.44 L244.852,222.632 C241.588,223.88 239.86,226.808 239.86,230.408 C239.86,235.784 243.94,239.672 250.564,239.672 Z M250.564,220.28 C247.588,220.28 245.38,218.552 245.38,215.624 C245.38,212.744 247.588,210.968 250.564,210.968 C253.492,210.968 255.748,212.744 255.748,215.624 C255.748,218.552 253.492,220.28 250.564,220.28 Z M250.564,234.92 C247.396,234.92 244.948,233.096 244.948,229.928 C244.948,226.76 247.396,224.936 250.564,224.936 C253.684,224.936 256.132,226.76 256.132,229.928 C256.132,233.096 253.684,234.92 250.564,234.92 Z" id="path-5"></path>
    </defs>
    <g id="Page-1" stroke="none" stroke-width="1" fill="none" fill-rule="evenodd">
        <g id="A_Assets_PINKeypad" transform="translate(-72.000000, -268.000000)">
            <g transform="translate(72.000000, 268.000000)">
                <path d="M224,1.5 C285.441678,1.5 341.066678,26.4041608 381.331259,66.6687412 C421.595839,106.933322 446.5,162.558322 446.5,224 C446.5,285.441678 421.595839,341.066678 381.331259,381.331259 C341.066678,421.595839 285.441678,446.5 224,446.5 C162.558322,446.5 106.933322,421.595839 66.6687412,381.331259 C26.4041608,341.066678 1.5,285.441678 1.5,224 C1.5,162.558322 26.4041608,106.933322 66.6687412,66.6687412 C106.933322,26.4041608 162.558322,1.5 224,1.5 Z M224,116.792135 C194.395366,116.792135 167.593399,128.791784 148.192592,148.192592 C128.791784,167.593399 116.792135,194.395366 116.792135,224 C116.792135,253.604634 128.791784,280.406601 148.192592,299.807408 C167.593399,319.208216 194.395366,331.207865 224,331.207865 C253.604634,331.207865 280.406601,319.208216 299.807408,299.807408 C319.208216,280.406601 331.207865,253.604634 331.207865,224 C331.207865,194.395366 319.208216,167.593399 299.807408,148.192592 C280.406601,128.791784 253.604634,116.792135 224,116.792135 Z" id="A_Color_Grey5" stroke="#969696" stroke-width="3"></path>
                <g id="1" fill-rule="nonzero" fill="#FCFCFC">
                    <use xlink:href="#path-1"></use>
                    <use xlink:href="#path-1"></use>
                </g>
                <g id="3" fill-rule="nonzero" fill="#FCFCFC">
                    <use xlink:href="#path-2"></use>
                    <use xlink:href="#path-2"></use>
                </g>
                <g id="2" fill-rule="nonzero" fill="#FCFCFC">
                    <use xlink:href="#path-3"></use>
                    <use xlink:href="#path-3"></use>
                </g>
                <g id="4" fill-rule="nonzero" fill="#FCFCFC">
                    <use xlink:href="#path-4"></use>
                    <use xlink:href="#path-4"></use>
                </g>
                <g id="5–8" fill-rule="nonzero" fill="#FCFCFC">
                    <use xlink:href="#path-5"></use>
                    <use xlink:href="#path-5"></use>
                </g>
            </g>
        </g>
    </g>
</svg>