<?xml version="1.0" encoding="UTF-8"?>
<svg width="519px" height="860px" viewBox="0 0 519 860" version="1.1" xmlns="http://www.w3.org/2000/svg" xmlns:xlink="http://www.w3.org/1999/xlink">
    <title>C4EECAEB-4C80-4B05-B0CA-549DFDD3BA3F</title>
    <defs>
        <rect id="path-1" x="0" y="0" width="519" height="860"></rect>
    </defs>
    <g id="Atoms" stroke="none" stroke-width="1" fill="none" fill-rule="evenodd">
        <g id="A_Assets_Remote" transform="translate(-241.000000, -194.000000)">
            <g transform="translate(241.000000, 194.000000)" id="Remote">
                <mask id="mask-2" fill="white">
                    <use xlink:href="#path-1"></use>
                </mask>
                <g id="Rectangle"></g>
                <g id="Group" opacity="0.5" mask="url(#mask-2)" fill="#969696" fill-rule="nonzero">
                    <g transform="translate(0.000000, -40.000000)">
                        <path d="M111.5,75.9289 C141,75.9289 165,99.9067 165,129.3794 C165,158.852 141,182.83 111.5,182.83 C82,182.83 58,158.852 58,129.3794 C58,99.9067 82,75.9289 111.5,75.9289 Z M111.5,72.9316 C80.3,72.9316 55,98.2082 55,129.3794 C55,160.551 80.3,185.827 111.5,185.827 C142.7,185.827 168,160.551 168,129.3794 C168,98.2082 142.7,72.9316 111.5,72.9316 Z" id="Shape"></path>
                        <path d="M259,75.9289 C288.5,75.9289 312.5,99.9067 312.5,129.3794 C312.5,158.852 288.5,182.83 259,182.83 C229.5,182.83 205.5,158.852 205.5,129.3794 C205.5,99.9067 229.5,75.9289 259,75.9289 Z M259,72.9316 C227.8,72.9316 202.5,98.2082 202.5,129.3794 C202.5,160.551 227.8,185.827 259,185.827 C290.2,185.827 315.5,160.551 315.5,129.3794 C315.5,98.2082 290.2,72.9316 259,72.9316 Z" id="Shape"></path>
                        <path d="M406.5,75.9289 C436,75.9289 460,99.9067 460,129.3794 C460,158.852 436,182.83 406.5,182.83 C377,182.83 353,158.852 353,129.3794 C353,99.9067 377,75.9289 406.5,75.9289 Z M406.5,72.9316 C375.3,72.9316 350,98.2082 350,129.3794 C350,160.551 375.3,185.827 406.5,185.827 C437.7,185.827 463,160.551 463,129.3794 C463,98.2082 437.7,72.9316 406.5,72.9316 Z" id="Shape"></path>
                        <path d="M259,771.286 C288.5,771.286 312.5,795.264 312.5,824.737 C312.5,854.21 288.5,878.187 259,878.187 C229.5,878.187 205.5,854.21 205.5,824.737 C205.5,795.264 229.5,771.286 259,771.286 Z M259,768.289 C227.8,768.289 202.5,793.566 202.5,824.737 C202.5,855.908 227.8,881.185 259,881.185 C290.2,881.185 315.5,855.908 315.5,824.737 C315.5,793.566 290.2,768.289 259,768.289 Z" id="Shape"></path>
                        <path d="M112,772.026 C141.09,772.026 164.76,795.674 164.76,824.737 L164.76,987.586 C164.76,1016.649 141.09,1040.3 112,1040.3 C82.91,1040.3 59.24,1016.649 59.24,987.586 L59.24,824.737 C59.24,795.674 82.91,772.026 112,772.026 Z M112,768.289 C80.8,768.289 55.5,793.566 55.5,824.737 L55.5,987.586 C55.5,1018.757 80.8,1044.03 112,1044.03 C143.2,1044.03 168.5,1018.757 168.5,987.586 L168.5,824.737 C168.5,793.566 143.2,768.289 112,768.289 Z" id="Shape"></path>
                        <path d="M406,772.026 C435.09,772.026 458.76,795.674 458.76,824.737 L458.76,987.586 C458.76,1016.649 435.09,1040.3 406,1040.3 C376.91,1040.3 353.24,1016.649 353.24,987.586 L353.24,824.737 C353.24,795.674 376.91,772.026 406,772.026 Z M406,768.289 C374.8,768.289 349.5,793.566 349.5,824.737 L349.5,987.586 C349.5,1018.757 374.8,1044.03 406,1044.03 C437.2,1044.03 462.5,1018.757 462.5,987.586 L462.5,824.737 C462.5,793.566 437.2,768.289 406,768.289 Z" id="Shape"></path>
                        <polygon id="Path" points="519 0 516 0 516 1079 519 1079"></polygon>
                        <polygon id="Path" points="3 0 0 0 0 1079 3 1079"></polygon>
                    </g>
                </g>
            </g>
        </g>
    </g>
</svg>