<svg xmlns="http://www.w3.org/2000/svg" width="36" height="36" viewBox="0 0 36 36"><g fill="none" fill-rule="evenodd"><rect width="36" height="36"/><path fill="#FCFCFC" d="M18.0000001,1.50000007 C22.3760721,1.50000007 26.5729116,3.23838793 29.6672618,6.33273816 C32.7616121,9.42708839 34.5000001,13.6239279 34.5000001,18.0000001 C34.5000001,27.1126983 27.1126983,34.5000001 18.0000001,34.5000001 C8.88730167,34.5000001 1.50000007,27.1126983 1.50000007,18.0000001 C1.50000007,8.88730167 8.88730167,1.50000007 18.0000001,1.50000007 Z M24.7035,12.354 L15.9989999,21.0585 L11.2949999,16.3545 C10.8554999,15.915 10.1437499,15.915 9.7042499,16.3545 C9.26474989,16.79325 9.26474989,17.5065 9.7042499,17.94525 L15.9997499,24.24075 L26.29575,13.9455 C26.73525,13.50675 26.73525,12.79425 26.29575,12.35475 C25.85625,11.91525 25.143,11.9145 24.7035,12.354 Z"/></g></svg>