<svg xmlns="http://www.w3.org/2000/svg" width="36" height="36" viewBox="0 0 36 36"><g fill="none" fill-rule="evenodd"><rect width="36" height="36"/><path fill="#FCFCFC" d="M30.5,6 C32.4329966,6 34,7.56700338 34,9.5 L34,26.5 C34,28.4329966 32.4329966,30 30.5,30 L5.5,30 C3.56700338,30 2,28.4329966 2,26.5 L2,9.5 C2,7.56700338 3.56700338,6 5.5,6 L30.5,6 Z M10.1421007,9.14459504 C9.85864463,8.93038017 9.47781818,8.95418182 9.216,9.216 C8.928,9.504 8.928,9.936 9.216,10.224 L25.776,26.784 L25.8578993,26.855405 C26.1413554,27.0696198 26.5221818,27.0458182 26.784,26.784 C27.072,26.496 27.072,26.064 26.784,25.776 L10.224,9.216 Z M9.013,12 L8,12 L8,19.4385965 C8,22.3684211 9.6375345,24 12.5630175,24 C15.2658436,24 16.8693107,22.607327 17.0977321,20.0848505 L14.66,17.647 L14.6605336,19.122807 C14.6605336,20.9473684 14.0717571,21.7192982 12.5630175,21.7192982 C11.0542778,21.7192982 10.4839006,20.9473684 10.4839006,19.122807 L10.483,13.47 L9.013,12 Z M28,12 L19.2235511,12 L19.2235511,14.1929825 L22.3698252,14.1929825 L22.369,19.382 L24.853,21.866 L24.8537259,14.1929825 L28,14.1929825 L28,12 Z M17.126035,12 L14.987,12 L17.126,14.139 L17.126035,12 Z"/></g></svg>