<?xml version="1.0" encoding="UTF-8"?>
<svg width="195px" height="25px" viewBox="0 0 195 25" version="1.1" xmlns="http://www.w3.org/2000/svg" xmlns:xlink="http://www.w3.org/1999/xlink">
    <title>A_Assets_MagentaTV_Text</title>
    <g id="Symbols" stroke="none" stroke-width="1" fill="none" fill-rule="evenodd">
        <g id="A_Assets_MagentaTV_Text" fill="#E20074">
            <path d="M58.3220914,0 C63.4647216,0 66.9643966,3.10685501 67.643244,7.57070226 L62.5006139,7.57070226 C61.9647577,5.78545223 60.4286849,4.64222781 58.3220914,4.64222781 C54.9285766,4.64222781 53.0357478,7.35693445 53.0357478,12.4996389 C53.0357478,17.6430655 54.857081,20.35705 58.4282516,20.35705 C61.00065,20.35705 62.6789918,19.1784383 63.0718567,16.0000867 L58.7149563,16.0000867 L58.7149563,11.8568911 L68,11.8568911 L68,13.1784961 C68,21.0712945 64.4642161,25 58.4282516,25 C51.499675,25 48,20.14256 48,12.4996389 C48,4.8567178 51.7141619,0 58.3220914,0 Z M4.37402307,0 L11.3937167,13.2935372 L11.60557,13.2935372 L18.5903114,0 L23,0 L23,24 L18.2379357,24 L18.2379357,10.4550931 L18.0260824,10.4550931 L12.2411301,21.018435 L10.7239176,21.018435 L4.97391763,10.4550931 L4.76277757,10.4550931 L4.76277757,24 L0,24 L0,0 L4.37402307,0 Z M38.8977623,0 L47,24 L42.1311846,24 L40.6042907,19.3300439 L32.3957093,19.3300439 L30.8673784,24 L26,24 L34.1015192,0 L38.8977623,0 Z M86,0 L86,4.49110062 L76.8095287,4.49110062 L76.8095287,9.55684708 L85.6441655,9.55684708 L85.6441655,14.0479477 L76.8095287,14.0479477 L76.8095287,19.5088994 L86,19.5088994 L86,24 L72,24 L72,0 L86,0 Z M94.7696339,0 L103.125469,15.0901771 L103.334559,15.0901771 L103.334559,0 L108,0 L108,24 L103.230366,24 L94.9090269,8.98174663 L94.6999374,8.98174663 L94.6999374,24 L90,24 L90,0 L94.7696339,0 Z M129,0 L129,4.49123657 L122.905973,4.49123657 L122.905973,24 L118.094027,24 L118.094027,4.49123657 L112,4.49123657 L112,0 L129,0 Z M139.898039,0 L148,24 L143.131351,24 L141.603791,19.3293174 L133.396209,19.3293174 L131.86793,24 L127,24 L135.101961,0 L139.898039,0 Z M173,0 L173,4.49123657 L166.905973,4.49123657 L166.905973,24 L162.094027,24 L162.094027,4.49123657 L156,4.49123657 L156,0 L173,0 Z M179.868617,0 L184.876762,16.7785682 L185.087117,16.7785682 L190.09597,0 L195,0 L187.36419,24 L182.600397,24 L175,0 L179.868617,0 Z M36.5883802,7.04198577 L36.3749743,7.04198577 L33.8529049,14.8388073 L39.1470951,14.8388073 L36.5883802,7.04198577 Z M137.588018,7.04198577 L137.376056,7.04198577 L134.852636,14.8380808 L140.147364,14.8380808 L137.588018,7.04198577 Z"></path>
        </g>
    </g>
</svg>
