<?xml version="1.0" encoding="utf-8"?>
<!-- Generator: Adobe Illustrator 23.0.2, SVG Export Plug-In . SVG Version: 6.00 Build 0)  -->
<svg version="1.1" id="Layer_1" xmlns="http://www.w3.org/2000/svg" xmlns:xlink="http://www.w3.org/1999/xlink" x="0px" y="0px"
	 viewBox="0 0 84 36" style="enable-background:new 0 0 84 36;" xml:space="preserve">
<style type="text/css">
	.st0{fill-rule:evenodd;clip-rule:evenodd;fill:#FCFCFC;}
</style>
<g transform="translate(-601 -70381)">
	<path class="st0" d="M620.3,70411H618l-1.4-2.2c-0.8,1-1.7,1.6-2.6,2c-0.9,0.4-2,0.6-3.2,0.6c-1.8,0-3.2-0.5-4.3-1.6
		c-1.2-1.2-1.8-2.7-1.8-4.5c0-1.9,0.7-3.6,2-5.1c0.5-0.6,1.4-1.4,2.5-2.4c-0.1-0.2-0.4-0.5-0.7-1c-1.3-2-2-3.8-2-5.4
		s0.6-2.9,1.8-3.9c0.9-0.7,1.9-1.1,3.1-1.1c1.4,0,2.6,0.5,3.5,1.5c0.9,0.9,1.3,2.1,1.3,3.4c0,1.2-0.3,2.3-1,3.3s-1.9,2.2-3.6,3.5
		l5,7.5c0.5-1.3,0.8-2.8,0.9-4.6h2c-0.2,2.4-0.8,4.5-1.8,6.1L620.3,70411z M610.3,70399.3c-2.3,1.9-3.4,3.9-3.4,6.1
		c0,1.4,0.4,2.4,1.3,3.3c0.8,0.8,1.7,1.1,2.9,1.1c1.9,0,3.4-0.8,4.7-2.4L610.3,70399.3z M610.8,70396.7c1-0.8,1.7-1.5,2.1-2
		c0.9-1.1,1.4-2.2,1.4-3.3c0-0.9-0.3-1.6-0.8-2.2s-1.2-0.9-2-0.9c-0.8,0-1.5,0.3-2,1c-0.5,0.6-0.8,1.4-0.8,2.4
		c0,0.8,0.1,1.4,0.4,2.1C609.3,70394.4,609.9,70395.3,610.8,70396.7z M633.3,70411v-19.3c-0.5,0.5-1,0.9-1.4,1s-1.2,0.3-2.3,0.3
		v-1.6c1.5-0.1,2.5-0.5,3.2-1.3c0.4-0.6,0.8-1.6,1-3h1.6v24H633.3z M660,70409.1v1.9h-12.9c0-2.4,0.5-4.4,1.4-6.1
		c0.5-0.9,1.1-1.7,1.8-2.4c0.7-0.6,2.1-1.7,4.2-3.2c1-0.7,1.9-1.7,2.6-2.9c0.6-1,0.9-2.1,0.9-3.4c0-1.3-0.3-2.4-1-3.3
		c-0.8-1-2-1.5-3.4-1.5c-1.3,0-2.4,0.4-3.2,1.3s-1.2,2.1-1.3,3.6h-2.1c0.2-1.9,0.7-3.4,1.6-4.5c1.2-1.4,2.8-2.1,4.9-2.1
		c2.1,0,3.8,0.7,5,2.2c1,1.2,1.6,2.8,1.6,4.6c0,2.2-0.8,4-2.3,5.7c-0.5,0.6-1,1-1.3,1.3c-0.4,0.3-1.4,1.1-3.2,2.4
		c-1.3,1-2.3,2-2.9,3c-0.6,1-0.9,2.3-1,3.6H660z M667.5,70404.2h1.9c0,1.3,0.2,2.4,0.7,3.2c0.8,1.5,2.1,2.3,4.1,2.3
		c1.5,0,2.6-0.5,3.5-1.4c0.9-1,1.4-2.3,1.4-4c0-1.9-0.6-3.3-1.8-4.2c-0.9-0.7-2-1-3.3-1c-0.2,0-0.5,0-0.9,0.1v-1.8
		c0.3,0,0.5,0,0.7,0c1.2,0,2.2-0.3,3-0.9c1.1-0.9,1.7-2.1,1.7-3.7c0-1.3-0.4-2.4-1.1-3.2c-0.8-0.8-1.8-1.2-3.1-1.2
		c-1.4,0-2.4,0.4-3.1,1.2c-0.7,0.8-1.1,2-1.2,3.5H668c0-1.7,0.5-3.1,1.2-4.1c1.1-1.6,2.8-2.3,5.1-2.3c1.9,0,3.4,0.6,4.5,1.7
		c1.1,1.1,1.7,2.5,1.7,4.3c0,2.6-1.1,4.4-3.4,5.5c2.7,1,4.1,3,4.1,6.2c0,2.2-0.7,4-2,5.4c-1.2,1.3-2.9,1.9-4.9,1.9
		c-2.1,0-3.7-0.6-4.9-1.8C668.2,70408.5,667.5,70406.6,667.5,70404.2z"/>
</g>
</svg>
