<svg width="36" height="36" viewBox="0 0 36 36" fill="none" xmlns="http://www.w3.org/2000/svg">
<path fill-rule="evenodd" clip-rule="evenodd" d="M6 28L21.7881 17.5L6 7V28ZM8.25061 11.1985L17.7246 17.5L8.25061 23.8V11.1985ZM23.125 7C23.7463 7 24.25 7.50368 24.25 8.125V26.8782C24.25 27.4995 23.7463 28.0032 23.125 28.0032C22.5037 28.0032 22 27.4995 22 26.8782V8.125C22 7.50368 22.5037 7 23.125 7ZM28.1917 7C28.813 7 29.3167 7.50368 29.3167 8.125V26.8782C29.3167 27.4995 28.813 28.0032 28.1917 28.0032C27.5703 28.0032 27.0667 27.4995 27.0667 26.8782V8.125C27.0667 7.50368 27.5703 7 28.1917 7Z" fill="#FCFCFC"/>
</svg>
