<svg width="36" height="36" viewBox="0 0 36 36" fill="none" xmlns="http://www.w3.org/2000/svg">
<path fill-rule="evenodd" clip-rule="evenodd" d="M33.75 4.5V27.75C33.75 30.1366 31.8671 32.1048 29.5134 32.2423L29.25 32.25H6.75C4.36339 32.25 2.39522 30.3671 2.25768 28.0134L2.25 27.75V4.5H33.75ZM31.5 6.75H4.5V27.75C4.5 28.95 5.36367 29.8843 6.52825 29.99L6.75 30H29.25C30.45 30 31.3843 29.1363 31.49 27.9717L31.5 27.75V6.75ZM16.5 18.75V24.75H8.25V18.75H16.5ZM26.625 22.5C27.225 22.5 27.75 23.025 27.75 23.625C27.75 24.175 27.3089 24.662 26.7732 24.7393L26.625 24.75H20.625C20.025 24.75 19.5 24.225 19.5 23.625C19.5 23.075 19.9411 22.588 20.4768 22.5107L20.625 22.5H26.625ZM26.625 18.75C27.225 18.75 27.75 19.275 27.75 19.875C27.75 20.425 27.3089 20.912 26.7732 20.9893L26.625 21H20.625C20.025 21 19.5 20.475 19.5 19.875C19.5 19.325 19.9411 18.838 20.4768 18.7607L20.625 18.75H26.625ZM27.75 12V15H8.25V12H27.75Z" fill="#FCFCFC"/>
</svg>
