<svg xmlns="http://www.w3.org/2000/svg" width="36" height="36" viewBox="0 0 36 36"><g fill="none" fill-rule="evenodd"><rect width="36" height="36"/><path fill="#FCFCFC" fill-rule="nonzero" d="M0.75,5.25 L0.75,26.25 C0.75,28.7250001 2.77500001,30.75 5.25,30.75 L30.75,30.75 C33.2250001,30.75 35.25,28.7250001 35.25,26.25 L35.25,5.25 L0.75,5.25 Z M33,7.50000001 L33,8.92500002 L20.3250001,19.8000001 C18.9750001,20.9250001 17.0250001,20.9250001 15.6750001,19.8000001 L3.00000001,8.92500002 L3.00000001,7.50000001 L33,7.50000001 Z M30.7500001,28.5000001 L5.25000002,28.5000001 C3.97500001,28.5000001 3.00000001,27.5250001 3.00000001,26.2500001 L3.00000001,11.925 L14.1750001,21.5250001 C15.3000001,22.5000001 16.6500001,22.9500001 18,22.9500001 C19.3500001,22.9500001 20.7000001,22.5000001 21.8250001,21.5250001 L33,11.925 L33,26.2500001 C33,27.5250001 32.0250001,28.5000001 30.7500001,28.5000001 Z"/></g></svg>